<svg width="41" height="53" viewBox="0 0 41 53" fill="none" xmlns="http://www.w3.org/2000/svg">
<g clip-path="url(#clip0_2391_1752)">
<path d="M11.6719 42.6206C11.6719 42.6206 10.7343 45.2944 11.9078 47.4116H11.6719C11.6719 47.4116 11.3581 47.3366 11.2434 47.6439C11.1287 47.9512 10.7394 48.9913 10.6214 49.4642C10.5034 49.9372 10.409 50.4177 10.7394 50.3902C11.0697 50.3626 11.2232 49.6204 11.6245 49.5363C11.8369 49.4762 12.1311 50.9892 14.0673 52.1594C16.0036 53.3296 18.8416 53.3825 19.8389 51.6521C20.0278 51.5694 20.1219 51.8177 20.1219 51.8177C20.1219 51.8177 21.4202 52.9288 23.3558 52.7632C25.2913 52.5976 26.7159 51.7651 27.0025 49.3707C27.2504 47.3021 24.7409 43.2124 24.7409 43.2124L11.6719 42.6206Z" fill="#FFBC45"/>
<path d="M17.5726 46.8283C17.5726 46.8283 19.3196 47.1827 19.9568 48.1282C20.4761 49.3814 20.3816 50.6107 19.8389 51.6508L20.1218 51.8164C20.1218 51.8164 20.5785 50.8016 20.4996 49.7753C20.4207 48.749 20.1692 48.1992 20.1692 48.1992C20.1692 48.1992 21.2548 47.6636 21.9633 46.7021C21.2237 47.4429 20.0748 48.0101 20.0748 48.0101C20.0748 48.0101 19.5396 47.033 17.5726 46.8283Z" fill="#F4A321"/>
<path d="M20.4772 49.5361C20.4772 49.5361 21.0663 50.2638 22.1203 50.9415C21.2078 50.5632 20.4996 49.7753 20.4996 49.7753L20.4772 49.5361Z" fill="#F4A321"/>
<path d="M11.9078 47.4114C11.9078 47.4114 12.8204 49.4129 14.2208 50.39C13.1823 49.933 12.0808 48.4199 11.6719 47.4114H11.9078Z" fill="#F4A321"/>
<path d="M27.7732 37.0869L32.7306 40.2456L32.2135 41.3691C32.2135 41.3691 29.3567 41.5347 27.491 40.8979C25.6253 40.2612 27.7732 37.0869 27.7732 37.0869Z" fill="#AA5943"/>
<path d="M14.9173 33.9997C14.9173 33.9997 12.2809 37.1866 11.1479 44.2133C15.806 47.3948 23.5815 46.3645 25.4364 44.1089C25.0054 38.737 25.4476 37.889 25.4476 37.889L27.1686 36.3103C27.1686 36.3103 22.5687 33.2114 22.5868 33.2114C22.6049 33.2114 14.9173 33.9997 14.9173 33.9997Z" fill="#F4EDED"/>
<path d="M28.1495 35.7166L21.3563 35.9756L21.6329 43.2514L28.4261 42.9924L28.1495 35.7166Z" fill="#B8C959"/>
<path d="M34.2887 45.2065H27.4906V52.4876H34.2887V45.2065Z" fill="#F44D37"/>
<path d="M40.5031 39.0254L33.826 37.7461L32.46 44.8975L39.1371 46.1767L40.5031 39.0254Z" fill="#85C4D3"/>
<path d="M24.6183 12.487C24.6183 12.487 26.4909 13.3365 27.1201 14.9456C27.7494 16.5546 26.9942 17.0888 26.2705 16.6318C27.262 18.9958 26.8675 20.9973 25.9868 22.5263C25.106 24.0553 21.1546 11.4158 21.1546 11.4158L24.6183 12.487Z" fill="#422019"/>
<path d="M20.8542 39.4378C20.8542 39.4378 21.0949 38.7993 21.3247 38.5579C21.5544 38.3165 21.9036 37.957 22.0523 38.0745C22.2011 38.1919 21.6706 38.6927 21.6706 38.6927C21.6706 38.6927 22.2883 38.272 22.3943 38.434C22.5003 38.596 21.9043 38.9718 21.9043 38.9718C21.9043 38.9718 22.5517 38.8667 22.5821 39.0392C22.6125 39.2117 22.0607 39.2679 22.0607 39.2679C22.0607 39.2679 22.0133 39.8575 21.5077 40.1739C21.0022 40.4902 20.5941 39.6882 20.8542 39.4378Z" fill="#AA5943"/>
<path d="M10.9047 33.0288C10.9047 33.0288 10.7393 34.3984 9.41747 34.493C8.09562 34.5875 7.43488 33.6185 7.85969 32.649C8.28451 31.6796 9.00351 31.68 9.00351 31.68C9.00351 31.68 5.86914 30.8729 3.94914 25.3546C2.02915 19.8363 3.98207 12.7125 11.5662 10.4736C19.1502 8.23467 23.3362 11.9232 24.6265 14.7916C25.9169 17.6601 25.61 21.2533 26.0349 21.8918C26.4597 22.5304 28.655 22.5079 28.4662 26.5726C28.2773 30.6373 24.3591 33.7591 20.2756 34.3973C16.1921 35.0355 12.8048 34.3781 10.9047 33.0288Z" fill="#AA5943"/>
<path d="M20.9056 22.1915C20.9056 22.1915 20.7504 20.1585 22.3487 19.6587C23.8239 19.1977 24.7564 20.1907 25.0868 21.1837C25.4172 22.1767 25.0463 22.9207 24.5346 23.4306C23.7769 22.3303 20.9056 22.1915 20.9056 22.1915Z" fill="#8C3E2C"/>
<path d="M20.9056 22.1915C20.9056 22.1915 20.8618 20.427 22.1837 19.9544C23.5055 19.4819 24.662 20.4035 24.9218 21.6682C25.1816 22.933 24.3317 23.9615 23.3992 24.2688C22.7786 23.934 22.5141 24.0677 22.0067 24.5878C21.5769 24.3478 20.9024 23.365 20.9056 22.1915Z" fill="white"/>
<path d="M13.9139 27.9888C13.9139 27.9888 12.7578 28.2164 12.0496 27.3419C11.3415 26.4675 11.3295 24.6351 12.5689 23.5121C13.8082 22.389 15.8379 22.4973 16.9003 23.382C17.9627 24.2666 17.8729 25.3212 17.8234 25.8528C17.7738 26.3845 13.9139 27.9888 13.9139 27.9888Z" fill="#8C3E2C"/>
<path d="M15.6873 27.7846C15.6873 27.7846 14.8467 28.0745 13.5386 27.9683C12.3398 27.8701 11.5759 26.3012 12.2302 24.6806C12.8844 23.0599 14.8315 22.4964 16.4638 23.3582C17.8859 24.1087 18.01 25.5261 17.7126 26.2886C17.4152 27.051 16.2909 27.6356 15.6873 27.7846Z" fill="white"/>
<path d="M16.7787 25.5132C16.7792 25.1182 16.6628 24.732 16.4441 24.4034C16.2255 24.0747 15.9144 23.8184 15.5502 23.6669C15.1861 23.5154 14.7852 23.4755 14.3984 23.5522C14.0116 23.6289 13.6562 23.8188 13.3771 24.0979C13.0981 24.377 12.908 24.7327 12.8309 25.12C12.7538 25.5073 12.7932 25.9088 12.944 26.2737C13.0948 26.6386 13.3504 26.9505 13.6782 27.17C14.0061 27.3894 14.3916 27.5065 14.7859 27.5064C15.314 27.5064 15.8205 27.2965 16.1941 26.9227C16.5677 26.549 16.778 26.042 16.7787 25.5132Z" fill="#442A2A"/>
<path d="M24.4427 21.8856C24.1645 20.9271 23.1925 20.3675 22.2716 20.6357C21.3507 20.9039 20.9646 21.8965 21.2429 22.8551C21.5211 23.8136 22.3588 24.3746 23.2794 24.1065C24.1999 23.8383 24.721 22.8442 24.4427 21.8856Z" fill="#442A2A"/>
<path d="M15.3189 23.3589C15.3189 23.3589 14.9303 24.5458 15.4116 24.4157C15.8928 24.2856 16.0597 23.7111 16.0597 23.7111C16.0597 23.7111 15.967 23.4513 15.3189 23.3589Z" fill="white"/>
<path d="M23.0265 20.1697C23.0265 20.1697 22.6378 21.3565 23.1191 21.2268C23.6004 21.0971 23.7672 20.5219 23.7672 20.5219C23.7672 20.5219 23.6745 20.2625 23.0265 20.1697Z" fill="white"/>
<path d="M19.4731 27.3694C19.4731 27.3694 20.6552 27.8325 22.1797 27.444C23.7042 27.0555 24.2738 26.3467 24.2738 26.3467C24.2738 26.3467 23.782 27.2259 22.2004 27.6017C20.6187 27.9775 19.8045 27.635 19.6511 27.7061C19.4977 27.7771 19.2017 27.5788 19.4731 27.3694Z" fill="#822A19"/>
<path d="M10.9362 21.6092C10.9362 21.6092 11.432 20.1596 12.2816 19.5228C13.1312 18.8861 13.3871 19.5228 12.9742 19.8773C12.5613 20.2317 12.0518 20.6398 10.9362 21.6092Z" fill="#422019"/>
<path d="M23.1451 17.472C23.1451 17.472 22.5549 16.5685 21.6583 16.4859C20.7616 16.4033 20.8318 16.8407 21.0326 16.9704C21.2334 17.1002 22.1536 17.094 23.1451 17.472Z" fill="#422019"/>
<path d="M22.3198 24.2569C22.3198 24.2569 22.6024 23.8756 23.1068 24.1387C23.6112 24.4018 23.4922 24.9425 23.4922 24.9425L22.3198 24.2569Z" fill="#AA5943"/>
<path d="M20.8973 22.1067C20.8973 22.1067 21.0059 23.71 21.9829 24.4985C22.3766 23.9807 22.8484 23.7375 23.3677 24.0999C23.8869 24.4623 23.6669 25.2346 23.1868 25.605C23.5331 25.0849 23.596 24.5098 23.1553 24.2641C22.7145 24.0184 22.2506 24.3366 21.9973 24.7526C21.1097 24.0912 20.8723 22.925 20.8973 22.1067Z" fill="#8C3E2C"/>
<path d="M8.38837 33.2006C8.38837 33.2006 8.59281 32.3968 9.3954 32.5229C10.198 32.6491 10.1191 33.4058 9.60021 33.5315C9.08132 33.6573 9.31688 33.0205 9.31688 33.0205C9.31688 33.0205 8.95322 32.586 8.38837 33.2006Z" fill="#8C3E2C"/>
<path d="M23.6666 26.957C23.6666 26.957 23.3047 27.5851 23.2924 28.2707C23.2801 28.9564 23.5367 29.8073 22.8361 29.8544C22.1356 29.9016 21.5928 29.3406 21.0735 28.7937C20.5543 28.2468 19.6927 27.6086 19.6927 27.6086C19.6927 27.6086 21.6684 28.0903 23.6666 26.957Z" fill="#822A19"/>
<path d="M21.3746 28.9742C21.3746 28.9742 21.9174 29.6124 22.543 29.7425C23.1686 29.8726 23.2805 29.4703 23.2627 29.1264C22.903 28.6194 21.8703 28.726 21.3746 28.9742Z" fill="#A33A2C"/>
<path d="M8.06272 17.2624C8.06272 17.2624 9.90383 18.3181 11.0683 17.4041C12.2327 16.4901 11.3053 15.4022 11.3053 15.4022C11.3053 15.4022 13.8545 17.1359 16.2149 16.8518C18.5753 16.5677 17.5997 13.7627 17.5997 13.7627C17.5997 13.7627 18.2764 15.6541 19.3004 15.3388C20.3245 15.0235 19.7097 13.6355 19.7097 13.6355C19.7097 13.6355 21.426 15.9048 23.6676 14.9829C25.9093 14.0609 24.6808 11.5549 24.6808 11.5549C24.6808 11.5549 26.0732 13.4463 27.3947 12.8077C28.7162 12.1692 27.3947 9.97121 25.1053 9.47363C27.1823 8.38642 28.1738 6.23483 26.806 4.74536C25.4382 3.25588 21.9431 5.00882 19.5827 7.61052C20.6447 6.23954 22.5408 4.53009 20.9056 3.77303C20.1291 3.41389 17.9923 6.42872 17.9923 6.42872C17.9923 6.42872 21.2819 3.00075 18.8036 0.754937C16.3253 -1.49087 12.0529 1.53374 9.71603 6.4983C10.4242 4.34671 10.0699 2.9993 8.0638 3.92125C6.05769 4.84321 5.46714 8.86226 5.53807 11.3433C5.34918 9.59395 5.07055 8.93184 3.94591 9.33374C2.82127 9.73565 3.34162 12.9034 3.83736 14.1566C2.70439 13.3999 1.50051 13.4474 1.59386 14.0841C1.68722 14.7209 3.43497 14.5096 3.43497 14.5096C3.43497 14.5096 0.297705 16.5216 0.510475 18.3181C0.723245 20.1145 2.75397 18.6254 2.75397 18.6254C2.75397 18.6254 -0.103228 22.739 0.746404 24.7721C1.59604 26.8052 2.82344 25.103 2.82344 25.103C2.82344 25.103 2.45037 27.9544 3.947 29.7675C5.44362 31.5806 7.6502 32.1956 8.8483 31.6273C9.50362 29.8545 9.55066 27.1263 7.47326 24.0459C8.86603 25.552 9.38529 24.7011 9.38529 23.6135C9.38529 22.5259 8.48826 21.6515 7.68458 21.0604C9.14828 21.7696 9.99936 20.6487 9.8358 19.5426C9.67224 18.4366 8.06272 17.2624 8.06272 17.2624Z" fill="#422019"/>
<path d="M17.5071 38.0525C17.5071 38.0525 17.4127 40.257 18.4515 40.6589C19.4904 41.0608 20.7945 39.5409 20.7945 39.5409L21.5277 40.0917C21.5277 40.0917 21.0008 44.4406 17.484 44.3942C13.9671 44.3478 13.6121 39.359 13.6121 39.359C13.6121 39.359 16.4216 38.1637 17.5071 38.0525Z" fill="#AA5943"/>
<path d="M23.0311 42.0652C23.0329 42.0181 24.3794 37.1195 24.3794 37.1195L25.1368 37.0869L27.0184 41.9471L26.2762 42.0069L24.7948 38.1143L23.7092 42.0283L23.0311 42.0652Z" fill="white"/>
<path d="M24.0205 39.9369C24.0566 39.9369 25.7671 39.8423 25.7671 39.8423L25.9325 40.3859C25.9325 40.3859 23.7845 40.5395 23.8081 40.504C23.8316 40.4685 24.0205 39.9369 24.0205 39.9369Z" fill="white"/>
<path d="M29.9842 46.4722H29.3705V51.2947H29.9842V46.4722Z" fill="white"/>
<path d="M29.3705 46.4722C29.3705 46.4722 31.9787 46.0467 32.1206 47.264C32.2624 48.4813 31.4121 48.6346 31.4121 48.6346C31.4121 48.6346 32.4976 48.7905 32.4035 50.0197C32.316 51.1584 31.8369 51.2961 29.9842 51.2961C29.9842 49.8407 29.6184 47.6068 29.3705 46.4722Z" fill="white"/>
<path d="M30.1021 48.1997V47.0726C30.1021 47.0726 31.0382 46.9639 31.2192 47.435C31.4001 47.9061 30.9597 48.316 30.1021 48.1997Z" fill="#F44D37"/>
<path d="M30.1021 50.6955V49.1781C30.1021 49.1781 31.3624 49.0296 31.606 49.6659C31.8495 50.3023 31.2575 50.8546 30.1021 50.6955Z" fill="#F44D37"/>
<path d="M36.6177 44.0963C36.2321 44.0941 35.8538 43.9912 35.5202 43.7976C34.7809 43.3812 34.4031 42.477 34.5793 41.5478C34.7523 40.6386 35.391 40.0018 36.2439 39.8862C37.7394 39.6884 38.4215 40.6835 38.5724 41.2384L37.8197 41.4475C37.7915 41.3503 37.5104 40.5052 36.3485 40.661C35.5806 40.7651 35.3859 41.4783 35.345 41.6946C35.2499 42.1926 35.3848 42.8253 35.9008 43.1156C36.8286 43.6382 37.6377 42.9406 37.6457 42.9344L38.1606 43.5226C38.127 43.5534 37.4952 44.0959 36.6177 44.0963Z" fill="white"/>
<path d="M32.5515 40.2456C32.5515 40.2456 33.0393 39.689 33.3581 39.6535C33.6769 39.618 33.9008 39.581 33.8773 39.718C33.8538 39.855 33.3591 40.176 33.3591 40.176L33.0176 41.9634C33.0176 41.9634 32.2841 41.651 32.2132 41.3673C32.1422 41.0835 32.5515 40.2456 32.5515 40.2456Z" fill="#AA5943"/>
<path d="M17.5071 38.0523C17.5071 38.0523 17.5386 36.4578 17.3182 35.7021C17.0978 34.9465 16.5945 34.6331 16.5945 34.6331C16.5945 34.6331 17.29 34.662 17.5089 35.7967C17.7278 36.9314 17.6424 37.8784 17.5118 38.4785C17.5042 38.2861 17.5071 38.0523 17.5071 38.0523Z" fill="#E8DDDD"/>
<path d="M13.6107 39.3571C13.6107 39.3571 13.2984 38.2514 13.3169 36.771L13.1649 37.1138C13.1649 37.1138 13.0925 38.7033 13.8249 40.615C13.6849 39.933 13.6107 39.3571 13.6107 39.3571Z" fill="#E8DDDD"/>
<path d="M17.5682 37.4903C17.5682 37.4903 17.7278 36.135 17.6406 35.1423C18.0238 36.8456 17.5422 38.3126 17.5422 38.3126L17.5682 37.4903Z" fill="#E8DDDD"/>
<path d="M23.3601 35.9008L22.4623 34.1414L23.6666 35.8892L23.3601 35.9008Z" fill="#E8DDDD"/>
</g>
<defs>
<clipPath id="clip0_2391_1752">
<rect width="40" height="53" fill="white" transform="translate(0.5)"/>
</clipPath>
</defs>
</svg>
