<svg width="21" height="22" viewBox="0 0 21 22" fill="none" xmlns="http://www.w3.org/2000/svg">
<path d="M18.5264 9.26051L18.5252 9.25922L11.4544 2.18849C11.3947 2.12873 11.3239 2.08133 11.2459 2.04899C11.1679 2.01665 11.0843 2 10.9999 2C10.9155 2 10.8319 2.01665 10.7539 2.04899C10.6759 2.08133 10.605 2.12873 10.5454 2.18849L3.47461 9.25922L3.47333 9.26051L2.18826 10.5456C2.06772 10.6661 2 10.8296 2 11.0001C2 11.1705 2.06772 11.334 2.18826 11.4546C2.3088 11.5751 2.47229 11.6428 2.64276 11.6428C2.81323 11.6428 2.97672 11.5751 3.09726 11.4546L3.28561 11.2662V19.3571C3.28561 19.5276 3.35334 19.6912 3.4739 19.8117C3.59446 19.9323 3.75797 20 3.92847 20H18.0713C18.2418 20 18.4053 19.9323 18.5259 19.8117C18.6464 19.6912 18.7142 19.5276 18.7142 19.3571V11.2662L18.9025 11.4546C18.9621 11.5145 19.0329 11.562 19.1109 11.5944C19.1889 11.6269 19.2725 11.6436 19.357 11.6436C19.4415 11.6436 19.5251 11.6269 19.6031 11.5944C19.6811 11.562 19.752 11.5145 19.8115 11.4546C19.8713 11.3949 19.9187 11.3241 19.951 11.2461C19.9834 11.1681 20 11.0845 20 11.0001C20 10.9156 19.9834 10.832 19.951 10.754C19.9187 10.6761 19.8713 10.6052 19.8115 10.5456L18.5264 9.26051ZM9.07132 18.7143V13.5715H12.9285V18.7143H9.07132ZM17.4284 18.7143H14.2142V12.9286C14.2142 12.7581 14.1464 12.5946 14.0259 12.4741C13.9053 12.3535 13.7418 12.2858 13.5713 12.2858H8.42846C8.25797 12.2858 8.09445 12.3535 7.9739 12.4741C7.85334 12.5946 7.78561 12.7581 7.78561 12.9286V18.7143H4.57133V9.9805L10.9999 3.55198L17.4284 9.9805V18.7143Z" fill="white" fill-opacity="0.93"/>
</svg>
