<svg width="21" height="22" viewBox="0 0 21 22" fill="none" xmlns="http://www.w3.org/2000/svg">
<path d="M17.5614 18.0438C17.3776 18.2276 17.1414 18.3151 16.9051 18.3151C16.6689 18.3151 16.4326 18.2276 16.2489 18.0438L14.1401 15.9351C14.6301 15.5588 15.0764 15.1126 15.4439 14.6226L17.5614 16.7401C17.9201 17.0988 17.9201 17.6851 17.5614 18.0438Z" fill="white"/>
<path d="M9.99248 3.68506C6.22123 3.68506 3.16748 6.73881 3.16748 10.5101C3.16748 14.2813 6.22123 17.3351 9.99248 17.3351C11.55 17.3351 12.985 16.8101 14.14 15.9351C14.63 15.5588 15.0762 15.1126 15.4437 14.6226C16.31 13.4851 16.8175 12.0588 16.8175 10.5188C16.8175 6.73881 13.7637 3.68506 9.99248 3.68506ZM9.99248 15.4801C7.25373 15.4801 5.02248 13.2488 5.02248 10.5101C5.02248 7.77131 7.25373 5.54006 9.99248 5.54006C12.7312 5.54006 14.9625 7.77131 14.9625 10.5101C14.9625 13.2488 12.7312 15.4801 9.99248 15.4801Z" fill="white"/>
</svg>
