<svg width="49" height="49" viewBox="0 0 49 49" fill="none" xmlns="http://www.w3.org/2000/svg">
<path d="M23.4166 47.5492C27.3407 47.5492 30.5217 46.8519 30.5217 45.9919C30.5217 45.1318 27.3407 44.4346 23.4166 44.4346C19.4925 44.4346 16.3114 45.1318 16.3114 45.9919C16.3114 46.8519 19.4925 47.5492 23.4166 47.5492Z" fill="#1B136A"/>
<path d="M26.1722 45.8458H20.6608L21.7639 37.4104H25.0691L26.1722 45.8458Z" fill="#1B136A"/>
<path d="M23.4166 41.2134C32.6624 41.2134 40.1575 39.0179 40.1575 36.3097C40.1575 33.6015 32.6624 31.406 23.4166 31.406C14.1708 31.406 6.6756 33.6015 6.6756 36.3097C6.6756 39.0179 14.1708 41.2134 23.4166 41.2134Z" fill="#1B136A"/>
<path d="M35.0159 36.6109H11.3644L9.82263 22.447H36.5576L35.0159 36.6109Z" fill="#FF6A00"/>
<path d="M23.1901 38.0917C29.7213 38.0917 35.0159 37.4288 35.0159 36.6109C35.0159 35.7931 29.7213 35.1301 23.1901 35.1301C16.659 35.1301 11.3644 35.7931 11.3644 36.6109C11.3644 37.4288 16.659 38.0917 23.1901 38.0917Z" fill="#FF6A00"/>
<path d="M11.3334 24.1693L12.9893 37.3604C13.4594 37.4605 14.0204 37.5531 14.6588 37.6364L12.943 23.9673L11.3334 24.1693Z" fill="#FFAA00"/>
<path d="M16.4987 24.6602V37.8321C17.0117 37.8762 17.5538 37.9155 18.1209 37.9492V24.6602H16.4987Z" fill="#FFAA00"/>
<path d="M20.6609 24.4006V38.0578C21.1894 38.0723 21.7308 38.0824 22.283 38.0876V24.4006H20.6609Z" fill="#FFAA00"/>
<path d="M33.067 23.9673L31.3452 37.6834C31.9694 37.6089 32.5285 37.526 33.0112 37.4361L34.6766 24.1693L33.067 23.9673Z" fill="#FFAA00"/>
<path d="M27.8891 24.6602V37.9703C28.454 37.9396 28.9962 37.9036 29.5113 37.8627V24.6602H27.8891Z" fill="#FFAA00"/>
<path d="M23.7269 24.4006V38.0903C24.2783 38.0872 24.8199 38.0794 25.3491 38.0672V24.4006H23.7269Z" fill="#FFAA00"/>
<path d="M35.1759 21.6605C34.1899 21.5725 33.195 21.8197 32.2156 21.9034C25.6295 22.4665 18.9319 19.9807 12.3492 20.7206C12.2496 20.7015 12.1605 20.6886 12.0527 20.6982C11.9084 20.7111 11.7674 20.7525 11.6368 20.8151C11.5627 20.826 11.4882 20.8348 11.4141 20.8465C11.3015 20.8642 11.2739 20.9626 11.3035 21.0471C11.27 21.0796 11.2384 21.1139 11.2086 21.1499C9.81407 21.1275 8.57542 22.4034 8.85698 23.881C8.98657 24.5611 9.42091 25.1923 10.0251 25.5354C11.0085 26.0938 12.7117 25.7508 13.5593 26.5657C13.8587 26.8536 13.9977 27.2511 14.1175 27.6386C14.3257 28.312 14.5817 29.1458 15.3327 29.3904C15.993 29.6054 16.4848 29.1016 16.8294 28.6107C17.0138 28.3482 17.1824 28.0706 17.407 27.8395C17.9603 27.2703 18.832 27.2833 19.6763 27.2946C20.0855 27.3001 20.5053 27.3303 20.8903 27.4804C21.5729 27.7465 21.8495 28.4538 22.4162 28.8658C22.6706 29.0506 22.992 29.1314 23.2986 29.0389C23.626 28.9402 23.8631 28.6725 24.0373 28.3905C24.2294 28.0793 24.3426 27.7277 24.5384 27.4192C24.712 27.1455 24.9928 26.8139 25.3511 26.8315C25.888 26.8579 26.1571 27.6426 26.6858 27.8508C27.2791 28.0843 27.613 27.4816 27.8689 27.0644C27.9801 26.8832 28.1329 26.6393 28.3798 26.6711C28.6507 26.7059 28.8245 27.0386 28.9867 27.2241C29.21 27.4794 29.5078 27.6431 29.8542 27.5501C30.6707 27.3308 30.9068 26.1441 31.6207 26.2134C31.9935 26.2496 32.2278 26.6481 32.3133 26.9748C32.4316 27.4269 32.3885 27.9139 32.5571 28.3544C32.6859 28.6911 32.9396 29.0042 33.2909 29.1205C33.6453 29.2377 34.0022 29.0774 34.2147 28.7868C34.7964 27.9913 34.08 27.0606 34.3892 26.1207C34.4066 26.1084 34.4236 26.0959 34.4432 26.0848C34.783 25.8924 35.0052 26.2961 35.2173 26.4936C35.4999 26.7568 35.8828 26.7732 36.1694 26.4981C36.4946 26.1859 36.5182 25.6551 36.5946 25.2384L36.6848 24.7461C36.7533 24.743 36.8221 24.7495 36.8888 24.7702C36.9409 24.7863 36.9978 24.7678 37.0362 24.7312C37.9175 23.8917 37.5301 21.8705 35.1759 21.6605Z" fill="#4A53E2"/>
<path d="M23.1901 26.1457C30.5728 26.1457 36.5576 24.4898 36.5576 22.4471C36.5576 20.4045 30.5728 18.7485 23.1901 18.7485C15.8075 18.7485 9.82263 20.4045 9.82263 22.4471C9.82263 24.4898 15.8075 26.1457 23.1901 26.1457Z" fill="#4A53E2"/>
<path d="M15.29 22.5186H33.5637L34.7549 11.5752H14.0988L15.29 22.5186Z" fill="#1B136A"/>
<path d="M24.4268 23.6627C29.473 23.6627 33.5637 23.1505 33.5637 22.5186C33.5637 21.8867 29.473 21.3745 24.4268 21.3745C19.3807 21.3745 15.29 21.8867 15.29 22.5186C15.29 23.1505 19.3807 23.6627 24.4268 23.6627Z" fill="#1B136A"/>
<path d="M13.5902 11.8112C13.9162 11.2706 14.5639 11.021 15.1663 10.9672C15.9281 10.8992 16.6968 11.0902 17.4535 11.1549C22.542 11.59 27.7168 9.66934 32.8027 10.2411C32.8796 10.2263 32.9486 10.2163 33.0318 10.2238C33.1433 10.2337 33.2522 10.2657 33.3531 10.314C33.4104 10.3225 33.4679 10.3293 33.5252 10.3383C33.6122 10.352 33.6335 10.428 33.6106 10.4933C33.6366 10.5184 33.661 10.5449 33.684 10.5728C34.7614 10.5555 35.7184 11.5412 35.5009 12.6828C35.4008 13.2083 35.0652 13.696 34.5984 13.9611C33.842 14.3906 32.5179 14.1321 31.8678 14.7571C31.6365 14.9795 31.5291 15.2867 31.4365 15.5861C31.2757 16.1063 31.0778 16.7506 30.4976 16.9395C29.9874 17.1057 29.6075 16.7164 29.3412 16.3371C29.1987 16.1343 29.0685 15.9198 28.8949 15.7412C28.4674 15.3015 27.794 15.3115 27.1417 15.3203C26.8255 15.3245 26.5011 15.3478 26.2037 15.4638C25.6763 15.6694 25.4626 16.2159 25.0247 16.5342C24.8282 16.677 24.5799 16.7394 24.3429 16.668C23.7914 16.5016 23.6172 15.7823 23.3851 15.4165C23.2509 15.2051 23.034 14.9489 22.7571 14.9625C22.3423 14.9828 22.1344 15.5891 21.7259 15.75C21.2675 15.9304 21.0096 15.4647 20.8118 15.1424C20.7259 15.0024 20.6079 14.814 20.4171 14.8385C20.2078 14.8654 20.0735 15.1225 19.9482 15.2658C19.7757 15.463 19.5456 15.5895 19.2779 15.5176C18.6471 15.3482 18.4647 14.4314 17.9131 14.4849C17.625 14.5128 17.4441 14.8208 17.378 15.0732C17.2866 15.4225 17.3199 15.7988 17.1896 16.1391C16.9427 16.7843 16.2793 16.9797 15.9089 16.4732C15.4595 15.8586 16.013 15.1395 15.7741 14.4133C15.7607 14.4038 15.7475 14.3941 15.7324 14.3856C15.4698 14.2369 15.2981 14.5488 15.1343 14.7014C14.9159 14.9047 14.6201 14.9174 14.3987 14.7049C14.1474 14.4636 14.1292 14.0535 14.0702 13.7316L14.0004 13.3512C13.9476 13.3488 13.8944 13.3539 13.8428 13.3698C13.8026 13.3823 13.7587 13.368 13.729 13.3398C13.317 12.9473 13.3069 12.281 13.5902 11.8112Z" fill="#4A53E2"/>
<path d="M24.4268 14.4327C30.1309 14.4327 34.7549 13.1533 34.7549 11.5751C34.7549 9.99692 30.1309 8.71753 24.4268 8.71753C18.7228 8.71753 14.0988 9.99692 14.0988 11.5751C14.0988 13.1533 18.7228 14.4327 24.4268 14.4327Z" fill="#4A53E2"/>
<path d="M17.9485 8.139C18.0076 7.74381 17.7531 7.3853 17.3817 7.35432C17.2703 7.34503 17.1752 7.36912 17.0698 7.39879C16.901 7.4694 16.9661 7.4488 16.8899 7.46364C16.8288 7.35509 16.6729 7.32921 16.6005 7.44927C16.5201 7.58241 16.5399 7.7427 16.6208 7.86928C16.0537 8.239 16.0419 8.8585 16.3412 9.2013C16.1359 9.48587 16.3505 9.93458 16.6713 10.0293C17.3173 10.22 18.3402 9.71552 18.4395 9.00341C18.4904 8.63782 18.287 8.28158 17.9485 8.139Z" fill="#E5E5FF"/>
<path d="M18.593 11.3116C18.6706 10.7933 18.3367 10.3231 17.8497 10.2824C17.7036 10.2703 17.5789 10.3018 17.4407 10.3408C17.2192 10.4334 17.3046 10.4064 17.2047 10.4258C17.1246 10.2834 16.9201 10.2495 16.8251 10.407C16.7197 10.5816 16.7456 10.7918 16.8518 10.9578C16.7162 11.0462 16.5926 11.1564 16.5066 11.2565C16.1554 11.6649 16.1304 12.2984 16.485 12.7048C16.2158 13.078 16.4972 13.6665 16.9181 13.7907C17.7653 14.0408 19.1068 13.3792 19.237 12.4452C19.3038 11.9658 19.037 11.4986 18.593 11.3116Z" fill="#E5E5FF"/>
<path d="M24.4412 11.7007C24.5188 11.1824 24.1849 10.7122 23.6979 10.6716C23.5518 10.6594 23.4271 10.691 23.2889 10.7299C23.0674 10.8225 23.1528 10.7955 23.0529 10.815C22.9728 10.6726 22.7683 10.6387 22.6733 10.7961C22.5679 10.9707 22.5938 11.181 22.7 11.347C22.5644 11.4354 22.4408 11.5455 22.3548 11.6457C22.0036 12.0541 21.9786 12.6876 22.3332 13.0939C22.064 13.4672 22.3454 14.0557 22.7663 14.1799C23.6135 14.4299 24.955 13.7683 25.0852 12.8344C25.152 12.3549 24.8852 11.8877 24.4412 11.7007Z" fill="#E5E5FF"/>
<path d="M29.9891 11.3116C30.0666 10.7933 29.7328 10.3231 29.2457 10.2824C29.0996 10.2703 28.975 10.3018 28.8367 10.3408C28.6153 10.4334 28.7007 10.4064 28.6007 10.4258C28.5206 10.2834 28.3162 10.2495 28.2212 10.407C28.1157 10.5816 28.1417 10.7918 28.2479 10.9578C28.1123 11.0462 27.9887 11.1564 27.9026 11.2565C27.5515 11.6649 27.5264 12.2984 27.8811 12.7048C27.6118 13.078 27.8933 13.6665 28.3141 13.7907C29.1613 14.0408 30.5028 13.3792 30.633 12.4452C30.6998 11.9658 30.433 11.4986 29.9891 11.3116Z" fill="#E5E5FF"/>
<path d="M34.5961 10.4356C34.6736 9.91729 34.3398 9.44709 33.8527 9.40646C33.7066 9.39428 33.582 9.42587 33.4437 9.46479C33.2223 9.55739 33.3077 9.53038 33.2077 9.54983C33.1276 9.40747 32.9232 9.37353 32.8281 9.531C32.7227 9.7056 32.7487 9.91584 32.8549 10.0818C32.7193 10.1702 32.5957 10.2804 32.5096 10.3805C32.1585 10.7889 32.1334 11.4225 32.4881 11.8288C32.2188 12.202 32.5003 12.7905 32.9211 12.9147C33.7683 13.1648 35.1098 12.5032 35.24 11.5693C35.3068 11.0898 35.04 10.6226 34.5961 10.4356Z" fill="#E5E5FF"/>
<path d="M29.9751 8.02775C30.1652 7.70525 30.0699 7.30449 29.7582 7.14721C29.6648 7.10004 29.5737 7.0876 29.4718 7.07638C29.3003 7.07843 29.3641 7.08339 29.2927 7.06952C29.2778 6.95381 29.1515 6.8766 29.0464 6.95545C28.9298 7.04288 28.8907 7.18905 28.9166 7.32742C28.2942 7.44947 28.0666 7.98342 28.2061 8.38621C27.9279 8.56132 27.9568 9.0264 28.2022 9.22129C28.6964 9.61368 29.7619 9.5346 30.0981 8.95092C30.2707 8.65126 30.2191 8.27041 29.9751 8.02775Z" fill="#E5E5FF"/>
<path d="M24.0199 7.47298C24.079 7.07779 23.8245 6.71928 23.4531 6.6883C23.3417 6.67901 23.2466 6.7031 23.1412 6.73278C22.9724 6.80339 23.0375 6.78278 22.9613 6.79762C22.9002 6.68907 22.7443 6.66319 22.6719 6.78326C22.5915 6.91639 22.6113 7.07669 22.6923 7.20326C22.1251 7.57299 22.1134 8.19248 22.4126 8.53528C22.2073 8.81985 22.4219 9.26857 22.7428 9.36328C23.3888 9.55395 24.4116 9.0495 24.5109 8.33739C24.5618 7.9718 24.3584 7.61556 24.0199 7.47298Z" fill="#E5E5FF"/>
<path d="M32.6196 17.7365C29.6968 18.2666 26.6917 18.5599 23.5885 18.587C21.1013 18.6087 17.2283 18.4589 14.771 17.7508L14.9699 19.5779C15.34 19.5499 15.7239 19.6461 16.0241 19.8657C16.4431 20.1724 16.6897 20.6757 17.1326 20.9511C17.663 21.281 18.185 20.968 18.6217 20.6409C19.1741 20.227 19.7902 19.6341 20.545 19.8355C20.9281 19.9377 21.234 20.1642 21.4969 20.4512C21.7834 20.7639 22.1203 21.2664 22.6156 21.1263C23.197 20.9618 23.5245 20.236 23.9925 19.8938C24.3244 19.6511 24.7306 19.4919 25.1432 19.6107C25.4905 19.7108 25.7346 19.9803 25.9469 20.257C26.1695 20.5473 26.4443 21.1065 26.8874 20.9111C27.191 20.7771 27.3884 20.3192 27.5797 20.0681C27.7703 19.8179 27.9903 19.5763 28.2998 19.4775C28.6324 19.3714 28.975 19.4604 29.2476 19.6663C29.5553 19.8988 29.7252 20.3512 30.0591 20.5358C30.4598 20.7572 30.7917 20.1878 31.0485 19.9507C31.342 19.6796 31.6794 19.4807 32.0926 19.5086C32.7278 19.5514 33.1312 20.1496 33.837 20.0066L34.1153 17.45C33.6144 17.5657 33.103 17.6488 32.6196 17.7365Z" fill="#FFAA00"/>
<path d="M31.6997 20.4038C31.3323 20.6426 31.1106 21.0495 30.6954 21.2301C30.3222 21.3925 29.9274 21.3337 29.6065 21.0883C29.2954 20.8502 29.1329 20.4079 28.802 20.2064C28.2561 19.8742 27.689 21.1425 27.2832 21.4005C26.5865 21.8436 26.0115 21.3762 25.5939 20.8158C25.4564 20.6314 25.3191 20.3845 25.111 20.2677C24.7438 20.0617 24.3996 20.3277 24.14 20.5733C23.76 20.9327 23.4848 21.3952 22.9924 21.6215C22.1465 22.0103 21.5772 21.3686 21.0743 20.7842C20.6836 20.3303 20.3365 20.019 19.7267 20.326C19.3579 20.5116 19.0448 20.799 18.7028 21.027C18.1084 21.4232 17.4421 21.5991 16.8429 21.1056C16.2806 20.6424 15.973 19.7002 14.9898 19.7614L15.2899 22.5185C15.2899 23.1503 19.3806 23.6626 24.4268 23.6626C29.4729 23.6626 33.5636 23.1503 33.5636 22.5185L33.7458 20.8449C32.6462 20.9407 32.2704 20.0329 31.6997 20.4038Z" fill="#FF6A00"/>
<path d="M23.4165 46.2782C24.9458 46.2782 26.1855 46.0846 26.1855 45.8458C26.1855 45.6069 24.9458 45.4133 23.4165 45.4133C21.8873 45.4133 20.6475 45.6069 20.6475 45.8458C20.6475 46.0846 21.8873 46.2782 23.4165 46.2782Z" fill="#1B136A"/>
<path d="M11.4932 23.747C11.3061 23.7379 11.1321 23.8683 10.9702 23.9512C10.8071 24.0347 10.6323 24.1085 10.5309 24.2671C10.4555 24.385 10.5564 24.5187 10.6803 24.5276C10.8649 24.5407 11.0425 24.4291 11.2034 24.3501C11.3736 24.2664 11.5569 24.209 11.6657 24.0476C11.7551 23.9149 11.6346 23.7539 11.4932 23.747Z" fill="#1B136A"/>
<path d="M13.7797 24.802C13.7511 24.6586 13.5287 24.6309 13.4633 24.7606C13.3729 24.9402 13.3483 25.1245 13.3135 25.3209C13.2803 25.5091 13.2159 25.7052 13.2806 25.891C13.3406 26.0635 13.5539 26.0885 13.6563 25.9401C13.7675 25.779 13.7573 25.5727 13.7752 25.3834C13.7941 25.1841 13.8191 24.9998 13.7797 24.802Z" fill="#1B136A"/>
<path d="M13.1945 20.7528C13.098 20.6898 13.228 20.7754 13.1525 20.7314C13.0694 20.683 13.012 20.6842 12.9182 20.704C12.7749 20.7343 12.6269 20.7603 12.4928 20.8193C12.3101 20.8997 12.4179 21.1637 12.5879 21.1705C12.7252 21.1759 12.8708 21.1374 13.0065 21.1166C13.1397 21.0963 13.2198 21.0228 13.271 20.9001C13.2935 20.8463 13.2433 20.7848 13.1945 20.7528Z" fill="#1B136A"/>
<path d="M16.7977 25.2324C16.7042 26.1274 16.6471 26.2128 16.8515 26.5961C16.879 26.6476 16.9641 26.6628 17.0034 26.6156C17.2798 26.2848 17.2449 26.2126 17.3474 25.2324C17.3842 24.8809 16.8341 24.8835 16.7977 25.2324Z" fill="#E5E5FF"/>
<path d="M9.96187 22.1127C9.79775 21.981 9.64042 21.9923 9.43649 21.9817C9.22985 21.971 9.02575 21.9626 8.81879 21.9666C8.43165 21.9739 8.43102 22.561 8.81879 22.5683C9.02575 22.5723 9.22985 22.5639 9.43649 22.5532C9.64042 22.5426 9.79775 22.5539 9.96187 22.4222C10.0474 22.3536 10.047 22.181 9.96187 22.1127Z" fill="#E5E5FF"/>
<path d="M22.3299 25.7705C22.2369 25.5226 21.8626 25.6159 21.9273 25.8815C21.9575 26.0061 21.9879 26.1307 22.0182 26.2553C22.0494 26.3837 22.0664 26.5164 22.1741 26.6048C22.2947 26.704 22.4773 26.6741 22.5253 26.5121C22.5698 26.3621 22.527 26.2963 22.3299 25.7705Z" fill="#1B136A"/>
<path d="M26.6302 25.8676C26.4623 25.7003 26.2943 25.5329 26.1264 25.3655C25.9071 25.147 25.58 25.4778 25.788 25.7038C25.9487 25.8785 26.1094 26.0531 26.2701 26.2278C26.3944 26.363 26.6102 26.5901 26.7974 26.405C26.9858 26.2188 26.7613 25.9983 26.6302 25.8676Z" fill="#E5E5FF"/>
<path d="M30.5849 24.7173C30.3965 24.6589 30.1504 24.7015 29.9546 24.7054C29.5223 24.714 29.5216 25.3688 29.9546 25.3774C30.1419 25.3811 30.373 25.4195 30.5558 25.3751C30.703 25.3394 30.9185 25.2168 30.9185 25.0414C30.9185 24.8742 30.7237 24.7603 30.5849 24.7173Z" fill="#1B136A"/>
<path d="M35.3309 22.4175C35.2314 22.3304 35.244 22.1933 34.9296 22.1713C34.7817 22.161 34.6287 22.1773 34.4803 22.1828C34.0928 22.197 34.0947 22.7629 34.4803 22.7834C34.71 22.7957 34.9915 22.8423 35.1668 22.7398C35.2441 22.6946 35.2665 22.6159 35.3309 22.5615C35.3711 22.5276 35.3698 22.4515 35.3309 22.4175Z" fill="#E5E5FF"/>
<path d="M35.324 20.473C35.1248 20.3399 34.8814 20.4579 34.6802 20.5229C34.5133 20.577 34.388 20.7583 34.4456 20.9362C34.4996 21.1032 34.6798 21.2288 34.8589 21.1709C35.1333 21.0821 35.3522 21.052 35.4517 20.7867C35.4964 20.6677 35.4203 20.5373 35.324 20.473Z" fill="#1B136A"/>
<path d="M36.9901 24.3124C36.832 23.9723 36.0834 23.8804 35.9945 24.2708C35.9598 24.4229 36.0189 24.5734 36.1518 24.6573C36.2581 24.7244 36.3754 24.7535 36.4973 24.7776C36.6735 24.8125 36.8079 24.7731 36.9448 24.6635C37.0507 24.5788 37.0404 24.4206 36.9901 24.3124Z" fill="#1B136A"/>
<path d="M34.9803 25.9115C34.8711 25.7511 34.762 25.5908 34.6528 25.4305C34.4739 25.1678 34.0475 25.4091 34.222 25.6823L34.5349 26.1718C34.6384 26.3337 34.7359 26.4618 34.943 26.4498C34.986 26.4474 35.0324 26.4279 35.0528 26.3868C35.1431 26.2052 35.0897 26.0722 34.9803 25.9115Z" fill="#1B136A"/>
<path d="M37.6151 22.2583C37.5739 22.234 37.5271 22.2161 37.4818 22.1999C37.3834 22.1647 37.3069 22.1863 37.1098 22.2155C37.0253 22.228 36.9319 22.3137 36.8908 22.3839C36.8448 22.4625 36.8253 22.5782 36.8539 22.6663C36.9214 22.8751 37.0829 22.9552 37.3047 22.9223C37.4452 22.9015 37.5404 22.9074 37.6793 22.7565C37.8172 22.6065 37.7966 22.3656 37.6151 22.2583Z" fill="#1B136A"/>
<path d="M14.4455 22.8459C14.336 22.8181 14.2655 22.8486 14.1647 22.8896C14.0669 22.9293 13.9649 22.971 13.8931 23.0518C13.76 23.2015 13.8933 23.3956 14.0772 23.368C14.1757 23.3532 14.266 23.2914 14.3462 23.2358C14.4704 23.1497 14.4957 23.1492 14.5419 23.0157C14.5658 22.9462 14.5142 22.8634 14.4455 22.8459Z" fill="#E5E5FF"/>
<path d="M14.54 20.0364C14.4906 19.8793 14.4479 19.7225 14.2705 19.673C14.1737 19.646 14.0882 19.6931 14.0332 19.7695C13.9306 19.9122 14.0106 20.0735 14.0654 20.2173C14.1223 20.367 14.175 20.4857 14.3221 20.5662C14.4246 20.6223 14.5227 20.5663 14.5638 20.4679C14.628 20.314 14.5873 20.1869 14.54 20.0364Z" fill="#E5E5FF"/>
<path d="M12.443 22.5534C12.3776 22.4686 12.3223 22.4157 12.2136 22.3943C12.0473 22.3615 12.021 22.3518 11.8663 22.4239C11.7134 22.4951 11.7197 22.7464 11.8663 22.8195C12.0292 22.9008 12.053 22.8754 12.1974 22.8557C12.296 22.8422 12.3588 22.8042 12.4205 22.7277C12.4567 22.683 12.4839 22.6065 12.443 22.5534Z" fill="#1B136A"/>
<path d="M20.3425 3.81672C20.2265 3.81724 20.0099 3.80002 19.8196 3.65721C19.3458 3.30177 19.4564 2.48461 19.5682 2.45408C19.6132 2.44177 19.7026 2.61479 19.9575 2.57845C19.8981 2.49807 19.8092 2.35164 19.7953 2.15668C19.7717 1.82668 19.9721 1.48796 20.0963 1.5024C20.1744 1.51149 20.1656 1.65385 20.2981 1.88902C20.4804 2.21257 20.634 2.18629 20.7717 2.43245C21.0188 2.87411 20.8802 3.5207 20.3425 3.81672Z" fill="#FFAA00"/>
<path d="M20.6056 4.13837C20.5094 3.7884 20.4377 3.51166 20.3551 3.28447C20.3226 3.19508 20.195 3.22996 20.2127 3.32372C20.2493 3.51647 20.3022 3.70697 20.3542 3.89617C20.4553 4.26451 20.4732 4.35063 20.5303 4.45455C20.5631 4.51436 20.6622 4.48829 20.6599 4.41944C20.6566 4.32127 20.6314 4.23263 20.6056 4.13837Z" fill="#1B136A"/>
<path d="M22.3275 10.3834L20.9188 10.6148L19.724 4.39082L21.4688 4.10425L22.3275 10.3834Z" fill="#FF6A00"/>
<path d="M21.6125 5.15445L19.8501 5.04736L19.9639 5.64004L21.6932 5.74512L21.6125 5.15445Z" fill="#FFAA00"/>
<path d="M21.7872 6.43259L20.0963 6.32983L20.21 6.92251L21.868 7.02326L21.7872 6.43259Z" fill="#FFAA00"/>
<path d="M20.4562 8.20474L22.0428 8.30115L21.962 7.71045L20.3424 7.61206L20.4562 8.20474Z" fill="#FFAA00"/>
<path d="M20.7024 9.48721L22.2176 9.57928L22.1368 8.98861L20.5886 8.89453L20.7024 9.48721Z" fill="#FFAA00"/>
<path d="M28.3373 3.81672C28.4532 3.81724 28.6698 3.80002 28.8602 3.65721C29.3339 3.30177 29.2233 2.48461 29.1116 2.45408C29.0665 2.44177 28.9771 2.61479 28.7222 2.57845C28.7816 2.49807 28.8705 2.35164 28.8844 2.15668C28.908 1.82668 28.7076 1.48796 28.5835 1.5024C28.5054 1.51149 28.5141 1.65385 28.3816 1.88902C28.1993 2.21257 28.0457 2.18629 27.908 2.43245C27.6609 2.87411 27.7995 3.5207 28.3373 3.81672Z" fill="#FFAA00"/>
<path d="M28.0741 4.13837C28.1702 3.7884 28.242 3.51166 28.3245 3.28447C28.3571 3.19508 28.4847 3.22996 28.4669 3.32372C28.4303 3.51647 28.3775 3.70697 28.3254 3.89617C28.2244 4.26451 28.2065 4.35063 28.1494 4.45455C28.1165 4.51436 28.0174 4.48829 28.0198 4.41944C28.023 4.32127 28.0482 4.23263 28.0741 4.13837Z" fill="#1B136A"/>
<path d="M26.3522 10.3834L27.7608 10.6148L28.9557 4.39082L27.2109 4.10425L26.3522 10.3834Z" fill="#FF6A00"/>
<path d="M27.0672 5.15445L28.8296 5.04736L28.7158 5.64004L26.9865 5.74512L27.0672 5.15445Z" fill="#FFAA00"/>
<path d="M26.8925 6.43259L28.5834 6.32983L28.4697 6.92251L26.8117 7.02326L26.8925 6.43259Z" fill="#FFAA00"/>
<path d="M28.2234 8.20474L26.6368 8.30115L26.7176 7.71045L28.3372 7.61206L28.2234 8.20474Z" fill="#FFAA00"/>
<path d="M27.9773 9.48721L26.4621 9.57928L26.5429 8.98861L28.0911 8.89453L27.9773 9.48721Z" fill="#FFAA00"/>
<path d="M15.4818 15.8852C15.4469 15.7608 15.3066 15.7124 15.2185 15.7587C15.1729 15.7735 15.1305 15.8154 15.1153 15.8618C15.0896 15.9108 15.1 15.9477 15.1055 15.9889C15.1403 16.1129 15.2807 16.1617 15.3688 16.1154C15.4148 16.1004 15.4571 16.0581 15.472 16.0122C15.4969 15.965 15.4879 15.9302 15.4818 15.8852Z" fill="#E5E5FF"/>
<path d="M18.0915 17.1429C18.0662 17.1394 18.0353 17.1496 18.0182 17.1586C18.0025 17.163 17.9889 17.1709 17.9774 17.1824C17.9572 17.1954 17.9413 17.2127 17.9297 17.2343C17.9069 17.2882 17.9122 17.2689 17.9044 17.3278C17.9028 17.3692 17.9225 17.4132 17.9424 17.4395C18.0045 17.5714 18.2112 17.5909 18.2966 17.4467C18.3817 17.3003 18.2605 17.1183 18.0915 17.1429Z" fill="#E5E5FF"/>
<path d="M20.4648 16.919C20.4264 16.7822 20.2718 16.7287 20.1748 16.7797C20.1241 16.7962 20.0777 16.8427 20.0611 16.8933C20.0328 16.9474 20.0443 16.988 20.0503 17.0333C20.0888 17.17 20.2432 17.2236 20.3404 17.1726C20.391 17.1561 20.4375 17.1096 20.454 17.059C20.4823 17.0051 20.4709 16.9643 20.4648 16.919Z" fill="#E5E5FF"/>
<path d="M20.2957 15.8864C20.2613 15.7647 20.1241 15.7175 20.038 15.7627C19.9931 15.7773 19.9517 15.8187 19.9371 15.8636C19.9127 15.9101 19.9213 15.9421 19.9275 15.9879C19.9615 16.1093 20.0988 16.157 20.1851 16.1116C20.2301 16.097 20.2714 16.0557 20.286 16.0107C20.3104 15.9645 20.3018 15.9321 20.2957 15.8864Z" fill="#E5E5FF"/>
<path d="M23.0567 17.1438C23.0382 17.1001 23.0242 17.0546 22.958 17.0154C22.9298 16.9948 22.9037 16.9791 22.86 16.9771C22.8254 16.9694 22.79 16.9739 22.7688 16.9828C22.7552 16.9856 22.7419 16.99 22.7293 16.9966C22.7125 17.0013 22.6979 17.0098 22.6856 17.0221C22.6399 17.0517 22.6303 17.0878 22.6145 17.1251C22.6083 17.1718 22.5999 17.1992 22.6217 17.2466C22.6318 17.2936 22.6464 17.3057 22.677 17.3452C22.7182 17.3862 22.7546 17.3948 22.7925 17.408C22.821 17.4169 22.8496 17.4182 22.8782 17.4118C22.9067 17.4105 22.9334 17.402 22.958 17.3863C22.9974 17.3559 23.0283 17.3377 23.0459 17.2836C23.0556 17.2669 23.0605 17.2488 23.0606 17.2294C23.067 17.2009 23.0657 17.1723 23.0567 17.1438Z" fill="#E5E5FF"/>
<path d="M23.1214 15.8942C23.0719 15.8301 23.0723 15.8356 23.0218 15.8151C22.9509 15.758 22.8252 15.7909 22.7958 15.8959C22.7907 15.9344 22.7927 15.9279 22.7884 15.9378C22.7808 15.962 22.7798 15.9862 22.7852 16.0104C22.7895 16.1052 22.8958 16.1858 22.9883 16.1651C23.0126 16.164 23.0351 16.1568 23.056 16.1435C23.0883 16.1186 23.1222 16.0975 23.1398 16.0346C23.1452 15.994 23.1551 15.9523 23.1214 15.8942Z" fill="#E5E5FF"/>
<path d="M26.7546 16.8782C26.749 16.868 26.7452 16.8605 26.7359 16.8515C26.7281 16.8383 26.7177 16.8279 26.7045 16.8201C26.6808 16.8018 26.6765 16.7974 26.6416 16.7868C26.606 16.7761 26.6251 16.7789 26.5949 16.7694C26.565 16.7283 26.5384 16.7217 26.496 16.7039C26.4693 16.6955 26.4426 16.6943 26.4159 16.7003C26.3977 16.7003 26.3808 16.7049 26.3651 16.714C26.3132 16.7309 26.2943 16.7634 26.269 16.7963C26.2442 16.8389 26.2452 16.872 26.2403 16.8951C26.1971 17.0552 26.3432 17.2158 26.5456 17.1494C26.5715 17.1459 26.58 17.1467 26.5924 17.1419C26.6456 17.1212 26.6909 17.1313 26.7497 17.0461C26.787 16.9918 26.7821 16.9276 26.7546 16.8782Z" fill="#E5E5FF"/>
<path d="M28.7981 17.0272C28.7969 17.0195 28.7939 17.0123 28.7892 17.0057C28.7875 16.9976 28.7844 16.9903 28.7798 16.9839C28.7113 16.868 28.5448 16.868 28.4764 16.9839C28.4762 16.9842 28.476 16.9844 28.4758 16.9846C28.47 16.9986 28.464 17.0127 28.4581 17.0267C28.4504 17.0842 28.4514 17.0703 28.4524 17.0869C28.447 17.2329 28.6367 17.326 28.7523 17.2111C28.803 17.1456 28.7991 17.1395 28.8045 17.075C28.8046 17.073 28.7987 17.0291 28.7981 17.0272Z" fill="#E5E5FF"/>
<path d="M28.1915 16.1797C28.1864 16.1694 28.1952 16.134 28.1574 16.0926C28.1499 16.0801 28.14 16.0701 28.1274 16.0627C28.0942 16.0323 28.0645 16.032 28.0263 16.0269C27.9868 16.0321 27.9583 16.0323 27.9251 16.0627C27.8172 16.1327 27.8454 16.3263 27.9914 16.3706C27.992 16.3708 27.9926 16.3709 27.9932 16.371C28.0353 16.3784 28.0373 16.3786 28.0795 16.371C28.1072 16.366 28.1667 16.3323 28.1837 16.2803C28.1907 16.2682 28.1942 16.2552 28.1943 16.2413C28.1988 16.2208 28.1979 16.2002 28.1915 16.1797Z" fill="#E5E5FF"/>
<path d="M33.4293 15.1005C33.4088 15.0274 33.3694 15.0022 33.3307 14.9722C33.2698 14.937 33.2143 14.9382 33.1469 14.9526C32.9544 14.994 32.8519 15.2549 32.9588 15.3716C32.9678 15.3868 32.9798 15.3988 32.995 15.4078C33.0044 15.4164 33.0147 15.4235 33.0257 15.4294C33.0507 15.4487 33.0683 15.4655 33.1071 15.4673C33.1202 15.4708 33.1334 15.4708 33.1465 15.4673C33.1917 15.4652 33.2306 15.434 33.255 15.3964V15.3963C33.2661 15.386 33.275 15.3743 33.2829 15.3619C33.3206 15.3487 33.3456 15.34 33.3741 15.3094C33.395 15.2899 33.4098 15.2669 33.4185 15.2403C33.4468 15.1863 33.4354 15.1459 33.4293 15.1005Z" fill="#E5E5FF"/>
<path d="M32.4061 16.4742L32.3881 16.4315C32.3546 16.3749 32.3111 16.3601 32.2731 16.3455C32.2633 16.3417 32.2579 16.3425 32.2438 16.3406C32.2223 16.3349 32.2173 16.3373 32.1664 16.3441C32.1492 16.3487 32.1115 16.3658 32.1017 16.3711C32.0694 16.3885 32.0628 16.3981 32.0423 16.4246C32.035 16.4341 32.0266 16.4435 32.0208 16.4542C31.9908 16.5086 31.9903 16.5407 31.989 16.5508C31.9857 16.5757 31.9807 16.5993 31.9952 16.6363C31.9952 16.6367 31.9953 16.6372 31.9954 16.6376C31.996 16.6421 31.9969 16.6459 31.9987 16.6508C32.0206 16.7081 32.0219 16.7051 32.0541 16.7459C32.0867 16.7711 32.1093 16.7936 32.1583 16.7958C32.1744 16.8001 32.1905 16.8001 32.2066 16.7958C32.2307 16.7947 32.2533 16.7875 32.2741 16.7743C32.3185 16.7401 32.3046 16.7539 32.3392 16.7091C32.3483 16.6949 32.3534 16.6796 32.3568 16.6638C32.397 16.6083 32.4266 16.5397 32.4061 16.4742Z" fill="#E5E5FF"/>
<path d="M33.9136 16.4329C33.8926 16.383 33.8685 16.3412 33.8165 16.3243C33.8034 16.3167 33.7893 16.3129 33.7742 16.3128C33.7594 16.3088 33.7445 16.3088 33.7296 16.3128C33.6794 16.313 33.6183 16.3634 33.5861 16.4096C33.5708 16.4319 33.5505 16.4591 33.5364 16.5374C33.5319 16.5625 33.5105 16.5898 33.5218 16.6406C33.5229 16.6632 33.5296 16.6842 33.542 16.7037C33.5657 16.7344 33.5802 16.7591 33.6231 16.7731C33.6364 16.7808 33.6506 16.7847 33.6659 16.7847C33.7282 16.7987 33.8007 16.7617 33.835 16.7037C33.8399 16.6948 33.8448 16.6859 33.8498 16.6771C33.9335 16.5706 33.9232 16.5057 33.9136 16.4329Z" fill="#E5E5FF"/>
<path d="M15.5873 14.3709C15.2896 14.5335 14.9114 14.5634 14.7242 14.2241C14.5544 13.9161 14.7679 13.5594 14.701 13.2319C14.6715 13.0872 14.5893 12.9693 14.4677 12.8866C14.3373 12.798 14.1755 12.7611 14.0579 12.6532C13.9302 12.5361 13.8626 12.3577 13.8855 12.1857C13.9107 11.9949 14.0344 11.858 14.1871 11.7523C14.2505 11.7085 14.2139 11.5892 14.1309 11.619C13.7649 11.7505 13.6082 12.194 13.7495 12.5426C13.9581 13.0564 14.5174 12.9231 14.4849 13.3993C14.4705 13.6118 14.3929 13.8172 14.4091 14.0325C14.4625 14.745 15.3558 15.0037 15.7231 14.5067C15.7858 14.422 15.6675 14.3272 15.5873 14.3709Z" fill="#FFAA00"/>
<path d="M17.1688 14.6478C17.1284 14.5883 17.0478 14.5872 17.0076 14.6478C16.9512 14.7327 16.9571 14.851 16.9508 14.9493C16.9303 15.2742 16.859 15.6013 16.7546 15.8933C16.7014 16.042 16.6336 16.232 16.4799 16.3046C16.3706 16.3563 16.2437 16.3058 16.2145 16.1897C16.1943 16.109 16.0604 16.1023 16.0444 16.1897C16.0081 16.3882 16.1931 16.5362 16.3739 16.5575C16.9267 16.6226 17.1512 15.6104 17.2033 15.0603C17.2154 14.9334 17.2448 14.7597 17.1688 14.6478Z" fill="#FFAA00"/>
<path d="M22.4809 14.5736C22.4635 14.4839 22.3323 14.4938 22.3091 14.5736C22.2277 14.8546 22.0502 15.1302 21.7347 15.1699C21.5209 15.1967 21.2842 15.0845 21.1556 14.9041C21.1082 14.8375 21.0909 14.7511 21.0397 14.6899C21.0028 14.6458 20.9185 14.6687 20.9078 14.7247C20.8779 14.882 21.0586 15.121 21.1977 15.2295C21.8159 15.7122 22.5893 15.1315 22.4809 14.5736Z" fill="#FFAA00"/>
<path d="M29.6909 16.4361C29.5947 16.2102 29.3774 16.0376 29.2004 15.8737C28.7187 15.4275 27.9968 14.8736 27.37 14.6614C26.9613 14.5231 26.5046 14.5034 26.102 14.6734C25.328 15.0005 25.2989 15.9448 24.7383 16.1965C24.547 16.2824 24.2923 16.2525 24.1723 16.0661C24.1011 15.9555 23.9433 16.0513 23.9979 16.168C24.1609 16.5159 24.6358 16.5537 24.9378 16.3764C25.3347 16.1434 25.4791 15.6834 25.7221 15.3213C25.9855 14.9284 26.4365 14.775 26.8962 14.8232C27.3989 14.8759 27.8519 15.1609 28.2545 15.4471C28.4935 15.6171 28.7223 15.8014 28.9403 15.9978C29.1437 16.1809 29.3255 16.4285 29.5667 16.5603C29.6527 16.6074 29.7249 16.516 29.6909 16.4361Z" fill="#FFAA00"/>
<path d="M35.0139 12.9744C34.7959 13.1532 34.8193 13.3705 34.2314 13.6313C33.5278 13.9435 32.6761 13.8459 31.9714 14.321C31.7153 14.4937 31.428 14.7703 31.3927 15.0945C31.3811 15.2011 31.5369 15.229 31.5856 15.1468C31.7311 14.901 31.8012 14.6589 32.309 14.4142C32.9881 14.0868 33.8379 14.184 34.5527 13.7787C34.7979 13.6398 35.1848 13.3623 35.1833 13.0446C35.1829 12.9523 35.078 12.9218 35.0139 12.9744Z" fill="#FFAA00"/>
<path d="M20.1954 4.84522C20.1823 4.77553 20.0761 4.80506 20.0891 4.87453C20.9252 9.33686 20.8203 8.97469 20.9248 9.35982C20.9423 9.42403 21.0523 9.41392 21.0448 9.34359C21.0031 8.9534 21.0374 9.32322 20.1954 4.84522Z" fill="#1B136A"/>
<path d="M21.2082 10.1468C21.1923 10.1041 21.1873 10.0883 21.1784 10.0749C21.117 9.98174 21.1209 9.98394 21.0955 9.97208C21.0791 9.96275 21.0839 9.95807 21.0493 9.95337C21.0262 9.95337 21.0022 9.96774 20.9918 9.99197C20.9845 10.0095 20.9871 10.0238 20.9896 10.0375C20.9887 10.067 21.0006 10.0827 21.0095 10.0979C21.0573 10.1795 21.047 10.1648 21.0933 10.2136C21.1134 10.2349 21.1517 10.2405 21.1766 10.2244C21.2068 10.2049 21.217 10.1707 21.2082 10.1468Z" fill="#1B136A"/>
<path d="M27.4785 4.90353C27.4004 5.22976 27.3938 5.28701 27.097 6.94738C27.0587 7.16186 27.0052 7.37955 26.9868 7.59671C26.9803 7.67339 27.0987 7.68567 27.1185 7.61453C27.1798 7.39398 27.2059 7.15882 27.2466 6.9335C27.5249 5.39249 27.553 5.25139 27.5934 4.91909C27.6015 4.85324 27.4936 4.84027 27.4785 4.90353Z" fill="#1B136A"/>
<path d="M17.1501 8.30744C16.9741 8.35699 16.7723 8.24182 16.7246 8.06533C16.7058 7.9958 16.5985 8.02518 16.6166 8.0951C16.6782 8.33278 16.9453 8.48579 17.1817 8.42197C17.2554 8.40207 17.2239 8.28665 17.1501 8.30744Z" fill="#1B136A"/>
<path d="M17.7099 8.59342C17.6957 8.5692 17.6568 8.55456 17.6321 8.57303C17.5021 8.67005 17.3721 8.76707 17.2421 8.86409C17.2175 8.88243 17.205 8.91326 17.2217 8.94187C17.2359 8.96608 17.2747 8.98073 17.2995 8.96226C17.4295 8.86524 17.5595 8.76822 17.6895 8.67119C17.7141 8.65286 17.7266 8.62202 17.7099 8.59342Z" fill="#1B136A"/>
<path d="M17.5194 12.0218C17.2408 12.0915 16.9269 11.978 16.7601 11.7432C16.7188 11.685 16.6218 11.7404 16.6634 11.7997C16.8591 12.0786 17.2188 12.2158 17.5505 12.1347C17.6236 12.1169 17.5926 12.0035 17.5194 12.0218Z" fill="#1B136A"/>
<path d="M18.3953 12.12C18.3662 12.1046 18.3344 12.1139 18.3164 12.1407C18.2509 12.2376 18.1854 12.3346 18.12 12.4316C18.1028 12.457 18.1143 12.4976 18.141 12.5117C18.1705 12.5272 18.2029 12.5179 18.2211 12.4907L18.416 12.1989C18.4328 12.1738 18.4217 12.1339 18.3953 12.12Z" fill="#1B136A"/>
<path d="M23.4013 11.5617C23.2776 11.6107 23.149 11.6196 23.0256 11.5804C22.9007 11.5406 22.812 11.4501 22.7274 11.348C22.6883 11.3006 22.6193 11.3525 22.631 11.4041C22.6944 11.6816 23.1615 11.8812 23.4536 11.6858C23.5279 11.6361 23.4629 11.5373 23.4013 11.5617Z" fill="#1B136A"/>
<path d="M24.379 12.0994C24.298 12.3475 24.0861 12.5765 23.8521 12.6919C23.7665 12.7341 23.7604 12.7252 23.5984 12.7892C23.5268 12.8176 23.5335 12.9241 23.6172 12.9276C23.6736 12.9299 23.7235 12.9256 23.7774 12.9079C24.1299 12.7924 24.4058 12.5162 24.4886 12.1297C24.5039 12.0581 24.4017 12.0296 24.379 12.0994Z" fill="#1B136A"/>
<path d="M23.8769 7.52508C23.7767 7.68549 23.6764 7.8459 23.5762 8.00631C23.5379 8.0676 23.6348 8.12388 23.6729 8.06283C23.7731 7.90242 23.8734 7.74202 23.9736 7.58161C24.0119 7.52031 23.9151 7.46403 23.8769 7.52508Z" fill="#1B136A"/>
<path d="M22.8358 7.88265C22.7059 7.86728 22.5761 7.85189 22.4463 7.83652C22.3865 7.82943 22.3587 7.93736 22.4463 7.94851C22.5761 7.96502 22.7059 7.98153 22.8358 7.99804C22.8667 8.00198 22.8934 7.9687 22.8934 7.94035C22.8934 7.90611 22.8669 7.88633 22.8358 7.88265Z" fill="#1B136A"/>
<path d="M29.4731 7.48224C29.4531 7.41548 29.3495 7.44351 29.3684 7.51111C29.4149 7.67744 29.3589 7.85193 29.2432 7.97596C29.042 8.19159 28.8778 8.1553 28.7978 8.16581C28.7284 8.17495 28.7139 8.26079 28.7814 8.28747C28.8786 8.3259 29.0033 8.28898 29.095 8.24825C29.4024 8.11158 29.5545 7.75384 29.4731 7.48224Z" fill="#1B136A"/>
<path d="M29.2016 8.74814C29.1034 8.80572 29.1351 8.79358 29.0402 8.81731C28.9998 8.81879 29.0327 8.8211 28.9472 8.81858C28.8988 8.8082 28.8466 8.80086 28.7975 8.76469C28.7602 8.73715 28.7319 8.67143 28.6765 8.70385C28.6503 8.71919 28.637 8.75851 28.6552 8.78511C28.8223 9.02938 29.1707 9.02039 29.2956 8.84216C29.3363 8.78404 29.2579 8.71509 29.2016 8.74814Z" fill="#1B136A"/>
<path d="M33.3116 10.3005C33.1817 10.2679 33.0509 10.2398 32.9202 10.2109C32.8916 10.2046 32.8615 10.2195 32.8534 10.2488C32.8457 10.277 32.8629 10.3081 32.8913 10.3156C33.0207 10.3497 33.1497 10.3846 33.28 10.4151C33.3102 10.4221 33.3457 10.4057 33.353 10.3736C33.36 10.3428 33.3438 10.3086 33.3116 10.3005Z" fill="#1B136A"/>
<path d="M34.415 10.4108C34.3803 10.3376 34.2731 10.4014 34.3067 10.4742C34.4238 10.7285 34.3235 11.0735 34.0841 11.2435C34.0022 11.3017 33.9132 11.333 33.8207 11.3681C33.7509 11.3946 33.7587 11.4985 33.8388 11.5014C34.2211 11.5153 34.6513 10.9082 34.415 10.4108Z" fill="#1B136A"/>
<path d="M29.8815 11.4107C29.8601 11.6792 29.7249 11.9533 29.4876 12.1477C29.41 12.2113 29.3218 12.2491 29.2373 12.3007C29.1781 12.337 29.2161 12.4329 29.285 12.4139C29.4585 12.3661 29.6701 12.1691 29.7817 12.0111C29.9062 11.8348 29.9797 11.6259 29.9935 11.4107C29.9981 11.3385 29.8872 11.3395 29.8815 11.4107Z" fill="#1B136A"/>
<path d="M28.798 11.1849C28.7012 11.2046 28.6211 11.2451 28.4671 11.1854C28.3679 11.147 28.2766 11.0644 28.2388 10.9602C28.2142 10.8924 28.107 10.9197 28.1292 10.9904C28.2377 11.3362 28.6821 11.4368 28.8509 11.3105C28.9123 11.2646 28.8778 11.1687 28.798 11.1849Z" fill="#1B136A"/>
<path d="M12.3675 20.306C11.336 20.5205 10.4769 21.1301 10.1423 21.6177C10.095 21.6867 10.195 21.7502 10.2516 21.702C10.4082 21.5686 10.5511 21.4206 10.7097 21.2893C11.1641 20.9133 11.7683 20.598 12.4054 20.4434C12.495 20.4217 12.4568 20.2874 12.3675 20.306Z" fill="#1B136A"/>
<path d="M15.8416 28.9671C15.5724 29.0464 15.336 29.0223 15.0962 28.8702C14.3207 28.3783 14.4105 27.3646 13.8542 26.6613C13.1634 25.788 11.9434 25.8034 10.959 25.5419C10.3875 25.3901 9.79289 25.1365 9.48656 24.6007C9.44509 24.5282 9.33803 24.5922 9.3752 24.6658C10.1935 26.2877 12.7425 25.5352 13.707 26.8299C14.0751 27.324 14.1249 27.9692 14.435 28.4927C14.7039 28.9469 15.3723 29.4932 15.9168 29.1454C16.0074 29.0875 15.9512 28.9347 15.8416 28.9671Z" fill="#1B136A"/>
<path d="M17.6145 27.389C17.5464 27.4012 17.5153 27.4565 17.4017 27.6031C16.9188 28.227 16.8829 28.2755 16.8729 28.342C16.8652 28.3936 16.908 28.4665 16.971 28.4401C17.0542 28.4053 17.0691 28.386 17.5592 27.7606C17.6827 27.6032 17.7368 27.5524 17.7316 27.4781C17.7271 27.4144 17.6763 27.3778 17.6145 27.389Z" fill="#1B136A"/>
<path d="M33.2481 28.5102C33.044 28.5608 32.8692 28.5049 32.7242 28.3513C32.2853 27.8865 32.7235 26.9888 32.2444 26.3631C31.9691 26.0036 31.5108 25.9934 31.1422 26.2155C30.5805 26.554 30.2951 27.4472 29.4632 27.2232C29.0998 27.1254 29.0693 26.9344 28.9016 26.8962C28.8631 26.8874 28.835 26.9133 28.8308 26.9502C28.8101 27.1313 29.0461 27.2842 29.1864 27.359C29.3722 27.4581 29.5865 27.5091 29.7971 27.4959C30.6304 27.4438 30.8682 26.5009 31.5157 26.3412C31.7476 26.284 31.956 26.3869 32.0772 26.5866C32.3439 27.0259 32.1768 27.5745 32.2841 28.0535C32.4217 28.6676 33.0106 28.9436 33.337 28.7211C33.4429 28.6489 33.3796 28.4776 33.2481 28.5102Z" fill="#1B136A"/>
<path d="M34.3261 28.8302C34.2195 28.8771 34.1319 28.9601 34.0471 29.0384C33.9657 29.1137 33.8845 29.1882 33.8077 29.2682C33.7162 29.3635 33.8372 29.5161 33.9601 29.4206C34.048 29.3523 34.1309 29.2792 34.2146 29.2059C34.2949 29.1355 34.3889 29.0525 34.4468 28.9509C34.488 28.8785 34.4193 28.7891 34.3261 28.8302Z" fill="#1B136A"/>
<path d="M11.2052 28.004C11.2007 27.9195 11.071 27.9183 11.0728 28.004C11.0873 28.6927 11.1762 32.3863 11.2596 33.3103C11.2683 33.4056 11.4091 33.4091 11.4107 33.3103C11.426 32.3733 11.238 28.6232 11.2052 28.004Z" fill="#1B136A"/>
<path d="M11.6732 34.8043C11.6674 34.7737 11.6305 34.7563 11.6022 34.7641C11.5691 34.7732 11.5575 34.804 11.5619 34.835C11.5899 35.0307 11.6168 35.2261 11.6565 35.4197C11.6699 35.4852 11.7835 35.4716 11.7748 35.4037C11.7491 35.2024 11.711 35.0037 11.6732 34.8043Z" fill="#1B136A"/>
<path d="M34.6787 33.896C34.6784 33.8228 34.5731 33.8253 34.5667 33.896C34.5559 34.014 34.5291 34.134 34.5072 34.2507C34.4267 34.6785 34.2979 34.8848 34.1321 35.2171C34.0984 35.2847 34.1905 35.3705 34.244 35.3035C34.3983 35.1105 34.4972 34.8695 34.571 34.6353C34.6825 34.2811 34.6794 34.1016 34.6787 33.896Z" fill="#1B136A"/>
<path d="M34.644 35.6244C34.6264 35.5633 34.5955 35.5123 34.5611 35.4604C34.5194 35.3975 34.4261 35.452 34.46 35.5195C34.4816 35.5622 34.4715 35.5487 34.478 35.584C34.5169 35.794 34.4621 35.8902 34.3677 36.0364C34.3263 36.1007 34.409 36.1837 34.4734 36.142C34.6346 36.0377 34.6889 35.7796 34.644 35.6244Z" fill="#1B136A"/>
<path d="M24.9732 41.1384C24.805 41.1287 24.7331 41.1802 24.179 41.2583C22.8706 41.4426 22.1573 41.3098 21.6683 41.3384C21.6067 41.342 21.5905 41.4306 21.6534 41.4483C22.0816 41.569 22.9243 41.566 23.3538 41.5429C23.7773 41.5202 24.2039 41.4694 24.5932 41.4014C24.736 41.3765 24.8851 41.3599 25.0147 41.2917C25.0912 41.2515 25.05 41.1428 24.9732 41.1384Z" fill="#E5E5FF"/>
<path d="M25.8885 45.0461C25.5571 45.1612 25.4472 45.3695 24.6731 45.6096C23.7555 45.8942 22.8124 45.8659 21.9553 45.5809C21.2618 45.3502 21.0342 45.1377 20.7099 44.9607C20.6551 44.9307 20.5955 45.0031 20.6421 45.0486C20.8092 45.2121 21.0278 45.336 21.2313 45.4482C22.4526 46.1217 23.974 46.2013 25.3525 45.5477C25.5563 45.451 25.8109 45.344 25.9611 45.1709C26.006 45.1191 25.9643 45.0197 25.8885 45.0461Z" fill="#E5E5FF"/>
<path d="M14.1609 39.9612C13.6899 39.8403 11.7674 39.5392 9.54707 38.5921C8.92275 38.3258 8.27371 37.9853 7.89522 37.3983C7.35729 36.5639 7.41012 35.3605 8.31104 34.5961C8.60343 34.3481 8.93128 34.2244 9.28507 34.094C9.35013 34.07 9.3461 33.9626 9.26773 33.9656C8.62739 33.9904 8.01463 34.4923 7.68958 35.0151C7.31755 35.6135 7.25451 36.3766 7.49466 37.0362C7.74897 37.7347 8.32006 38.2094 8.96496 38.5408C10.3134 39.2337 13.0378 40.0185 14.1379 40.1312C14.236 40.1413 14.2537 39.9851 14.1609 39.9612Z" fill="#E5E5FF"/>
<path d="M16.7647 40.4594C16.6971 40.4264 16.6367 40.4279 16.4247 40.4138C16.0961 40.3918 16.1791 40.4183 16.0959 40.4171C16.0269 40.4161 16.0093 40.523 16.0959 40.5342L16.1167 40.5369C16.1723 40.5619 16.1823 40.559 16.2598 40.5694C16.3185 40.5773 16.3553 40.5793 16.5798 40.5964C16.6357 40.6007 16.6933 40.6072 16.7477 40.5896C16.8017 40.5722 16.823 40.4878 16.7647 40.4594Z" fill="#E5E5FF"/>
<path d="M39.4711 35.8054C39.4024 35.3158 39.1144 34.8171 38.6735 34.576C38.6177 34.5455 38.5495 34.6237 38.6025 34.6679C39.2909 35.2412 39.4463 35.9159 39.2412 36.5457C39.1611 36.792 39.0145 36.9719 38.8737 37.1829C38.8222 37.2601 38.9303 37.3233 38.9923 37.2744C39.2893 37.04 39.5562 36.4119 39.4711 35.8054Z" fill="#E5E5FF"/>
<path d="M18.1672 45.2146C17.8789 45.2188 17.5278 45.3156 17.3636 45.5715C17.1899 45.8419 17.2711 46.2142 17.5389 46.3883C17.6777 46.4786 17.8726 46.5225 18.0283 46.4546C18.0965 46.4248 18.0606 46.3141 17.9911 46.317C17.9131 46.3202 17.8383 46.3283 17.7616 46.3082C17.3715 46.2062 17.29 45.6768 17.7185 45.4604C17.8642 45.3867 18.0272 45.3689 18.1819 45.3229C18.2405 45.3055 18.2307 45.2137 18.1672 45.2146Z" fill="#E5E5FF"/>
<path d="M28.738 46.5959C28.4413 46.69 28.2869 46.8373 27.675 46.9519C27.2998 47.0221 26.9128 47.0326 26.534 46.9867C26.4701 46.979 26.4544 47.0908 26.5187 47.1001C27.1403 47.1897 27.7324 47.1254 28.2393 46.9561C28.4203 46.8957 28.6335 46.8279 28.787 46.7122C28.8401 46.6722 28.8127 46.5722 28.738 46.5959Z" fill="#E5E5FF"/>
<path d="M13.0305 16.0639C12.8505 15.8991 12.7623 15.8626 11.6989 15.187C7.66995 12.6314 7.83511 12.7319 7.66049 12.6454C7.58498 12.608 7.48869 12.7107 7.56388 12.7707C7.77717 12.9408 12.2919 15.8107 12.2803 15.8033C12.4965 15.9411 12.7149 16.1002 12.9521 16.1986C13.0278 16.23 13.0868 16.1154 13.0305 16.0639Z" fill="#1B136A"/>
<path d="M39.0321 12.6654C37.9709 13.7462 36.939 14.8554 35.8993 15.957C35.8297 16.0308 35.9406 16.1424 36.0109 16.0686C37.0554 14.9714 38.1079 13.8815 39.1306 12.7638C39.1908 12.698 39.0952 12.6011 39.0321 12.6654Z" fill="#1B136A"/>
<path d="M42.8621 13.6752C42.4258 13.8965 42.855 13.6655 36.899 17.0364C36.7992 17.0929 36.889 17.2468 36.989 17.1902C42.8933 13.8499 42.5598 14.0491 42.9409 13.81C43.0265 13.7563 42.9515 13.6298 42.8621 13.6752Z" fill="#1B136A"/>
<path d="M41.387 18.2833C40.8108 18.4367 40.5837 18.5272 37.7997 19.4855C37.655 19.5353 37.7172 19.7666 37.8633 19.7162C40.5797 18.7791 40.8819 18.6872 41.4543 18.4431C41.5471 18.4035 41.4801 18.2586 41.387 18.2833Z" fill="#1B136A"/>
<path d="M12.1349 17.315C11.1775 17.183 10.7725 17.1661 7.60886 16.8551C7.10024 16.8052 6.58244 16.7325 6.07122 16.7249C5.99757 16.7238 5.97758 16.8425 6.0534 16.8565C6.4778 16.9348 6.53536 16.9262 9.06558 17.1793C10.0801 17.2807 11.0961 17.4083 12.1139 17.47C12.2012 17.4752 12.2236 17.3272 12.1349 17.315Z" fill="#1B136A"/>
<path d="M12.1527 12.5566C11.8609 12.2274 11.822 12.2015 10.0925 10.431C10.0099 10.3465 9.88027 10.4763 9.96288 10.5606C11.6813 12.315 11.7176 12.366 12.0423 12.667C12.1165 12.7357 12.2192 12.6316 12.1527 12.5566Z" fill="#1B136A"/>
</svg>
