<svg width="21" height="22" viewBox="0 0 21 22" fill="none" xmlns="http://www.w3.org/2000/svg">
<path fill-rule="evenodd" clip-rule="evenodd" d="M19 13.9286C19 13.4453 18.8081 12.982 18.4663 12.6408C18.2973 12.4716 18.0966 12.3373 17.8756 12.2457C17.6546 12.1542 17.4178 12.1071 17.1786 12.1071H12.9286C12.4453 12.1071 11.982 12.299 11.6408 12.6408C11.4716 12.8098 11.3373 13.0106 11.2457 13.2315C11.1542 13.4525 11.1071 13.6894 11.1071 13.9286V18.1786C11.1071 18.6619 11.299 19.1251 11.6408 19.4663C11.8098 19.6356 12.0106 19.7698 12.2315 19.8614C12.4525 19.953 12.6894 20.0001 12.9286 20H17.1786C17.6619 20 18.1251 19.8081 18.4663 19.4663C18.6356 19.2973 18.7698 19.0966 18.8614 18.8756C18.953 18.6546 19.0001 18.4178 19 18.1786V13.9286ZM9.89286 13.9286C9.89286 13.4453 9.701 12.982 9.35918 12.6408C9.19016 12.4716 8.98942 12.3373 8.76845 12.2457C8.54748 12.1542 8.31062 12.1071 8.07143 12.1071H3.82143C3.33814 12.1071 2.87489 12.299 2.53368 12.6408C2.36442 12.8098 2.23017 13.0106 2.13859 13.2315C2.04701 13.4525 1.99992 13.6894 2 13.9286V18.1786C2 18.6619 2.19186 19.1251 2.53368 19.4663C2.7027 19.6356 2.90343 19.7698 3.1244 19.8614C3.34537 19.953 3.58223 20.0001 3.82143 20H8.07143C8.55471 20 9.01796 19.8081 9.35918 19.4663C9.52843 19.2973 9.66269 19.0966 9.75427 18.8756C9.84584 18.6546 9.89294 18.4178 9.89286 18.1786V13.9286ZM17.7857 13.9286V18.1786C17.786 18.2584 17.7704 18.3374 17.74 18.4112C17.7096 18.485 17.6648 18.552 17.6084 18.6084C17.552 18.6648 17.485 18.7096 17.4112 18.74C17.3374 18.7704 17.2584 18.786 17.1786 18.7857H12.9286C12.8488 18.786 12.7697 18.7704 12.6959 18.74C12.6222 18.7096 12.5551 18.6648 12.4987 18.6084C12.4423 18.552 12.3976 18.485 12.3672 18.4112C12.3367 18.3374 12.3212 18.2584 12.3214 18.1786V13.9286C12.3212 13.8488 12.3367 13.7697 12.3672 13.6959C12.3976 13.6222 12.4423 13.5551 12.4987 13.4987C12.5551 13.4423 12.6222 13.3976 12.6959 13.3672C12.7697 13.3367 12.8488 13.3212 12.9286 13.3214H17.1786C17.2584 13.3212 17.3374 13.3367 17.4112 13.3672C17.485 13.3976 17.552 13.4423 17.6084 13.4987C17.6648 13.5551 17.7096 13.6222 17.74 13.6959C17.7704 13.7697 17.786 13.8488 17.7857 13.9286ZM8.67857 13.9286V18.1786C8.67881 18.2584 8.66327 18.3374 8.63285 18.4112C8.60242 18.485 8.55771 18.552 8.50128 18.6084C8.44485 18.6648 8.37783 18.7096 8.30406 18.74C8.23029 18.7704 8.15123 18.786 8.07143 18.7857H3.82143C3.74163 18.786 3.66257 18.7704 3.5888 18.74C3.51503 18.7096 3.448 18.6648 3.39158 18.6084C3.33515 18.552 3.29044 18.485 3.26001 18.4112C3.22959 18.3374 3.21405 18.2584 3.21429 18.1786V13.9286C3.21405 13.8488 3.22959 13.7697 3.26001 13.6959C3.29044 13.6222 3.33515 13.5551 3.39158 13.4987C3.448 13.4423 3.51503 13.3976 3.5888 13.3672C3.66257 13.3367 3.74163 13.3212 3.82143 13.3214H8.07143C8.15123 13.3212 8.23029 13.3367 8.30406 13.3672C8.37783 13.3976 8.44485 13.4423 8.50128 13.4987C8.55771 13.5551 8.60242 13.6222 8.63285 13.6959C8.66327 13.7697 8.67881 13.8488 8.67857 13.9286ZM9.89286 4.82143C9.89286 4.33814 9.701 3.87489 9.35918 3.53368C9.19016 3.36442 8.98942 3.23017 8.76845 3.13859C8.54748 3.04701 8.31062 2.99992 8.07143 3H3.82143C3.33814 3 2.87489 3.19186 2.53368 3.53368C2.36442 3.7027 2.23017 3.90343 2.13859 4.1244C2.04701 4.34537 1.99992 4.58223 2 4.82143V9.07143C2 9.55471 2.19186 10.018 2.53368 10.3592C2.7027 10.5284 2.90343 10.6627 3.1244 10.7543C3.34537 10.8458 3.58223 10.8929 3.82143 10.8929H8.07143C8.55471 10.8929 9.01796 10.701 9.35918 10.3592C9.52843 10.1902 9.66269 9.98942 9.75427 9.76845C9.84584 9.54748 9.89294 9.31062 9.89286 9.07143V4.82143ZM19 4.82143C19 4.33814 18.8081 3.87489 18.4663 3.53368C18.2973 3.36442 18.0966 3.23017 17.8756 3.13859C17.6546 3.04701 17.4178 2.99992 17.1786 3H12.9286C12.4453 3 11.982 3.19186 11.6408 3.53368C11.4716 3.7027 11.3373 3.90343 11.2457 4.1244C11.1542 4.34537 11.1071 4.58223 11.1071 4.82143V9.07143C11.1071 9.55471 11.299 10.018 11.6408 10.3592C11.8098 10.5284 12.0106 10.6627 12.2315 10.7543C12.4525 10.8458 12.6894 10.8929 12.9286 10.8929H17.1786C17.6619 10.8929 18.1251 10.701 18.4663 10.3592C18.6356 10.1902 18.7698 9.98942 18.8614 9.76845C18.953 9.54748 19.0001 9.31062 19 9.07143V4.82143ZM8.67857 4.82143V9.07143C8.67881 9.15123 8.66327 9.23029 8.63285 9.30406C8.60242 9.37783 8.55771 9.44485 8.50128 9.50128C8.44485 9.55771 8.37783 9.60242 8.30406 9.63285C8.23029 9.66327 8.15123 9.67881 8.07143 9.67857H3.82143C3.74163 9.67881 3.66257 9.66327 3.5888 9.63285C3.51503 9.60242 3.448 9.55771 3.39158 9.50128C3.33515 9.44485 3.29044 9.37783 3.26001 9.30406C3.22959 9.23029 3.21405 9.15123 3.21429 9.07143V4.82143C3.21405 4.74163 3.22959 4.66257 3.26001 4.5888C3.29044 4.51503 3.33515 4.448 3.39158 4.39158C3.448 4.33515 3.51503 4.29044 3.5888 4.26001C3.66257 4.22959 3.74163 4.21405 3.82143 4.21429H8.07143C8.15123 4.21405 8.23029 4.22959 8.30406 4.26001C8.37783 4.29044 8.44485 4.33515 8.50128 4.39158C8.55771 4.448 8.60242 4.51503 8.63285 4.5888C8.66327 4.66257 8.67881 4.74163 8.67857 4.82143ZM17.7857 4.82143V9.07143C17.786 9.15123 17.7704 9.23029 17.74 9.30406C17.7096 9.37783 17.6648 9.44485 17.6084 9.50128C17.552 9.55771 17.485 9.60242 17.4112 9.63285C17.3374 9.66327 17.2584 9.67881 17.1786 9.67857H12.9286C12.8488 9.67881 12.7697 9.66327 12.6959 9.63285C12.6222 9.60242 12.5551 9.55771 12.4987 9.50128C12.4423 9.44485 12.3976 9.37783 12.3672 9.30406C12.3367 9.23029 12.3212 9.15123 12.3214 9.07143V4.82143C12.3212 4.74163 12.3367 4.66257 12.3672 4.5888C12.3976 4.51503 12.4423 4.448 12.4987 4.39158C12.5551 4.33515 12.6222 4.29044 12.6959 4.26001C12.7697 4.22959 12.8488 4.21405 12.9286 4.21429H17.1786C17.2584 4.21405 17.3374 4.22959 17.4112 4.26001C17.485 4.29044 17.552 4.33515 17.6084 4.39158C17.6648 4.448 17.7096 4.51503 17.74 4.5888C17.7704 4.66257 17.786 4.74163 17.7857 4.82143Z" fill="white"/>
</svg>
