<svg width="21" height="20" viewBox="0 0 21 20" fill="none" xmlns="http://www.w3.org/2000/svg">
<g clip-path="url(#clip0_2776_1597)">
<path d="M9.66667 18.3333C4.6125 18.3333 0.5 14.2208 0.5 9.16667C0.5 4.1125 4.6125 0 9.66667 0C14.7208 0 18.8333 4.1125 18.8333 9.16667C18.8333 14.2208 14.7208 18.3333 9.66667 18.3333ZM9.66667 1.66667C5.53167 1.66667 2.16667 5.03083 2.16667 9.16667C2.16667 13.3025 5.53167 16.6667 9.66667 16.6667C13.8017 16.6667 17.1667 13.3025 17.1667 9.16667C17.1667 5.03083 13.8017 1.66667 9.66667 1.66667Z" fill="#6D6D6D"/>
<path d="M19.6668 19.9999C19.5574 20.0001 19.449 19.9785 19.3479 19.9366C19.2468 19.8947 19.1549 19.8333 19.0776 19.7558L15.0818 15.7599C14.9256 15.6036 14.8378 15.3915 14.8379 15.1705C14.838 14.9494 14.9259 14.7375 15.0822 14.5812C15.2386 14.4249 15.4506 14.3372 15.6717 14.3373C15.8927 14.3374 16.1047 14.4252 16.261 14.5816L20.256 18.5774C20.3729 18.6938 20.4526 18.8423 20.485 19.0041C20.5173 19.1659 20.5009 19.3336 20.4378 19.486C20.3747 19.6384 20.2677 19.7686 20.1304 19.8602C19.9931 19.9517 19.8318 20.0003 19.6668 19.9999Z" fill="#6D6D6D"/>
</g>
<defs>
<clipPath id="clip0_2776_1597">
<rect width="20" height="20" fill="white" transform="translate(0.5)"/>
</clipPath>
</defs>
</svg>
