<svg width="21" height="22" viewBox="0 0 21 22" fill="none" xmlns="http://www.w3.org/2000/svg">
<path d="M17.6927 11.5279C17.5622 11.382 17.4902 11.1943 17.4902 11C17.4902 10.8057 17.5622 10.618 17.6927 10.4721L18.735 9.32023C18.8499 9.19438 18.9212 9.03603 18.9387 8.8679C18.9563 8.69976 18.9192 8.53049 18.8327 8.38436L17.2041 5.61673C17.1186 5.47077 16.9883 5.35507 16.8318 5.28613C16.6754 5.21718 16.5007 5.19852 16.3328 5.23278L14.802 5.53674C14.6072 5.57628 14.4044 5.54441 14.2319 5.44716C14.0594 5.3499 13.929 5.19398 13.8655 5.00882L13.3688 3.54501C13.3142 3.38614 13.2101 3.24815 13.0713 3.15054C12.9325 3.05294 12.7659 3.00065 12.5952 3.00109H9.33804C9.16047 2.99198 8.98474 3.04022 8.8377 3.13844C8.69067 3.23666 8.5804 3.37945 8.52374 3.54501L8.06773 5.00882C8.00422 5.19398 7.87391 5.3499 7.70139 5.44716C7.52888 5.54441 7.32609 5.57628 7.13129 5.53674L5.5597 5.23278C5.40055 5.21069 5.2383 5.23536 5.09339 5.30369C4.94849 5.37201 4.82741 5.48093 4.7454 5.61673L3.11681 8.38436C3.02818 8.52886 2.98833 8.69718 3.00296 8.86527C3.01758 9.03336 3.08594 9.1926 3.19824 9.32023L4.2324 10.4721C4.36295 10.618 4.43494 10.8057 4.43494 11C4.43494 11.1943 4.36295 11.382 4.2324 11.5279L3.19824 12.6798C3.08594 12.8074 3.01758 12.9666 3.00296 13.1347C2.98833 13.3028 3.02818 13.4711 3.11681 13.6156L4.7454 16.3833C4.83099 16.5292 4.96129 16.6449 5.11774 16.7139C5.2742 16.7828 5.44881 16.8015 5.6167 16.7672L7.14758 16.4633C7.34237 16.4237 7.54516 16.4556 7.71768 16.5528C7.8902 16.6501 8.02051 16.806 8.08402 16.9912L8.58074 18.455C8.6374 18.6205 8.74767 18.7633 8.89471 18.8616C9.04174 18.9598 9.21747 19.008 9.39504 18.9989H12.6522C12.8229 18.9993 12.9895 18.9471 13.1283 18.8495C13.2671 18.7519 13.3712 18.6139 13.4258 18.455L13.9225 16.9912C13.986 16.806 14.1164 16.6501 14.2889 16.5528C14.4614 16.4556 14.6642 16.4237 14.859 16.4633L16.3898 16.7672C16.5577 16.8015 16.7324 16.7828 16.8888 16.7139C17.0453 16.6449 17.1756 16.5292 17.2611 16.3833L18.8897 13.6156C18.9762 13.4695 19.0133 13.3002 18.9958 13.1321C18.9782 12.964 18.9069 12.8056 18.792 12.6798L17.6927 11.5279ZM16.4794 12.5998L17.1309 13.3197L16.0886 15.0954L15.1277 14.9035C14.5412 14.7857 13.9311 14.8836 13.4133 15.1785C12.8954 15.4734 12.5058 15.9448 12.3184 16.5033L12.0089 17.3991H9.92433L9.63118 16.4873C9.44378 15.9288 9.05416 15.4574 8.53628 15.1625C8.01841 14.8676 7.40833 14.7697 6.82186 14.8875L5.86099 15.0794L4.80241 13.3117L5.45384 12.5918C5.85444 12.1518 6.07591 11.5823 6.07591 10.992C6.07591 10.4017 5.85444 9.83218 5.45384 9.39222L4.80241 8.67232L5.8447 6.91256L6.80557 7.10453C7.39205 7.22229 8.00213 7.12443 8.52 6.82953C9.03787 6.53462 9.42749 6.0632 9.6149 5.50475L9.92433 4.60087H12.0089L12.3184 5.51275C12.5058 6.0712 12.8954 6.54262 13.4133 6.83752C13.9311 7.13243 14.5412 7.23029 15.1277 7.11253L16.0886 6.92055L17.1309 8.69631L16.4794 9.41622C16.0833 9.85516 15.8646 10.4214 15.8646 11.008C15.8646 11.5946 16.0833 12.1608 16.4794 12.5998ZM10.9666 7.80044C10.3224 7.80044 9.69268 7.98809 9.15703 8.33966C8.62139 8.69123 8.20391 9.19094 7.95738 9.77558C7.71085 10.3602 7.64635 11.0035 7.77203 11.6242C7.89771 12.2449 8.20793 12.815 8.66345 13.2624C9.11898 13.7099 9.69935 14.0146 10.3312 14.1381C10.963 14.2615 11.6179 14.1982 12.2131 13.956C12.8083 13.7138 13.317 13.3037 13.6749 12.7776C14.0328 12.2514 14.2238 11.6328 14.2238 11C14.2238 10.1514 13.8806 9.3376 13.2698 8.73757C12.659 8.13753 11.8305 7.80044 10.9666 7.80044ZM10.9666 12.5998C10.6445 12.5998 10.3297 12.506 10.0618 12.3302C9.79401 12.1544 9.58527 11.9045 9.46201 11.6122C9.33874 11.3199 9.30649 10.9982 9.36933 10.6879C9.43217 10.3776 9.58728 10.0925 9.81504 9.86878C10.0428 9.64505 10.333 9.49268 10.6489 9.43096C10.9648 9.36923 11.2923 9.40091 11.5899 9.52199C11.8875 9.64308 12.1418 9.84813 12.3208 10.1112C12.4997 10.3743 12.5952 10.6836 12.5952 11C12.5952 11.4243 12.4236 11.8312 12.1182 12.1312C11.8128 12.4312 11.3986 12.5998 10.9666 12.5998Z" fill="white"/>
</svg>
