<svg width="47" height="47" viewBox="0 0 47 47" fill="none" xmlns="http://www.w3.org/2000/svg">
<path d="M13.7485 28.9784C13.325 29.0513 12.896 29.0871 12.4663 29.0856V11.25L17.4633 5.50098L22.1634 5.7717C22.1634 5.7717 22.1821 6.06122 22.201 6.57258C22.3401 10.4811 22.4378 27.4631 13.7485 28.9784Z" fill="#FFEBF1"/>
<path d="M17.6495 8.23263C17.5912 8.89057 17.499 9.54506 17.3731 10.1935C17.249 10.8402 17.0923 11.4794 16.9031 12.1111C16.7151 12.7409 16.4951 13.3631 16.2451 13.9723C15.9946 14.5832 15.7135 15.1812 15.4029 15.7639C15.0933 16.3442 14.7549 16.9082 14.3877 17.4559L14.2485 17.6608C14.2222 17.6965 14.2824 17.7304 14.3068 17.6947C14.6841 17.1484 15.033 16.583 15.3521 16.0008C15.6698 15.4217 15.9575 14.8258 16.2169 14.2185C16.4763 13.6113 16.7038 12.989 16.9012 12.3573C17.0986 11.7257 17.2622 11.0865 17.3957 10.4379C17.5291 9.79049 17.6289 9.13663 17.6946 8.47891C17.704 8.39619 17.7115 8.31535 17.719 8.23263C17.7228 8.18939 17.6532 8.18939 17.6495 8.23263Z" fill="#F2C9D0"/>
<path d="M15.6303 17.4388C15.4555 17.8262 15.2532 18.2007 15.025 18.5593C14.7955 18.9164 14.5404 19.2563 14.2617 19.5764C14.1057 19.7569 13.9402 19.9317 13.7691 20.099C13.7372 20.1291 13.7861 20.178 13.818 20.1479C14.4312 19.5508 14.9532 18.8666 15.3671 18.1175C15.4837 17.9069 15.5909 17.6926 15.6886 17.4745C15.693 17.4667 15.6942 17.4575 15.6921 17.4488C15.69 17.4401 15.6848 17.4325 15.6773 17.4275C15.6735 17.4251 15.6693 17.4235 15.6648 17.4228C15.6604 17.4221 15.6558 17.4222 15.6515 17.4233C15.6471 17.4243 15.643 17.4263 15.6393 17.4289C15.6357 17.4316 15.6327 17.4349 15.6303 17.4388Z" fill="#F2C9D0"/>
<path d="M19.8246 17.7962C19.6629 18.5989 19.4711 19.3961 19.2305 20.1781C18.9899 20.9602 18.6985 21.7235 18.3413 22.4567C18.0129 23.1349 17.6193 23.7797 17.1663 24.3818C16.7331 24.9546 16.2375 25.4773 15.6886 25.9403C15.1461 26.3976 14.5448 26.7802 13.9007 27.0777L13.6507 27.1868C13.6093 27.2018 13.6281 27.2695 13.6676 27.2526C14.3285 26.9775 14.9489 26.6138 15.5119 26.1716C16.0777 25.726 16.5906 25.217 17.0403 24.6544C17.5082 24.0694 17.9163 23.4389 18.2585 22.7725C18.6364 22.045 18.9429 21.2836 19.1985 20.5053C19.4542 19.7269 19.6573 18.9204 19.8283 18.1139C19.8509 18.0143 19.8716 17.9146 19.8904 17.8131C19.8998 17.7699 19.834 17.7529 19.8246 17.7962Z" fill="#F2C9D0"/>
<path d="M16.9463 22.0693C16.8607 22.3596 16.7293 22.6344 16.5572 22.8834C16.3861 23.139 16.1849 23.3722 15.9763 23.5978C15.8559 23.7237 15.7337 23.8497 15.6115 23.9738C15.5796 24.0038 15.6285 24.0527 15.6604 24.0208C15.8804 23.7989 16.1003 23.5752 16.3015 23.3346C16.5027 23.0939 16.6831 22.8458 16.8223 22.5694C16.9015 22.4151 16.9651 22.2532 17.0121 22.0862C17.0253 22.0449 16.9576 22.0261 16.9463 22.0693Z" fill="#F2C9D0"/>
<path d="M21.0673 6.62124C21.0673 6.94836 21.056 7.27736 21.0315 7.60448C21.0253 7.69848 21.0177 7.79248 21.009 7.88648C21.009 7.89546 21.0125 7.90406 21.0189 7.91041C21.0252 7.91676 21.0338 7.92032 21.0428 7.92032C21.052 7.92033 21.0608 7.91683 21.0674 7.91053C21.0741 7.90424 21.078 7.89563 21.0785 7.88648C21.1086 7.55936 21.1274 7.23036 21.1331 6.90324C21.1349 6.80924 21.1349 6.71524 21.1349 6.62124C21.1349 6.6168 21.1341 6.6124 21.1324 6.60829C21.1307 6.60419 21.1282 6.60046 21.125 6.59731C21.1219 6.59417 21.1181 6.59168 21.114 6.58998C21.1099 6.58828 21.1055 6.5874 21.1011 6.5874C21.0966 6.5874 21.0922 6.58828 21.0881 6.58998C21.084 6.59168 21.0803 6.59417 21.0772 6.59731C21.074 6.60046 21.0715 6.60419 21.0698 6.60829C21.0681 6.6124 21.0673 6.6168 21.0673 6.62124Z" fill="#F2C9D0"/>
<path opacity="0.64" d="M23.2857 5.7717C23.2857 5.7717 21.7554 29.0856 32.9827 29.0856V11.25L27.9857 5.50098L23.2857 5.7717Z" fill="#FFEBF1"/>
<path d="M27.7996 8.23263C27.8578 8.89057 27.95 9.54506 28.0759 10.1935C28.2 10.8402 28.3567 11.4794 28.5459 12.1111C28.7339 12.7409 28.9539 13.3631 29.2039 13.9723C29.7061 15.1921 30.3283 16.3591 31.0614 17.4559L31.2005 17.6608C31.2268 17.6965 31.1666 17.7304 31.1422 17.6947C30.7649 17.1484 30.416 16.583 30.0969 16.0008C29.7792 15.4217 29.4916 14.8258 29.2321 14.2185C28.9727 13.6113 28.7452 12.989 28.5497 12.3573C28.3542 11.7257 28.1868 11.0865 28.0534 10.4379C27.9208 9.79033 27.821 9.13651 27.7544 8.47891C27.745 8.39619 27.7375 8.31535 27.73 8.23263C27.7262 8.18939 27.7958 8.18939 27.7996 8.23263Z" fill="#D398A5"/>
<path d="M29.8187 17.4388C29.9936 17.8262 30.1959 18.2007 30.4241 18.5593C30.6535 18.9164 30.9086 19.2563 31.1873 19.5764C31.3434 19.7569 31.5088 19.9317 31.6799 20.099C31.7119 20.1291 31.663 20.178 31.631 20.1479C31.0178 19.5508 30.4958 18.8666 30.0819 18.1175C29.9653 17.9069 29.8582 17.6926 29.7604 17.4745C29.7561 17.4667 29.7548 17.4575 29.7569 17.4488C29.759 17.4401 29.7643 17.4325 29.7717 17.4275C29.7755 17.4251 29.7798 17.4235 29.7842 17.4228C29.7887 17.4221 29.7932 17.4222 29.7976 17.4233C29.8019 17.4243 29.8061 17.4263 29.8097 17.4289C29.8133 17.4316 29.8164 17.4349 29.8187 17.4388Z" fill="#D398A5"/>
<path d="M25.6244 17.7962C25.7861 18.5989 25.9778 19.3961 26.2204 20.1781C26.4563 20.9596 26.753 21.7215 27.1077 22.4567C27.4361 23.1349 27.8296 23.7797 28.2827 24.3818C28.7159 24.9546 29.2115 25.4773 29.7604 25.9403C30.3029 26.3976 30.9042 26.7802 31.5483 27.0777L31.7983 27.1868C31.8397 27.2018 31.8228 27.2695 31.7814 27.2526C31.1205 26.9775 30.5 26.6138 29.9371 26.1716C29.3717 25.7255 28.8589 25.2165 28.4087 24.6544C27.9408 24.0694 27.5327 23.4389 27.1904 22.7725C26.8126 22.045 26.5061 21.2836 26.2504 20.5053C25.9948 19.7269 25.7917 18.9204 25.6206 18.1139C25.5981 18.0143 25.5774 17.9146 25.5586 17.8131C25.5492 17.7699 25.615 17.7529 25.6244 17.7962Z" fill="#D398A5"/>
<path d="M28.5027 22.0693C28.5883 22.3596 28.7197 22.6344 28.8918 22.8834C29.0629 23.139 29.2641 23.3722 29.4727 23.5978C29.5931 23.7237 29.7153 23.8497 29.8375 23.9738C29.8694 24.0038 29.8206 24.0527 29.7886 24.0208C29.5686 23.7989 29.3487 23.5752 29.1475 23.3346C28.9464 23.0939 28.7659 22.8458 28.6267 22.5694C28.5475 22.4151 28.4839 22.2532 28.4369 22.0862C28.4237 22.0449 28.4914 22.0261 28.5027 22.0693Z" fill="#D398A5"/>
<path d="M24.3817 6.62124C24.3817 6.94836 24.393 7.27736 24.4174 7.60448C24.4237 7.69848 24.4312 7.79248 24.44 7.88648C24.44 7.89546 24.4364 7.90406 24.4301 7.91041C24.4237 7.91676 24.4151 7.92032 24.4061 7.92032C24.397 7.92033 24.3882 7.91683 24.3815 7.91053C24.3749 7.90424 24.3709 7.89563 24.3704 7.88648C24.3403 7.55936 24.3215 7.23036 24.3159 6.90324C24.314 6.80924 24.314 6.71524 24.314 6.62124C24.314 6.61227 24.3176 6.60366 24.3239 6.59731C24.3303 6.59097 24.3389 6.5874 24.3479 6.5874C24.3568 6.5874 24.3654 6.59097 24.3718 6.59731C24.3781 6.60366 24.3817 6.61227 24.3817 6.62124Z" fill="#D398A5"/>
<path d="M22.2009 6.57258C21.8435 6.55539 21.4854 6.56482 21.1293 6.60078L21.0692 6.60642C19.5633 6.76622 17.1306 7.4637 15.6943 10.1728C14.7543 11.9419 14.2655 15.9011 14.0117 19.851L14.006 19.9582C13.8406 22.5808 13.7785 25.1883 13.7579 27.1398V27.215C13.7503 27.8937 13.7485 28.4896 13.7485 28.9784C13.325 29.0513 12.896 29.0871 12.4663 29.0856V11.25L17.4633 5.50098L22.1633 5.7717C22.1633 5.7717 22.1821 6.06122 22.2009 6.57258Z" fill="#F2C9D0"/>
<path d="M39.1153 23.6204C39.1153 23.6204 39.0175 23.0433 39.3691 22.3063C39.3691 22.3063 39.683 21.5731 40.2433 21.8288C40.8035 22.0845 40.2094 23.3629 39.1153 23.6204Z" fill="#72B0B5"/>
<path d="M38.243 25.4082C38.243 25.4082 38.3595 24.9363 38.8728 24.4776C38.8728 24.4776 39.3541 24.0095 39.6925 24.378C40.0309 24.7465 39.1548 25.5436 38.243 25.4082Z" fill="#72B0B5"/>
<path d="M38.7355 27.2619C38.7355 27.2619 38.7976 26.7788 39.2544 26.2655C39.2544 26.2655 39.6793 25.7467 40.0572 26.0738C40.4351 26.4009 39.6567 27.2939 38.7355 27.2619Z" fill="#72B0B5"/>
<path d="M37.3199 28.8843C37.3199 28.8843 37.5361 28.4481 38.1358 28.1116C38.1358 28.1116 38.7054 27.7582 38.9574 28.1887C39.2093 28.6192 38.1828 29.2133 37.3199 28.8843Z" fill="#72B0B5"/>
<path d="M37.9609 24.9193C37.9609 24.9193 38.3275 24.5997 38.5005 23.9342C38.5005 23.9342 38.696 23.2931 38.2147 23.1596C37.7335 23.0261 37.4233 24.1711 37.9609 24.9193Z" fill="#72B0B5"/>
<path d="M36.4475 26.0098C36.4475 26.0098 36.8555 25.7447 37.1206 25.1092C37.1206 25.1092 37.4063 24.502 36.9476 24.3027C36.4889 24.1034 36.0208 25.192 36.4475 26.0098Z" fill="#72B0B5"/>
<path d="M35.5959 27.9875C35.5959 27.9875 35.8967 27.604 35.9418 26.9178C35.9418 26.9178 36.0133 26.2504 35.5151 26.2109C35.0169 26.1714 34.9266 27.3521 35.5959 27.9875Z" fill="#72B0B5"/>
<path d="M35.4925 30.456L35.4737 30.4504C35.8403 28.8881 39.8597 22.4152 39.8992 22.3513L39.9161 22.3607C39.8748 22.4265 35.8591 28.8956 35.4925 30.456Z" fill="#457E7F"/>
<path d="M36.0885 29.014L36.0828 28.9952C37.2597 28.6531 39.5119 26.5644 39.5345 26.5437L39.5477 26.5569C39.5232 26.5794 37.2691 28.67 36.0885 29.014Z" fill="#457E7F"/>
<path d="M36.863 28.9407C36.7127 28.9411 36.563 28.9222 36.4175 28.8843L36.4231 28.8673C37.365 29.1136 38.3125 28.45 38.3219 28.4443L38.3332 28.4594C38.3257 28.465 37.6451 28.9407 36.863 28.9407Z" fill="#457E7F"/>
<path d="M36.0133 29.1531C35.8121 27.9405 36.722 25.0021 36.7314 24.9739L36.7502 24.9795C36.7408 25.0077 35.8309 27.9424 36.0321 29.1494L36.0133 29.1531Z" fill="#457E7F"/>
<path d="M35.9869 28.8016C35.3496 28.0515 35.5414 26.9009 35.5433 26.8896L35.5621 26.8934C35.5583 26.9047 35.3703 28.0458 36.0001 28.7884L35.9869 28.8016Z" fill="#457E7F"/>
<path d="M37.3838 26.6L37.3669 26.5906L37.4214 26.4891C37.9158 25.5096 38.1396 23.9398 38.1414 23.9248H38.1602C38.1584 23.9398 37.9628 25.3179 37.5304 26.3011C37.7654 25.9157 38.2524 25.237 38.9404 24.8498L38.9498 24.8667C38.1339 25.3254 37.6019 26.1977 37.4383 26.4948C37.4214 26.5324 37.4026 26.5662 37.3838 26.6Z" fill="#457E7F"/>
<path d="M7.77004 26.2054C7.77004 26.2054 7.80012 25.7768 7.48804 25.2635C7.48804 25.2635 7.20604 24.7503 6.815 24.9797C6.42396 25.209 6.95224 26.0983 7.77004 26.2054Z" fill="#72B0B5"/>
<path d="M8.53898 27.4461C8.53898 27.4461 8.41865 27.1096 8.01069 26.8125C8.01069 26.8125 7.62529 26.5061 7.40533 26.7994C7.18537 27.0927 7.88285 27.6115 8.53898 27.4461Z" fill="#72B0B5"/>
<path d="M8.31522 28.8355C8.31522 28.8355 8.2325 28.4877 7.86214 28.1474C7.86214 28.1474 7.51434 27.7996 7.26242 28.0647C7.0105 28.3298 7.64406 28.9258 8.31522 28.8355Z" fill="#72B0B5"/>
<path d="M9.46578 29.9183C9.46578 29.9183 9.2759 29.6156 8.8153 29.4125C8.8153 29.4125 8.3735 29.1963 8.22122 29.5291C8.06894 29.8619 8.86042 30.221 9.46578 29.9183Z" fill="#72B0B5"/>
<path d="M8.70818 27.0701C8.70818 27.0701 8.41678 26.8614 8.24194 26.3896C8.24194 26.3896 8.05206 25.9346 8.39422 25.803C8.73638 25.6714 9.04658 26.4836 8.70818 27.0701Z" fill="#72B0B5"/>
<path d="M9.89258 27.7545C9.89258 27.7545 9.57486 27.5909 9.3361 27.1472C9.3361 27.1472 9.0823 26.7242 9.40378 26.5438C9.72526 26.3633 10.1445 27.1266 9.89258 27.7545Z" fill="#72B0B5"/>
<path d="M10.6596 29.1361C10.6596 29.1361 10.4133 28.8767 10.3306 28.3804C10.3306 28.3804 10.2272 27.8991 10.5882 27.8314C10.9491 27.7637 11.1014 28.6229 10.6596 29.1361Z" fill="#72B0B5"/>
<path d="M10.9134 30.9316C10.5318 29.8187 7.12521 25.3894 7.09137 25.3443L7.10641 25.333C7.14025 25.3781 10.5487 29.8112 10.9322 30.926L10.9134 30.9316Z" fill="#457E7F"/>
<path d="M10.3757 29.9239C9.48836 29.7585 7.68732 28.3973 7.66852 28.3823L7.6798 28.3691C7.6986 28.3823 9.49588 29.7415 10.3776 29.9051L10.3757 29.9239Z" fill="#457E7F"/>
<path d="M9.65569 29.9353C9.14433 29.9353 8.70065 29.6853 8.69501 29.6834L8.70441 29.6665C8.71193 29.6703 9.45265 30.0857 10.12 29.8357L10.1276 29.8545C9.97632 29.9092 9.81653 29.9366 9.65569 29.9353Z" fill="#457E7F"/>
<path d="M10.4434 30.0179H10.4246C10.4829 29.123 9.60304 27.0475 9.59552 27.0268L9.61244 27.0193C9.61996 27.0381 10.5017 29.1174 10.4434 30.0179Z" fill="#457E7F"/>
<path d="M10.4359 29.7605L10.4208 29.7492C10.8269 29.1627 10.6051 28.343 10.6032 28.3355L10.6201 28.3298C10.6239 28.3374 10.8476 29.1664 10.4359 29.7605Z" fill="#457E7F"/>
<path d="M9.2496 28.2545C9.23456 28.232 9.21952 28.2075 9.2026 28.185C9.0616 27.98 8.6104 27.3803 7.98248 27.1058L7.99 27.0889C8.50324 27.3126 8.89804 27.7507 9.10484 28.0176C8.72696 27.3333 8.49008 26.3708 8.4882 26.3595L8.50512 26.3557C8.50888 26.367 8.78712 27.495 9.21952 28.1737C9.2496 28.2169 9.26464 28.2432 9.26652 28.2451L9.2496 28.2545Z" fill="#457E7F"/>
<path d="M35.5602 36.5961L35.5715 36.5886V36.6018C35.5701 36.606 35.5694 36.6105 35.5696 36.6149L35.5639 36.6977C35.5624 36.7012 35.5618 36.7051 35.5621 36.7089C35.5625 36.7134 35.5618 36.7179 35.5602 36.7221C35.5414 36.9703 35.5282 37.2184 35.5207 37.4647L35.3985 37.5831C35.4004 37.5831 35.3947 37.2598 35.4173 36.8105V36.7841C35.4192 36.7597 35.4211 36.7353 35.4211 36.7089C35.4226 36.7047 35.4232 36.7003 35.4229 36.6958V36.6826L35.4342 36.6751L35.5602 36.5961Z" fill="white"/>
<path d="M35.5602 36.5961V36.6093C35.5587 36.6135 35.558 36.6179 35.5583 36.6224L35.5527 36.7033C35.5512 36.7075 35.5505 36.7119 35.5508 36.7164C35.5511 36.7209 35.5505 36.7254 35.5489 36.7296C35.532 36.974 35.517 37.2165 35.5095 37.4609L35.4098 37.5587V37.5229C35.4098 37.4101 35.4117 37.1413 35.4267 36.8029C35.4283 36.7993 35.4289 36.7955 35.4286 36.7916V36.7785C35.4305 36.7521 35.4324 36.7277 35.4324 36.7014C35.4324 36.6751 35.4343 36.6939 35.4343 36.6882V36.6751L35.423 36.6826L35.4117 36.6901V36.7164L35.4061 36.7916V36.8161C35.3891 37.1488 35.3891 37.412 35.3891 37.5229C35.3902 37.5424 35.3896 37.5619 35.3873 37.5812H35.3985L35.4061 37.5906L35.5283 37.4722H35.5301V37.4665C35.5395 37.2184 35.5527 36.9683 35.5715 36.7183C35.573 36.7141 35.5737 36.7096 35.5734 36.7051V36.692C35.5771 36.6657 35.579 36.6375 35.5809 36.6111C35.5805 36.6067 35.5811 36.6021 35.5828 36.598V36.5848L35.5715 36.5905L35.5602 36.5961Z" fill="black"/>
<path d="M35.5602 36.5961L35.5715 36.5886V36.6018C35.5701 36.606 35.5694 36.6105 35.5696 36.6149L35.5639 36.6977C35.5624 36.7012 35.5618 36.7051 35.5621 36.7089C35.5625 36.7134 35.5618 36.7179 35.5602 36.7221C35.5414 36.9703 35.5282 37.2184 35.5207 37.4647L35.3985 37.5831C35.4004 37.5831 35.3947 37.2598 35.4173 36.8105V36.7841C35.4192 36.7597 35.4211 36.7353 35.4211 36.7089C35.4226 36.7047 35.4232 36.7003 35.4229 36.6958V36.6826L35.4342 36.6751L35.5602 36.5961Z" fill="#72B0B5"/>
<path d="M41.8525 36.7033V36.7108H41.845C41.7717 36.7333 41.2021 36.7897 40.5854 36.4363C39.589 35.8704 39.3973 35.7614 39.3597 35.7369C38.9617 35.7312 38.5638 35.7481 38.1677 35.7877C38.3783 35.8272 38.8032 35.9569 39.2995 36.3874C39.6699 36.7239 39.9274 37.0078 40.0233 37.1883L40.0271 37.1921H40.0365L40.0271 37.2109H40.0158C39.9349 37.1958 39.3315 37.083 38.8201 36.7333C38.3745 36.4213 37.9215 35.9795 37.7711 35.8328L37.7278 35.7915C37.474 35.8573 37.2183 35.9325 36.9721 36.0171C37.1789 36.1148 37.3781 36.2279 37.568 36.3555C37.8726 36.5547 38.2223 36.8518 38.32 37.068C38.4178 37.2842 38.4761 37.412 38.4986 37.4703H38.5757L38.4949 37.4929H38.4855C38.4272 37.4797 37.9346 37.3462 37.4721 36.9439C37.0097 36.5416 36.8781 36.1374 36.8555 36.0622C36.415 36.2534 35.9867 36.4719 35.5733 36.7164L35.5621 36.7221L35.5508 36.7296L35.4286 36.8029L35.4192 36.8104L35.4079 36.8161L35.3308 36.8649H35.3233L35.2143 36.8424H35.2124L35.2161 36.8311L35.2105 36.8217L35.2425 36.801L35.4135 36.6882C35.4211 36.5566 35.4324 36.4175 35.4436 36.2727C35.5019 35.5452 35.6354 34.7481 35.7313 34.3984C35.8384 33.9904 35.9343 33.6821 36.0133 33.4828V33.4791H35.9832L36.0133 33.464L35.9794 33.4245C35.4474 32.791 35.1917 32.2025 35.218 31.6799C35.2801 30.8433 35.5245 30.5707 35.5752 30.5237V30.5181H35.5827C35.5903 30.5181 36.2595 30.6722 36.4626 31.5558C36.5646 32.0087 36.5556 32.4796 36.4363 32.9282C36.6092 32.5748 37.083 31.6987 37.365 31.3791C37.4496 31.2795 37.521 31.1291 37.6037 30.9542C37.8481 30.4335 38.1847 29.7209 39.3014 29.4051C40.091 29.2096 40.6362 29.0949 40.8787 29.0742H40.8919L40.8881 29.078L40.8956 29.0817L40.905 29.0742L40.9088 29.0799V29.0855C40.8768 29.1927 40.4632 29.9635 39.4856 30.441C37.8688 31.2419 37.6019 31.3753 37.553 31.396C37.1969 31.9056 36.8718 32.4361 36.5791 32.9846C36.7916 32.759 37.3199 32.3078 38.3313 32.0371C39.072 31.8566 39.6492 31.7739 39.9594 31.8059H39.9707L39.9782 31.7983L39.9895 31.8171L39.9857 31.8228L39.9819 31.8265C39.8955 31.9149 39.2356 32.5823 38.3576 32.932C37.5812 33.2253 36.6337 33.4227 36.3235 33.4866L36.2276 33.5073C36.0922 33.8908 35.97 34.2837 35.8629 34.6729L35.8704 34.6691C36.1721 34.4895 36.4869 34.333 36.8123 34.201C37.3236 33.9885 37.9985 33.7987 38.3539 33.8588C38.7092 33.919 38.9273 33.9566 39.0175 33.9791L39.0607 33.9152L39.0325 33.9942C39.0325 33.9949 39.0324 33.9957 39.0321 33.9963C39.0318 33.997 39.0314 33.9976 39.0309 33.9982C39.0304 33.9987 39.0298 33.9991 39.0291 33.9994C39.0284 33.9997 39.0276 33.9998 39.0269 33.9998C38.9705 34.0525 38.3802 34.5695 37.4665 34.8139C36.5528 35.0583 35.9155 34.8646 35.8196 34.8345C35.7125 35.4136 35.6316 35.9964 35.5827 36.5773C35.688 36.5115 35.8102 36.4401 35.9381 36.3686C36.3535 36.1317 36.8367 35.9118 37.0604 35.8366C37.3218 35.7463 37.5229 35.6843 37.6601 35.6542L37.6432 35.6298L37.6714 35.6448C37.6733 35.6392 37.6752 35.6279 37.6789 35.6166C37.8293 35.0959 38.0531 34.7405 38.3482 34.5619C38.8239 34.2912 39.0607 34.3213 39.1077 34.3307H39.1134L39.1171 34.3382C39.1209 34.342 39.2826 34.765 38.8765 35.2011C38.6772 35.4115 38.433 35.5741 38.1621 35.6768C38.446 35.6392 39.0589 35.5884 39.3014 35.6185C39.386 35.6279 39.4931 35.6129 39.6191 35.5922C39.9913 35.5358 40.5027 35.4549 41.0836 35.9475C41.4803 36.3047 41.7435 36.5585 41.8431 36.6826L41.8488 36.6882L41.8413 36.6957L41.8525 36.7033Z" fill="#72B0B5"/>
<path d="M10.6201 37.4571L10.6088 37.4514C10.6088 37.4552 10.6107 37.4589 10.6107 37.4627V37.474L10.6163 37.5473C10.6179 37.5509 10.6185 37.5547 10.6182 37.5586V37.5717C10.637 37.7955 10.6483 38.0173 10.6558 38.2391L10.7649 38.3482C10.763 38.3482 10.7686 38.0549 10.7498 37.6488C10.7479 37.6469 10.7479 37.6413 10.7479 37.6375V37.6263C10.7461 37.6037 10.7461 37.5811 10.7442 37.5586V37.5473C10.7443 37.5428 10.7437 37.5384 10.7423 37.5341L10.7329 37.5285L10.6201 37.4571Z" fill="white"/>
<path d="M9.87378 34.2686C9.87598 34.2735 9.87731 34.2788 9.8777 34.2842C9.87966 34.2842 9.8777 34.2784 9.87378 34.2686Z" fill="white"/>
<path d="M9.87378 34.2686C9.87589 34.2733 9.87716 34.2784 9.87754 34.2836C9.87942 34.2836 9.87754 34.278 9.87378 34.2686ZM10.6089 37.4514L10.5995 37.4439V37.457C10.5995 37.4608 10.6013 37.4646 10.6013 37.4683L10.607 37.5416V37.5529C10.6085 37.5565 10.6091 37.5603 10.6089 37.5642C10.6258 37.7917 10.6389 38.0154 10.6465 38.241V38.2448H10.6483L10.7574 38.3519H10.7593L10.7668 38.3463H10.7743V38.2936C10.7743 38.1921 10.7724 37.9552 10.7593 37.6563V37.645C10.7577 37.6415 10.7571 37.6376 10.7574 37.6338C10.7574 37.6112 10.7555 37.5886 10.7536 37.5642V37.5416L10.7423 37.5341L10.7329 37.5285V37.5398C10.7343 37.544 10.735 37.5485 10.7348 37.5529C10.7348 37.5755 10.7367 37.598 10.7386 37.6206V37.6432C10.7536 37.9496 10.7555 38.1921 10.7555 38.2936V38.3237L10.6653 38.2354C10.6577 38.0173 10.6465 37.7973 10.6295 37.5774C10.6295 37.5736 10.6277 37.5698 10.6277 37.5661V37.5529L10.622 37.4815C10.6206 37.4772 10.62 37.4728 10.6201 37.4683V37.457L10.6089 37.4514Z" fill="black"/>
<path d="M10.6201 37.4571L10.6088 37.4514C10.6088 37.4552 10.6107 37.4589 10.6107 37.4627V37.474L10.6163 37.5473C10.6179 37.5509 10.6185 37.5547 10.6182 37.5586V37.5717C10.637 37.7955 10.6483 38.0173 10.6558 38.2391L10.7649 38.3482C10.763 38.3482 10.7686 38.0549 10.7498 37.6488C10.7479 37.6469 10.7479 37.6413 10.7479 37.6375V37.6263C10.7461 37.6037 10.7461 37.5811 10.7442 37.5586V37.5473C10.7443 37.5428 10.7437 37.5384 10.7423 37.5341L10.7329 37.5285L10.6201 37.4571Z" fill="#72B0B5"/>
<path d="M9.87378 34.2686C9.87598 34.2735 9.87731 34.2788 9.8777 34.2842C9.87966 34.2842 9.8777 34.2784 9.87378 34.2686Z" fill="#72B0B5"/>
<path d="M10.9322 37.6713V37.6807H10.9303L10.8345 37.6995H10.8288L10.7593 37.6563C10.7554 37.6549 10.7521 37.6522 10.7499 37.6488L10.7386 37.6431L10.6295 37.5773L10.6183 37.5717L10.6089 37.5642C10.2361 37.3436 9.84993 37.1464 9.45266 36.9739C9.43198 37.0434 9.30602 37.4213 8.89806 37.771C8.4901 38.1207 8.03514 38.2541 7.9825 38.2654H7.97498L7.90354 38.2466H7.97122C7.9919 38.194 8.0483 38.068 8.1329 37.8838C8.2175 37.6995 8.5371 37.4213 8.81158 37.2408C8.98274 37.1257 9.1625 37.0239 9.34926 36.9363C9.12554 36.8611 8.89618 36.7915 8.66682 36.7313L8.62734 36.7708C8.49198 36.9024 8.08402 37.2991 7.6817 37.583C7.2211 37.8969 6.67778 38.0003 6.60446 38.0116H6.59318L6.58378 37.9947H6.59506C6.59497 37.9937 6.5951 37.9927 6.59542 37.9917C6.59574 37.9907 6.59626 37.9898 6.59694 37.9891C6.68342 37.8274 6.91654 37.5717 7.2493 37.269C7.69674 36.8799 8.08026 36.7633 8.27014 36.7276C7.91286 36.6917 7.55381 36.6767 7.19478 36.6825L6.09122 37.3141C5.53474 37.6337 5.01962 37.5811 4.95382 37.5604H4.94818V37.5548L4.95758 37.5491L4.95194 37.5435L4.95758 37.5379C5.04594 37.4269 5.28282 37.1976 5.64002 36.8761C6.16642 36.4324 6.62514 36.5039 6.96166 36.5565C7.07446 36.5734 7.17222 36.5885 7.2493 36.5791C7.46738 36.5509 8.01822 36.5979 8.27578 36.6317C8.03078 36.5393 7.81019 36.392 7.63094 36.2012C7.26434 35.8101 7.41098 35.4285 7.41286 35.4247L7.4185 35.4172H7.42226C7.4655 35.4078 7.67982 35.3815 8.10846 35.6259C8.37354 35.7876 8.57658 36.1072 8.71194 36.5772C8.71382 36.5885 8.7157 36.596 8.71758 36.6035L8.74202 36.5885L8.72886 36.611C8.85294 36.6373 9.03342 36.6937 9.26842 36.7746C9.47146 36.8441 9.90574 37.0415 10.2799 37.254C10.3964 37.3198 10.5055 37.3837 10.6013 37.442C10.5562 36.9193 10.4848 36.3929 10.387 35.8722C10.3005 35.9004 9.70458 36.0733 8.9037 35.8534C8.10282 35.6334 7.54634 35.1672 7.49558 35.1202L7.48994 35.1127L7.46362 35.0431L7.50122 35.1014C7.58394 35.0826 7.79074 35.045 8.10094 34.9942C8.41114 34.9435 9.02966 35.1108 9.49214 35.3025C9.7847 35.4219 10.0681 35.5627 10.34 35.7237L10.3457 35.7293C10.2517 35.3777 10.1407 35.0224 10.0185 34.6765L9.93206 34.6596C9.65194 34.6013 8.79842 34.4227 8.09718 34.1576C7.3057 33.8418 6.70974 33.2421 6.63266 33.1612C6.63266 33.1593 6.63078 33.1593 6.6289 33.1575V33.1518L6.6383 33.1368L6.64394 33.1424H6.65522C6.93346 33.1142 7.4561 33.1875 8.1235 33.3511C9.0353 33.5955 9.51094 34.0035 9.7027 34.2046C9.43803 33.7105 9.14488 33.2322 8.82474 32.7721C8.7815 32.7533 8.53898 32.6348 7.08198 31.9129C6.20026 31.4805 5.82802 30.7868 5.79982 30.689L5.79606 30.6834H5.79794V30.6796L5.80734 30.6853L5.81486 30.6815L5.8111 30.6777H5.82238C6.04046 30.6947 6.53302 30.7981 7.24366 30.9748C8.25134 31.2605 8.55402 31.9016 8.77586 32.3716C8.84918 32.5295 8.9131 32.6649 8.99206 32.7551C9.24586 33.0428 9.67074 33.8324 9.82678 34.152C9.72078 33.7473 9.71305 33.3232 9.80422 32.9149C9.98658 32.1178 10.5919 31.9787 10.5976 31.9787H10.6051V31.9825C10.6502 32.0257 10.8702 32.272 10.9266 33.0259C10.9491 33.4977 10.7179 34.026 10.2404 34.5994L10.2103 34.6351L10.2366 34.6464H10.2103V34.6502C10.2817 34.8288 10.3682 35.107 10.466 35.4755C10.5525 35.7913 10.6728 36.5095 10.7235 37.1656C10.7348 37.2953 10.7442 37.4213 10.7517 37.5397L10.9059 37.6413L10.9341 37.6601L10.9322 37.6713Z" fill="#72B0B5"/>
<path d="M35.547 15.4312V39.6399C35.5537 39.8163 35.5247 39.9922 35.4618 40.1571C35.399 40.322 35.3034 40.4726 35.181 40.5997C35.0586 40.7269 34.9118 40.828 34.7493 40.8971C34.5869 40.9662 34.4122 41.0018 34.2357 41.0018C34.0592 41.0018 33.8845 40.9662 33.7221 40.8971C33.5597 40.828 33.4129 40.7269 33.2904 40.5997C33.168 40.4726 33.0725 40.322 33.0096 40.1571C32.9467 39.9922 32.9177 39.8163 32.9244 39.6399V15.4312C32.9246 15.1059 32.9077 14.7808 32.8737 14.4573C32.3679 9.57871 28.0966 5.75667 22.9191 5.75667C17.7415 5.75667 13.4702 9.57871 12.9645 14.4573C12.9304 14.7808 12.9135 15.1059 12.9137 15.4312V39.6399C12.9204 39.8163 12.8914 39.9922 12.8285 40.1571C12.7656 40.322 12.6701 40.4726 12.5477 40.5997C12.4253 40.7269 12.2784 40.828 12.116 40.8971C11.9536 40.9662 11.7789 41.0018 11.6024 41.0018C11.4259 41.0018 11.2512 40.9662 11.0888 40.8971C10.9264 40.828 10.7795 40.7269 10.6571 40.5997C10.5347 40.4726 10.4392 40.322 10.3763 40.1571C10.3134 39.9922 10.2844 39.8163 10.2911 39.6399V15.4312C10.2911 15.104 10.3043 14.7807 10.3306 14.4573C10.4357 13.1377 10.7597 11.8447 11.2894 10.6315C11.9286 9.16511 12.8423 7.85099 14.0041 6.72299C15.161 5.5989 16.523 4.70732 18.016 4.09663C21.1587 2.81317 24.6794 2.81317 27.8221 4.09663C29.3151 4.70732 30.6771 5.5989 31.834 6.72299C32.9959 7.85099 33.9095 9.16511 34.5487 10.6315C35.0784 11.8447 35.4024 13.1377 35.5075 14.4573C35.5339 14.7807 35.547 15.104 35.547 15.4312Z" fill="#FFEBF1"/>
<path d="M30.8903 8.31709C30.8305 8.31683 30.7731 8.29322 30.7305 8.25129C29.7206 7.25068 28.5268 6.45463 27.2149 5.90693C27.159 5.88349 27.1148 5.83883 27.0919 5.78277C27.069 5.72672 27.0692 5.66385 27.0927 5.60801C27.1161 5.55216 27.1608 5.50791 27.2168 5.485C27.2729 5.46208 27.3358 5.46237 27.3916 5.48581C28.757 6.05585 29.9992 6.88446 31.0501 7.92605C31.0818 7.958 31.1035 7.99861 31.1123 8.0428C31.1212 8.08699 31.1168 8.1328 31.0997 8.17451C31.0827 8.21622 31.0537 8.25199 31.0165 8.27734C30.9792 8.3027 30.9353 8.31652 30.8903 8.31709Z" fill="#F2C9D0"/>
<path d="M12.4644 12.0112C12.4342 12.011 12.4042 12.0053 12.376 11.9943C12.3205 11.971 12.2765 11.9267 12.2536 11.871C12.2307 11.8153 12.2308 11.7528 12.2538 11.6972L12.3102 11.5581C12.8921 10.1982 13.7331 8.9646 14.7862 7.92596C15.8063 6.91726 17.0056 6.10756 18.3225 5.53836C18.35 5.52659 18.3796 5.52036 18.4095 5.52003C18.4394 5.51971 18.4691 5.5253 18.4969 5.53647C18.5247 5.54765 18.55 5.5642 18.5713 5.58517C18.5927 5.60614 18.6097 5.63112 18.6214 5.65868C18.6335 5.68605 18.64 5.71556 18.6406 5.74548C18.6412 5.77539 18.6358 5.80513 18.6248 5.83294C18.6137 5.86076 18.5973 5.88611 18.5764 5.90751C18.5555 5.92891 18.5305 5.94594 18.503 5.9576C17.238 6.50353 16.0864 7.28146 15.1077 8.2512C14.0955 9.24779 13.2877 10.4324 12.7295 11.7386C12.7107 11.7818 12.6938 11.827 12.675 11.8702C12.6576 11.9118 12.6284 11.9473 12.5909 11.9724C12.5535 11.9975 12.5095 12.011 12.4644 12.0112Z" fill="#F2C9D0"/>
<path d="M36.2201 38.8372H32.3905C32.1943 38.8372 32.0352 38.9962 32.0352 39.1925V41.2061C32.0352 41.4024 32.1943 41.5615 32.3905 41.5615H36.2201C36.4163 41.5615 36.5754 41.4024 36.5754 41.2061V39.1925C36.5754 38.9962 36.4163 38.8372 36.2201 38.8372Z" fill="#F2C9D0"/>
<path d="M13.5867 38.8372H9.75718C9.56094 38.8372 9.40186 38.9962 9.40186 39.1925V41.2061C9.40186 41.4024 9.56094 41.5615 9.75718 41.5615H13.5867C13.783 41.5615 13.9421 41.4024 13.9421 41.2061V39.1925C13.9421 38.9962 13.783 38.8372 13.5867 38.8372Z" fill="#F2C9D0"/>
<path d="M12.9137 18.6553H12.2538V38.8373H12.9137V18.6553Z" fill="#F2C9D0"/>
<path d="M33.5805 18.6553H32.9207V38.8373H33.5805V18.6553Z" fill="#F2C9D0"/>
<path d="M10.3306 14.4573H12.9645C12.9305 14.7808 12.9135 15.1058 12.9137 15.4311V17.7247H10.2911V15.4311C10.2911 15.104 10.3043 14.7806 10.3306 14.4573Z" fill="#F2C9D0"/>
<path d="M35.547 15.4311V17.7247H32.9244V15.4311C32.9246 15.1058 32.9077 14.7808 32.8737 14.4573H35.5075C35.5339 14.7806 35.547 15.104 35.547 15.4311Z" fill="#F2C9D0"/>
<path d="M36.2201 15.9312H32.3905C32.1943 15.9312 32.0352 16.0902 32.0352 16.2865V18.3001C32.0352 18.4964 32.1943 18.6555 32.3905 18.6555H36.2201C36.4163 18.6555 36.5754 18.4964 36.5754 18.3001V16.2865C36.5754 16.0902 36.4163 15.9312 36.2201 15.9312Z" fill="#D398A5"/>
<path d="M13.5867 15.9312H9.75718C9.56094 15.9312 9.40186 16.0902 9.40186 16.2865V18.3001C9.40186 18.4964 9.56094 18.6555 9.75718 18.6555H13.5867C13.783 18.6555 13.9421 18.4964 13.9421 18.3001V16.2865C13.9421 16.0902 13.783 15.9312 13.5867 15.9312Z" fill="#D398A5"/>
<path d="M10.8306 18.6853H10.6821V38.838H10.8306V18.6853Z" fill="#F2C9D0"/>
<path d="M11.3251 18.6853H11.1766V38.838H11.3251V18.6853Z" fill="#F2C9D0"/>
<path d="M34.4529 18.6853H34.3044V38.838H34.4529V18.6853Z" fill="#F2C9D0"/>
<path d="M34.9473 18.6853H34.7988V38.838H34.9473V18.6853Z" fill="#F2C9D0"/>
<path d="M32.5559 12.7201C32.5405 12.7203 32.5253 12.7157 32.5125 12.7069C32.4997 12.6982 32.4899 12.6857 32.4845 12.6712C30.8865 8.50135 28.0759 6.88079 25.9985 6.25475C23.7444 5.57607 21.8437 5.88627 21.823 5.89003C21.8133 5.89164 21.8033 5.89132 21.7937 5.88907C21.784 5.88683 21.775 5.8827 21.7669 5.87694C21.7589 5.87118 21.7521 5.86389 21.7469 5.85549C21.7416 5.84709 21.7381 5.83775 21.7365 5.82799C21.7349 5.81824 21.7353 5.80826 21.7375 5.79864C21.7397 5.78901 21.7439 5.77992 21.7496 5.77189C21.7554 5.76386 21.7627 5.75704 21.7711 5.75183C21.7795 5.74661 21.7888 5.74311 21.7986 5.74151C21.8174 5.73775 23.7481 5.42003 26.0361 6.10811C27.3803 6.51231 28.5835 7.17783 29.6119 8.08963C30.8959 9.22703 31.9111 10.7498 32.6255 12.6167C32.6291 12.6259 32.6309 12.6358 32.6307 12.6457C32.6305 12.6557 32.6283 12.6655 32.6243 12.6746C32.6203 12.6837 32.6145 12.6919 32.6073 12.6987C32.6001 12.7055 32.5916 12.7109 32.5823 12.7144L32.5559 12.7201Z" fill="#F2C9D0"/>
<path d="M23.5 43.866C33.9079 43.866 42.3451 43.0445 42.3451 42.0312C42.3451 41.0178 33.9079 40.1963 23.5 40.1963C13.0922 40.1963 4.65491 41.0178 4.65491 42.0312C4.65491 43.0445 13.0922 43.866 23.5 43.866Z" fill="#F2C9D0"/>
<path d="M18.6872 42.3827C24.6221 42.3827 29.4333 42.0687 29.4333 41.6815C29.4333 41.2942 24.6221 40.9802 18.6872 40.9802C12.7523 40.9802 7.9411 41.2942 7.9411 41.6815C7.9411 42.0687 12.7523 42.3827 18.6872 42.3827Z" fill="#D398A5"/>
<path d="M33.5524 42.0311C37.6401 42.0311 40.9539 41.8746 40.9539 41.6815C40.9539 41.4883 37.6401 41.3318 33.5524 41.3318C29.4646 41.3318 26.1508 41.4883 26.1508 41.6815C26.1508 41.8746 29.4646 42.0311 33.5524 42.0311Z" fill="#D398A5"/>
<path d="M40.9088 41.6083C40.8562 41.6759 39.8052 41.6346 39.5646 41.6083C39.324 41.5819 38.2072 41.3451 37.2616 41.2116C36.316 41.0781 36.1317 40.8563 36.0509 41.0273C35.97 41.1984 35.8253 41.6835 35.8253 41.6835H35.5846C35.5846 41.6835 35.6523 40.8694 35.6655 40.6307C35.6768 40.4201 35.8347 39.8862 35.8159 39.6474C35.814 39.6217 35.8083 39.5963 35.799 39.5722C35.7181 39.4011 35.2782 38.3972 34.7123 37.8276C34.1464 37.2579 32.7834 36.8688 30.9279 34.2518C29.0723 31.6349 28.5008 25.8501 28.5008 25.8501C28.5008 25.8501 31.2719 29.2078 31.552 29.6308C31.8322 30.0538 31.8585 30.3057 31.9374 30.4373C32.0164 30.5689 33.8024 33.1219 34.5995 34.3515C35.3966 35.581 36.6506 37.6565 36.9157 38.0137C37.1808 38.3709 38.0606 39.4857 38.0606 39.4857L38.2072 39.5967C38.602 39.9031 39.6887 40.7265 39.9387 40.8017C40.2433 40.8957 40.6437 41.1063 40.7622 41.1589C40.8806 41.2116 40.9633 41.5425 40.9088 41.6083Z" fill="#FFB6B1"/>
<path d="M40.9088 41.6083C40.8562 41.676 39.8053 41.6346 39.5646 41.6083C39.324 41.582 38.2073 41.3451 37.2616 41.2116C36.316 41.0781 36.1317 40.8563 36.0509 41.0274C35.9701 41.1984 35.8253 41.6835 35.8253 41.6835H35.5847C35.5847 41.6835 35.6523 40.8694 35.6655 40.6307C35.6768 40.4201 35.8347 39.8862 35.8159 39.6474C35.8569 39.6405 35.8984 39.6361 35.94 39.6343C36.3385 39.6268 37.3782 39.8994 37.7955 39.9257C38.0832 39.9445 38.1772 39.7302 38.2073 39.5967C38.6021 39.9031 39.6887 40.7266 39.9387 40.8018C40.2433 40.8958 40.6437 41.1063 40.7622 41.159C40.8806 41.2116 40.9633 41.5425 40.9088 41.6083Z" fill="#54355E"/>
<path d="M19.9505 10.9492C19.9505 10.9492 20.7157 11.8197 21.7253 11.4606C22.7348 11.1015 22.1708 9.11059 22.1708 9.11059C22.1708 9.11059 21.5598 8.87935 21.2477 8.42251C21.1696 8.30191 21.1059 8.17256 21.0579 8.03711C20.9093 7.62351 20.8774 7.18359 20.8774 7.18359L19.52 7.97319C19.52 7.97319 19.5463 8.02207 19.9505 8.87371C20.0483 9.07863 20.0972 9.30423 20.1179 9.53171C20.1837 10.2424 19.9505 10.9492 19.9505 10.9492Z" fill="#FFB6B1"/>
<path d="M20.1179 9.53171C20.3247 9.71783 20.5239 9.88515 20.5879 9.90395C20.742 9.95095 21.0146 9.38883 21.0804 8.70639C21.0992 8.50899 21.0861 8.27211 21.0579 8.03711C20.9093 7.62351 20.8774 7.18359 20.8774 7.18359L19.52 7.97319C19.52 7.97319 19.5463 8.02207 19.9505 8.87371C20.0483 9.07863 20.0972 9.30423 20.1179 9.53171Z" fill="#F47382"/>
<path d="M21.1989 6.63633C21.2026 7.37141 20.695 7.79817 20.695 7.79817L19.9994 7.85269L18.0668 8.00121C17.9631 7.92934 17.8662 7.84816 17.7773 7.75869C17.5479 7.53309 17.2565 7.15897 17.2039 6.67393C17.1155 5.85049 17.7679 5.13421 18.7154 4.86725C19.6629 4.60029 20.648 4.87665 21.0748 5.99901C21.1025 6.0708 21.1258 6.14427 21.1443 6.21897C21.1798 6.35529 21.1981 6.49548 21.1989 6.63633Z" fill="#302342"/>
<path d="M21.1989 6.63635C21.2026 7.37143 20.6951 7.79819 20.6951 7.79819L19.9995 7.85271V7.84895C20.0615 6.89391 20.2288 6.51415 20.2288 6.51415C20.4282 6.41167 20.6381 6.33099 20.8549 6.27351C20.9502 6.24957 21.0469 6.23136 21.1444 6.21899C21.1798 6.35531 21.1981 6.49551 21.1989 6.63635Z" fill="#54355E"/>
<path d="M18.9541 9.57661C19.4373 9.94509 19.693 9.88305 19.9449 9.76837C20.1968 9.65369 20.3529 9.51081 20.4337 9.45441C20.6725 9.21001 20.8981 8.91485 20.9639 8.70805C21.0635 8.39785 21.0165 7.77181 21.0127 7.70977V7.70413C21.0127 7.70413 21.6613 7.57441 21.6331 7.21909C21.6049 6.86377 21.3737 6.74533 21.1669 6.74533C20.9601 6.74533 20.6819 6.89761 20.6725 6.97093C20.6631 7.04425 20.7665 7.34693 20.7289 7.38077C20.6913 7.41461 20.6367 7.44469 20.6029 7.42213C20.5691 7.39957 20.5296 7.27173 20.46 7.10065C20.4318 7.01793 20.3923 6.92205 20.3547 6.83745C20.304 6.70397 20.2551 6.58177 20.2307 6.51221C20.2307 6.51221 20.0069 6.71149 19.4993 6.79233C18.9917 6.87317 18.6063 6.83745 18.6063 6.83745C18.6063 6.83745 17.9596 7.31497 17.6043 7.30181C17.6043 7.30181 17.8111 7.87897 17.9107 8.03877C18.0104 8.19857 18.1063 8.29633 18.1457 8.45613C18.1629 8.52052 18.1836 8.58392 18.2078 8.64601C18.2083 8.64601 18.2088 8.64621 18.2091 8.64656C18.2095 8.64691 18.2097 8.64739 18.2097 8.64789C18.2228 8.67985 18.486 9.21941 18.9541 9.57661Z" fill="#FFB6B1"/>
<path d="M21.2553 7.49361C21.1613 7.54437 21.1105 7.51617 21.0879 7.49361C21.0654 7.47105 21.0503 7.41089 21.0748 7.36201L21.0823 7.34885C21.1218 7.27365 21.1143 7.26613 21.0936 7.25297C21.0861 7.24856 21.0778 7.24599 21.0691 7.24545C21.0618 7.25376 21.0578 7.26446 21.0579 7.27553C21.0556 7.29552 21.0556 7.3157 21.0579 7.33569C21.0581 7.34854 21.0537 7.36104 21.0454 7.37084C21.0371 7.38065 21.0255 7.38708 21.0128 7.38893C21.0001 7.39078 20.9872 7.38791 20.9764 7.38088C20.9657 7.37384 20.9579 7.36312 20.9545 7.35073C20.95 7.32401 20.9493 7.29679 20.9526 7.26989C20.9531 7.24632 20.9595 7.22326 20.9714 7.20287C20.9832 7.18248 21 7.16543 21.0203 7.15333C21.0466 7.13829 21.0879 7.12889 21.1462 7.16273C21.2647 7.23041 21.2026 7.34885 21.1763 7.39961L21.1688 7.41089C21.1688 7.41277 21.1669 7.41465 21.1669 7.41653C21.1823 7.41281 21.1969 7.40645 21.2101 7.39773C21.2496 7.37705 21.3173 7.24921 21.306 7.12889C21.3058 7.08975 21.2931 7.0517 21.2697 7.02026C21.2464 6.98883 21.2137 6.96564 21.1763 6.95405C21.118 6.93337 21.0729 6.93525 21.0334 6.95781C20.9432 7.01421 20.9187 7.17401 20.9187 7.17589C20.9178 7.18281 20.9154 7.18946 20.9119 7.19546C20.9083 7.20147 20.9036 7.20672 20.898 7.21091C20.8924 7.2151 20.8861 7.21815 20.8793 7.21988C20.8725 7.22162 20.8655 7.222 20.8586 7.22101C20.8517 7.22003 20.845 7.21769 20.839 7.21413C20.833 7.21057 20.8278 7.20586 20.8236 7.20028C20.8194 7.19469 20.8163 7.18833 20.8146 7.18157C20.8129 7.17481 20.8125 7.16777 20.8135 7.16085C20.8153 7.15333 20.8435 6.95029 20.9789 6.86757C21.0466 6.82809 21.1237 6.82245 21.212 6.85441C21.2683 6.8731 21.3174 6.90848 21.353 6.95584C21.3887 7.0032 21.409 7.06029 21.4113 7.11949C21.4245 7.27741 21.3436 7.44473 21.2609 7.48985L21.2553 7.49361Z" fill="#F47382"/>
<path d="M19.4372 7.72024C19.4938 7.68348 19.4943 7.5838 19.4383 7.49759C19.3823 7.41138 19.291 7.3713 19.2344 7.40805C19.1778 7.44481 19.1773 7.54449 19.2333 7.6307C19.2893 7.71691 19.3806 7.757 19.4372 7.72024Z" fill="#302342"/>
<path d="M18.4955 8.22436C18.5477 8.19043 18.5497 8.10081 18.5 8.02418C18.4502 7.94755 18.3675 7.91294 18.3152 7.94687C18.263 7.9808 18.261 8.07042 18.3107 8.14705C18.3605 8.22368 18.4432 8.25829 18.4955 8.22436Z" fill="#302342"/>
<path d="M19.2174 9.07488C19.3007 9.14791 19.4043 9.19382 19.5144 9.20648C19.585 9.21562 19.6567 9.21024 19.7251 9.19068C19.7936 9.17112 19.8573 9.13779 19.9124 9.09272C19.9675 9.04766 20.0128 8.99182 20.0455 8.92862C20.0783 8.86542 20.0978 8.7962 20.1028 8.7252C20.1142 8.58222 20.0705 8.44031 19.9806 8.32852C19.9753 8.32206 19.9682 8.31723 19.9602 8.31457C19.9522 8.31191 19.9437 8.31154 19.9355 8.31348C19.9277 8.31534 19.9206 8.31923 19.9148 8.32476L19.2155 9.00908C19.2111 9.0135 19.2076 9.01879 19.2053 9.02462C19.2031 9.03044 19.202 9.03667 19.2023 9.04292C19.2022 9.04905 19.2034 9.05513 19.2061 9.06067C19.2087 9.06622 19.2125 9.07109 19.2174 9.07488Z" fill="#CE3A81"/>
<path d="M19.2023 9.04292C19.3302 9.0354 19.5012 8.95456 19.6554 8.81544C19.8434 8.64812 19.9506 8.44696 19.9355 8.31348C19.9277 8.31534 19.9206 8.31923 19.9148 8.32476L19.2155 9.00908C19.2111 9.0135 19.2076 9.01879 19.2053 9.02461C19.2031 9.03044 19.202 9.03667 19.2023 9.04292Z" fill="white"/>
<path d="M19.5144 9.20638C19.585 9.21552 19.6567 9.21014 19.7251 9.19058C19.7936 9.17102 19.8573 9.13769 19.9124 9.09262C19.9675 9.04756 20.0128 8.99172 20.0456 8.92852C20.0783 8.86532 20.0978 8.7961 20.1028 8.7251C19.9984 8.74105 19.8984 8.77885 19.8096 8.83602C19.6592 8.93378 19.5558 9.06914 19.5144 9.20638Z" fill="#F47382"/>
<path d="M19.3003 7.62522C19.3247 7.60943 19.3248 7.56624 19.3006 7.52876C19.2763 7.49127 19.2369 7.47368 19.2125 7.48947C19.1881 7.50527 19.1879 7.54846 19.2122 7.58594C19.2364 7.62343 19.2759 7.64101 19.3003 7.62522Z" fill="white"/>
<path d="M18.3749 8.16526C18.3993 8.14947 18.3995 8.10628 18.3752 8.06879C18.351 8.03131 18.3115 8.01372 18.2871 8.02951C18.2627 8.0453 18.2626 8.08849 18.2868 8.12598C18.3111 8.16347 18.3505 8.18105 18.3749 8.16526Z" fill="white"/>
<path d="M19.1929 8.66115C19.129 8.69687 18.9936 8.75327 18.8921 8.69875C18.753 8.62355 18.8 8.49947 18.847 8.38103L18.8601 8.34719C18.894 8.25883 18.8037 8.14227 18.7661 8.10279C18.7612 8.09805 18.7573 8.09236 18.7546 8.08606C18.7519 8.07976 18.7505 8.07298 18.7505 8.06613C18.7505 8.05928 18.7519 8.0525 18.7546 8.0462C18.7573 8.0399 18.7612 8.03421 18.7661 8.02947C18.771 8.02447 18.7769 8.0205 18.7833 8.01778C18.7898 8.01507 18.7967 8.01367 18.8037 8.01367C18.8107 8.01367 18.8177 8.01507 18.8241 8.01778C18.8306 8.0205 18.8364 8.02447 18.8413 8.02947C18.8489 8.03699 19.0237 8.21371 18.9579 8.38479L18.9447 8.41863C18.8921 8.55587 18.8921 8.57843 18.941 8.60663C18.9899 8.63483 19.1346 8.57655 19.1722 8.55211C19.1839 8.54438 19.1982 8.54163 19.212 8.54445C19.2257 8.54727 19.2378 8.55543 19.2455 8.56715C19.2533 8.57887 19.256 8.59318 19.2532 8.60693C19.2504 8.62068 19.2422 8.63274 19.2305 8.64047L19.1929 8.66115Z" fill="#F47382"/>
<path d="M19.3527 7.2061C19.3411 7.21175 19.328 7.21372 19.3151 7.21174C19.1854 7.18166 19.0538 7.28882 19.0519 7.2907C19.0466 7.29515 19.0405 7.2985 19.0339 7.30058C19.0273 7.30265 19.0204 7.3034 19.0135 7.30279C19.0066 7.30218 18.9999 7.30022 18.9937 7.29701C18.9876 7.29381 18.9821 7.28943 18.9777 7.28412C18.9732 7.27882 18.9699 7.27268 18.9678 7.26608C18.9657 7.25947 18.965 7.25253 18.9656 7.24563C18.9662 7.23873 18.9682 7.23203 18.9714 7.22589C18.9746 7.21975 18.979 7.21431 18.9843 7.20986C18.9918 7.20422 19.1572 7.06698 19.3396 7.10834C19.3464 7.10989 19.3529 7.11278 19.3585 7.11684C19.3642 7.12091 19.3691 7.12607 19.3727 7.13202C19.3764 7.13797 19.3789 7.14459 19.38 7.1515C19.381 7.15841 19.3807 7.16547 19.3791 7.17226C19.3775 7.17953 19.3744 7.18636 19.3698 7.19222C19.3653 7.19809 19.3594 7.20283 19.3527 7.2061Z" fill="#302342"/>
<path d="M18.0856 7.92053C18.078 7.92435 18.0696 7.92628 18.0611 7.92617C18.0543 7.92642 18.0475 7.92529 18.0411 7.92285C18.0348 7.92042 18.0289 7.91672 18.024 7.91198C18.0191 7.90724 18.0152 7.90156 18.0125 7.89527C18.0099 7.88899 18.0085 7.88223 18.0085 7.87541C18.0047 7.80021 18.0536 7.64417 18.2567 7.60093C18.2706 7.59812 18.2851 7.60087 18.297 7.6086C18.309 7.61633 18.3174 7.62842 18.3206 7.64229C18.3219 7.64908 18.322 7.65607 18.3206 7.66287C18.3193 7.66966 18.3166 7.67613 18.3128 7.68189C18.3089 7.68765 18.304 7.6926 18.2982 7.69645C18.2925 7.7003 18.286 7.70298 18.2792 7.70433C18.1157 7.74005 18.1119 7.85849 18.1138 7.87353C18.1138 7.88319 18.1113 7.89269 18.1063 7.90099C18.1013 7.90928 18.0941 7.91604 18.0856 7.92053Z" fill="#302342"/>
<path d="M12.8479 39.2676C12.6299 39.6699 12.3911 40.1775 12.3855 40.217C12.3798 40.2565 12.2181 40.8205 12.1335 40.9314C12.0489 41.0423 11.327 40.7547 11.3082 40.7077C11.2894 40.6607 11.4191 40.2358 11.2988 40.2997C11.1785 40.3636 10.8063 40.561 10.7235 40.561C10.6408 40.561 8.45814 39.4462 8.28142 39.3071C8.1047 39.168 7.67794 38.8145 7.65914 38.6754C7.64034 38.5363 7.67794 38.3314 7.84338 38.1922C8.00882 38.0531 8.32654 38.0719 8.72698 38.1828C9.12742 38.2938 10.1013 38.3032 10.4998 38.275C10.7777 38.2563 11.054 38.2193 11.327 38.164C11.4906 38.3126 11.6034 38.4442 11.5658 38.5382C11.515 38.666 11.3778 38.6434 11.4379 38.7694C11.4981 38.8954 12.5171 38.8709 12.7464 39.1153C12.7866 39.1615 12.8207 39.2127 12.8479 39.2676Z" fill="#302342"/>
<path d="M13.8519 37.8952C13.8519 37.8952 13.3142 38.5551 13.0905 38.8615C13.0247 38.9518 12.9382 39.1003 12.8479 39.2676C12.8208 39.2127 12.7866 39.1615 12.7464 39.1153C12.5171 38.8709 11.4981 38.8954 11.4379 38.7694C11.3778 38.6434 11.515 38.666 11.5658 38.5382C11.6034 38.4442 11.4906 38.3126 11.327 38.164C11.4943 38.1283 11.6372 38.0851 11.7162 38.0343C11.9211 37.9046 12.4964 37.0774 12.4964 37.0774L13.8519 37.8952Z" fill="white"/>
<path d="M29.2415 19.4805C29.2904 19.6083 29.6814 22.4866 29.4351 23.9906C29.1889 25.4946 27.6078 31.1233 27.0231 32.3472C26.4384 33.5711 24.5829 37.6676 24.4137 38.4346C24.2445 39.2017 24.3403 39.9443 23.923 39.9161C23.5056 39.8879 21.4733 39.8615 21.1387 39.3276C20.8041 38.7937 22.5807 31.0725 22.7254 30.36C22.8702 29.6475 23.0055 27.6228 23.0055 27.6228C23.0055 27.6228 18.0536 32.7796 17.6457 33.2891C17.2377 33.7985 14.7674 38.2579 14.538 38.5644C14.3087 38.8708 14.3331 38.9723 14.053 38.8952C13.7729 38.8181 12.5997 38.2523 12.1918 37.9872C11.7838 37.7221 11.6334 37.3912 11.6334 37.1882C11.6334 36.9851 14.9967 31.3527 15.3539 30.6909C15.7111 30.0291 19.0726 25.927 19.3395 25.519C19.6065 25.1111 21.9264 23.3777 21.9264 23.3777V21.9264L29.2415 19.4805Z" fill="#302342"/>
<path d="M19.5952 10.513C19.5952 10.513 22.481 17.6589 24.2633 17.1813C26.0455 16.7038 24.5941 12.2181 24.5941 12.2181L22.5769 8.98267L21.5297 10.7029L19.5952 10.513Z" fill="#FFEBF1"/>
<path d="M20.9169 10.7368C20.9169 10.7368 21.4094 11.4042 21.4846 11.4042C21.5598 11.4042 21.5297 11.4418 21.5297 11.4418C21.5297 11.4418 22.936 14.7393 23.4925 15.7432C24.049 16.7471 24.0771 16.796 24.0771 16.796L25.0604 16.0327C25.0604 16.0327 24.267 14.478 23.5 13.365C22.733 12.252 22.0919 11.1222 22.0919 11.1222L22.1313 10.9718L21.9264 10.1765H21.1387L20.9169 10.7368Z" fill="#D13B62"/>
<path d="M19.552 10.5469C19.552 10.5469 19.8622 10.2818 19.896 10.1765C19.9299 10.0713 19.9825 9.95095 19.9825 9.95095L21.1387 10.1765C21.1387 10.1765 21.8982 8.84175 21.9941 8.88123C22.09 8.92071 22.6164 8.99027 22.6164 8.99027C22.6164 8.99027 22.105 10.6466 22.0035 10.639C21.902 10.6315 21.1387 10.2141 21.1387 10.2141C21.1387 10.2141 21.2008 10.9812 21.0842 10.9718C20.9676 10.9624 19.552 10.5469 19.552 10.5469Z" fill="white"/>
<path d="M27.7939 4.65686C27.7939 4.65686 27.1622 4.36546 26.9197 4.20566C26.6772 4.04586 26.2843 3.86162 26.2128 3.84846C26.1414 3.8353 25.2127 3.94998 25.1563 3.96314C25.0999 3.9763 24.252 4.58542 24.2652 4.65686C24.2783 4.7283 24.4419 4.73394 24.4419 4.73394C24.4419 4.73394 24.2952 4.82418 24.3667 4.9445C24.4381 5.06482 24.628 4.89938 24.7107 4.86742C24.7934 4.83546 25.0736 4.64934 25.1187 4.65686C25.1638 4.66438 25.818 4.86742 25.818 4.86742C25.718 4.91727 25.6136 4.95756 25.506 4.98774C25.3086 5.04602 25.1939 5.09678 25.2522 5.16634C25.3104 5.2359 25.7222 5.2453 25.8312 5.22462C25.9402 5.20394 26.2768 5.44834 26.5512 5.44082C26.7127 5.4382 26.8732 5.41482 27.0288 5.37126L27.7939 4.65686Z" fill="#F47382"/>
<path d="M24.4343 4.7677C24.4265 4.76739 24.4191 4.76401 24.4137 4.7583C24.411 4.7557 24.4089 4.75255 24.4075 4.74908C24.4061 4.7456 24.4055 4.74187 24.4057 4.73813C24.4058 4.7344 24.4068 4.73074 24.4085 4.72741C24.4102 4.72408 24.4126 4.72115 24.4155 4.71882C24.5637 4.5861 24.7207 4.46362 24.8855 4.35222C24.972 4.29394 25.0641 4.23566 25.1657 4.19994C25.3179 4.1473 25.4853 4.14918 25.6319 4.14918C25.6394 4.14918 25.6465 4.15215 25.6518 4.15744C25.6571 4.16273 25.6601 4.1699 25.6601 4.17738C25.6601 4.18486 25.6571 4.19203 25.6518 4.19732C25.6465 4.20261 25.6394 4.20558 25.6319 4.20558C25.4815 4.20558 25.3273 4.2037 25.1826 4.25446C25.0942 4.28454 25.0134 4.33342 24.9175 4.39734C24.7554 4.50869 24.6004 4.62986 24.4531 4.76018C24.4507 4.7627 24.4478 4.76468 24.4446 4.76598C24.4413 4.76727 24.4378 4.76786 24.4343 4.7677Z" fill="#F47382"/>
<path d="M28.1887 4.77135C28.1887 4.77135 27.8823 4.49875 27.6717 4.54951C27.4612 4.60027 26.7937 5.03267 26.6715 5.30151C26.5493 5.57035 26.9009 5.85423 26.9592 5.90687C27.0175 5.95951 28.1887 4.77135 28.1887 4.77135Z" fill="white"/>
<path d="M32.3642 9.78905C32.2721 9.94134 31.7607 10.1632 31.6084 10.2045C31.4562 10.2459 28.6192 10.9528 27.6416 11.0129C26.664 11.0731 26.352 11.2423 26.2749 11.2667C26.1978 11.2912 26.1132 11.5732 26.1132 11.5732C26.1132 11.5732 27.6905 15.6133 27.9011 16.0908C28.1116 16.5683 29.2584 19.0142 29.5066 19.7606C29.7548 20.5069 29.9277 20.8754 29.8506 21.0634C29.7736 21.2514 27.8296 21.8192 27.0795 22.0147C26.3294 22.2102 26.5945 22.5148 26.3294 22.2102C26.0643 21.9057 25.5492 21.3229 25.5492 21.3229C25.5492 21.3229 25.3217 22.2422 25.1694 22.3399C25.0172 22.4377 21.8926 22.9697 21.8118 22.6464C21.7309 22.323 22.0261 19.8565 21.8118 19.4165C21.5974 18.9766 18.9654 14.5774 18.9654 14.5774L17.4445 14.4477C17.4445 14.4477 17.9653 12.6504 18.2191 12.0075C18.4729 11.3645 19.5952 10.5129 19.5952 10.5129C19.5952 10.5129 20.319 11.6954 21.5298 13.378C22.5074 14.7335 23.6899 16.01 24.0772 16.2901C24.1712 16.3559 24.22 16.3653 24.2069 16.3051C24.143 15.9893 23.6711 13.9138 23.3534 12.25C23.0356 10.5862 22.5769 8.98253 22.5769 8.98253C22.5769 8.98253 23.6128 8.54449 23.923 8.56141C23.923 8.56141 25.3744 8.65917 26.4102 8.56141C27.4461 8.46365 29.2133 8.40537 29.2641 8.32077C29.3148 8.23617 29.0516 8.05757 29.0516 8.05757C29.0516 8.05757 28.5591 7.59885 28.1774 7.19841C27.7958 6.79797 27.2863 6.21329 27.0983 6.10425C26.9103 5.99521 26.8013 5.91625 26.9028 5.76397C27.0043 5.61169 27.762 4.79577 27.9406 4.69425C28.1192 4.59273 28.3805 4.71869 28.5177 4.84653C28.655 4.97437 29.783 5.85797 30.6496 6.53665C31.5163 7.21533 32.4582 8.24369 32.5353 8.55013C32.6124 8.85657 32.4582 9.63678 32.3642 9.78905Z" fill="#54355E"/>
<path d="M24.2069 16.3052C24.2069 16.3052 24.1561 17.0459 24.1561 17.2001C24.1561 17.3542 25.6601 21.697 25.6601 21.697L25.4815 21.7741C25.4815 21.7741 21.8249 17.8881 21.7479 17.8111C21.6708 17.734 20.6857 16.3052 20.6857 16.3052L21.8381 17.1869C22.2197 17.4802 24.143 19.6591 24.4626 19.9637C24.7822 20.2682 24.7671 19.9261 24.5509 19.1365C24.3347 18.3469 23.9982 17.2132 24.0001 17.1737C24.002 17.1343 24.0997 16.3052 24.0997 16.3052H24.2069Z" fill="#302342"/>
<path d="M24.7521 17.719C24.8403 17.719 24.9119 17.6475 24.9119 17.5592C24.9119 17.471 24.8403 17.3994 24.7521 17.3994C24.6638 17.3994 24.5923 17.471 24.5923 17.5592C24.5923 17.6475 24.6638 17.719 24.7521 17.719Z" fill="#987BA3"/>
<path d="M25.16 19.0257C25.2483 19.0257 25.3198 18.9541 25.3198 18.8659C25.3198 18.7776 25.2483 18.7061 25.16 18.7061C25.0718 18.7061 25.0002 18.7776 25.0002 18.8659C25.0002 18.9541 25.0718 19.0257 25.16 19.0257Z" fill="#987BA3"/>
<path d="M24.0772 16.2902C22.6728 16.0533 19.9976 13.5473 19.9468 13.4326C19.896 13.3179 20.2194 12.6524 20.2194 12.6524C20.2194 12.6524 19.379 12.4305 19.2926 12.2689C19.2061 12.1072 19.5953 10.5129 19.5953 10.5129C19.5953 10.5129 20.319 11.6955 21.5298 13.3781C22.5074 14.7335 23.6899 16.0101 24.0772 16.2902Z" fill="#987BA3"/>
<path d="M24.4231 12.4644C24.4325 13.5172 24.2069 16.3053 24.2069 16.3053C24.1429 15.9894 23.6711 13.9139 23.3533 12.2501C23.0356 10.5863 22.5769 8.98267 22.5769 8.98267C23.6504 9.15187 24.2275 10.4265 24.2275 10.4265C24.2275 10.4265 23.5489 11.1823 23.5733 11.1785C23.5977 11.1747 24.4231 11.327 24.4231 11.327C24.4231 11.327 24.4155 11.4116 24.4231 12.4644Z" fill="#987BA3"/>
<path d="M24.8405 10.1897C25.0493 10.6275 25.3737 10.9999 25.7786 11.267C25.8921 11.3428 26.0116 11.4095 26.1358 11.4662C26.1677 11.4794 26.1978 11.4324 26.164 11.4174C25.7296 11.2182 25.3578 10.9042 25.0886 10.5093C25.0124 10.3993 24.9457 10.2829 24.8893 10.1615C24.8724 10.1296 24.8254 10.1578 24.8405 10.1897Z" fill="black"/>
<path d="M25.5454 11.5583L26.0793 11.5301C26.1151 11.5282 26.1151 11.4718 26.0793 11.4737L25.5454 11.5019C25.5078 11.5056 25.5078 11.562 25.5454 11.5583Z" fill="black"/>
<path d="M29.2077 8.36597C29.5587 8.33594 29.9123 8.37359 30.2492 8.47689C30.3446 8.5064 30.4381 8.54155 30.5293 8.58217C30.5632 8.59533 30.5914 8.54645 30.5594 8.53329C30.1347 8.3466 29.6699 8.26967 29.2077 8.30957C29.172 8.31333 29.1701 8.36973 29.2077 8.36597Z" fill="black"/>
<path d="M15.8954 9.45459C15.8954 9.45459 17.7923 10.4736 17.3881 12.1298C16.9839 13.7861 15.9593 13.7353 15.9593 13.7353C15.9593 13.7353 16.8241 13.6526 17.0159 12.6449C17.2076 11.6373 17.2321 11.3835 16.7997 10.607C16.3673 9.83059 15.8954 9.45459 15.8954 9.45459Z" fill="#302342"/>
<path d="M12.1805 11.2197C12.1805 11.2197 12.2106 12.8422 13.0679 13.5942C13.9252 14.3462 11.0337 14.5116 11.7087 17.0346C12.3836 19.5575 14.1433 20.6272 15.7807 19.9128C17.4182 19.1984 17.2885 17.3278 17.2885 17.3278C17.2885 17.3278 17.0347 19.2248 15.3521 19.6966C13.6695 20.1685 12.831 18.4859 12.831 18.4859C12.831 18.4859 13.7334 19.9298 15.3784 19.0574C17.0234 18.1851 16.6643 16.8165 16.6643 16.8165C16.6643 16.8165 16.4387 14.4251 15.8954 12.9004C15.3521 11.3758 12.1805 11.2197 12.1805 11.2197Z" fill="#302342"/>
<path d="M16.012 8.57087C15.9365 8.45325 15.8447 8.34692 15.7394 8.25503C15.4273 7.98995 15.0701 7.94671 14.7975 7.96739C14.6451 7.97875 14.4951 8.01167 14.3519 8.06515C14.3519 8.06515 14.1884 8.03131 13.9421 8.05951H13.9214C13.6254 8.09542 13.3427 8.2032 13.098 8.37347C13.0197 8.42823 12.945 8.48788 12.8742 8.55207C12.7905 8.63025 12.7126 8.71445 12.6411 8.80399C12.6196 8.82914 12.5995 8.8555 12.581 8.88295C12.5509 8.92431 12.5208 8.96755 12.4907 9.01267L12.487 9.01831C12.4362 9.09727 12.3854 9.18375 12.3384 9.27587C12.3304 9.28907 12.3235 9.3029 12.3178 9.31723C12.3046 9.34355 12.2914 9.36987 12.2802 9.39619C12.25 9.46659 12.2243 9.5388 12.2031 9.61239C12.1575 9.76649 12.131 9.92559 12.1241 10.0861C12.121 10.1833 12.1235 10.2806 12.1316 10.3775C12.1316 10.3775 12.064 10.8569 12.2482 11.4961C12.2534 11.5096 12.2578 11.5235 12.2614 11.5375C12.3039 11.6761 12.3554 11.8117 12.4155 11.9436C12.4418 12.0019 12.47 12.0601 12.502 12.1203C12.5854 12.2544 12.6845 12.3781 12.7972 12.4888L12.9137 12.5941C12.9774 12.6485 13.0446 12.6988 13.1149 12.7445C13.4683 12.9757 13.8913 13.0979 14.3218 13.0528H14.3237L14.4384 13.0359H14.4422C14.5605 13.0143 14.6764 12.9809 14.7881 12.9362C14.8523 12.9096 14.9151 12.8795 14.9761 12.846L14.9874 12.8403L15.0118 12.8272C15.0734 12.7909 15.133 12.7514 15.1904 12.7087C15.2318 12.6768 15.2694 12.6429 15.3088 12.6072C15.3088 12.6053 15.3088 12.6053 15.3107 12.6053C15.4874 12.438 15.6378 12.2312 15.7638 12.0075C15.7882 11.9643 15.8127 11.921 15.8352 11.8759L15.871 11.8063C15.9123 11.7217 15.9499 11.6371 15.9856 11.5507L16.0044 11.5037C16.0138 11.4811 16.0232 11.4585 16.0308 11.436C16.0552 11.3721 16.0778 11.31 16.1003 11.248L16.1248 11.1728L16.1473 11.1051C16.2408 10.8077 16.3143 10.5043 16.3673 10.1971C16.371 10.1726 16.3748 10.1482 16.3786 10.1294C16.3898 10.0523 16.3955 10.0091 16.3955 10.0091L16.388 10.0015C16.3898 9.99403 16.3898 9.98839 16.3917 9.98087C16.4274 9.69323 16.4068 9.18187 16.012 8.57087Z" fill="#302342"/>
<path d="M19.6309 15.9368C19.2888 16.121 18.9034 16.2263 18.5011 16.2752C17.4652 16.3974 16.3146 16.1323 15.5025 15.7864C14.8539 14.9761 14.9967 14.2504 15.1039 13.8706C15.2524 13.6864 15.3671 13.5604 15.3784 13.5492H15.3803C15.3188 13.4003 15.2485 13.2553 15.1697 13.1149C15.1249 13.0318 15.0734 12.9526 15.0155 12.878C14.9328 12.7727 14.8125 12.6881 14.7016 12.6223C14.6471 12.581 14.5869 12.5546 14.4929 12.5189L14.4835 12.5152L14.4252 12.4907L14.4139 12.487H14.4102C14.2603 12.4234 14.1323 12.3176 14.0417 12.1824C14.0417 12.1824 13.8819 12.4851 13.6187 12.4738C13.3555 12.4625 13.1205 12.2595 13.0716 11.9662C13.0227 11.6729 13.4514 11.5244 13.5134 11.547C13.5755 11.5695 13.6826 11.6804 13.7165 11.6842C13.7503 11.688 13.8105 11.7086 13.7729 11.656C13.7353 11.6034 13.6018 11.2631 13.6018 11.2631C13.6018 11.2631 14.0492 10.6314 14.2673 9.99784C14.4854 9.36428 14.4609 8.836 14.5343 8.8078C14.6076 8.7796 14.7016 8.80404 14.7241 8.82096C14.7467 8.83788 15.5137 9.28532 15.8277 9.27028C15.8277 9.27028 16.6718 10.59 16.7959 11.2198C16.92 11.8496 16.5872 12.1053 16.5252 12.1617L16.4631 12.22C16.4631 12.22 16.5985 12.4588 16.7038 12.5227C16.8091 12.5866 17.0666 12.4945 17.3035 12.5283L18.0273 12.5734C18.0611 12.5791 18.0423 12.7596 18.0423 12.7596L18.1232 12.7633C18.2587 12.7872 18.3921 12.8225 18.5217 12.8686C18.9899 13.0265 19.1196 13.457 19.1196 13.457C19.1196 13.457 21.6031 14.8802 19.6309 15.9368Z" fill="#FFB6B1"/>
<path d="M16.4632 12.218C16.4632 12.218 16.1624 12.4455 15.7864 12.5489C15.4104 12.6523 14.9517 12.5771 14.9705 12.6015C14.9893 12.626 15.745 13.002 16.3316 12.8967C16.9181 12.7914 16.4632 12.218 16.4632 12.218Z" fill="#F47382"/>
<path d="M13.598 11.8383C13.598 11.8383 13.4213 11.671 13.3198 11.8383C13.2183 12.0056 13.41 12.1917 13.5604 12.2368C13.7108 12.282 13.7766 12.1992 13.724 12.1541C13.6714 12.109 13.6187 12.1353 13.6037 12.0846C13.5886 12.0338 13.6168 12.0394 13.6469 12.0338C13.677 12.0282 13.6996 11.9022 13.598 11.8383Z" fill="#F47382"/>
<path d="M16.1943 11.2424C16.2189 11.3493 16.2117 11.4611 16.1736 11.5639C16.1512 11.6302 16.1145 11.6909 16.0662 11.7415C16.0178 11.7921 15.959 11.8315 15.8937 11.857C15.8285 11.8824 15.7585 11.8933 15.6886 11.8888C15.6188 11.8843 15.5507 11.8645 15.4893 11.8309C15.3946 11.7811 15.3153 11.7063 15.26 11.6147C15.2535 11.6041 15.2493 11.5923 15.2476 11.58C15.246 11.5677 15.247 11.5551 15.2506 11.5432C15.2533 11.5315 15.2588 11.5206 15.2667 11.5114C15.2745 11.5023 15.2845 11.4951 15.2957 11.4906L16.0834 11.1766C16.0947 11.1722 16.107 11.1705 16.1191 11.1718C16.1312 11.1731 16.1428 11.1774 16.153 11.1842C16.1637 11.1903 16.1729 11.1987 16.1801 11.2087C16.1872 11.2188 16.1921 11.2303 16.1943 11.2424Z" fill="#CE3A81"/>
<path d="M16.1529 11.1842C16.0834 11.2876 15.933 11.3966 15.745 11.4718C15.557 11.547 15.3727 11.5714 15.2505 11.5432C15.2533 11.5315 15.2588 11.5206 15.2667 11.5114C15.2745 11.5023 15.2845 11.4951 15.2957 11.4906L16.0834 11.1766C16.0947 11.1722 16.107 11.1705 16.1191 11.1718C16.1312 11.1731 16.1428 11.1774 16.1529 11.1842Z" fill="white"/>
<path d="M16.1736 11.5638C16.1512 11.6301 16.1145 11.6907 16.0662 11.7414C16.0178 11.792 15.959 11.8314 15.8937 11.8569C15.8285 11.8823 15.7585 11.8932 15.6886 11.8886C15.6188 11.8841 15.5507 11.8644 15.4893 11.8308C15.564 11.7255 15.6679 11.6444 15.7882 11.5976C15.9102 11.5471 16.0447 11.5352 16.1736 11.5638Z" fill="#F47382"/>
<path d="M14.97 10.8971C15.0453 10.8672 15.0724 10.7577 15.0305 10.6525C14.9887 10.5474 14.8937 10.4864 14.8185 10.5163C14.7433 10.5463 14.7162 10.6558 14.758 10.761C14.7999 10.8661 14.8948 10.9271 14.97 10.8971Z" fill="#302342"/>
<path d="M14.8097 10.6966C14.8328 10.6874 14.841 10.6533 14.8279 10.6205C14.8149 10.5877 14.7855 10.5686 14.7624 10.5778C14.7392 10.587 14.731 10.6211 14.7441 10.6539C14.7571 10.6867 14.7865 10.7058 14.8097 10.6966Z" fill="white"/>
<path d="M15.9634 10.4221C16.0271 10.3967 16.0479 10.2988 16.0099 10.2032C15.9719 10.1077 15.8895 10.0509 15.8258 10.0762C15.7621 10.1015 15.7413 10.1995 15.7793 10.295C15.8173 10.3905 15.8998 10.4474 15.9634 10.4221Z" fill="#302342"/>
<path d="M15.8386 10.2435C15.8579 10.2358 15.864 10.2054 15.8521 10.1754C15.8403 10.1455 15.815 10.1274 15.7957 10.1351C15.7764 10.1427 15.7703 10.1732 15.7822 10.2031C15.794 10.233 15.8193 10.2511 15.8386 10.2435Z" fill="white"/>
<path d="M14.8389 10.263C14.7505 10.216 14.6527 10.2893 14.617 10.3664C14.5813 10.4435 14.4741 10.3777 14.508 10.3043C14.5738 10.1633 14.7561 10.075 14.9009 10.1539C14.9723 10.1934 14.9084 10.3025 14.8389 10.263Z" fill="#302342"/>
<path d="M15.8296 9.8832C15.7882 9.85688 15.7149 9.8456 15.6829 9.89824C15.651 9.95088 15.5325 9.90388 15.5739 9.83432C15.6416 9.72716 15.7901 9.71024 15.8916 9.77416C15.9612 9.8174 15.8973 9.92644 15.8296 9.8832Z" fill="#302342"/>
<path d="M15.6303 10.5393C15.6494 10.5863 15.6839 10.6254 15.7281 10.6502C15.777 10.6765 15.8334 10.6784 15.8841 10.6991C15.911 10.7096 15.9332 10.7295 15.9467 10.755C15.9601 10.7805 15.9639 10.8101 15.9574 10.8382C15.9443 10.9002 15.8935 10.9435 15.8616 10.9961C15.8296 11.0488 15.7619 11.0018 15.7901 10.9548C15.8183 10.9078 15.8691 10.8683 15.8766 10.8156C15.8841 10.763 15.8164 10.7649 15.7845 10.7574C15.7317 10.7473 15.6824 10.7239 15.6412 10.6893C15.6001 10.6548 15.5685 10.6102 15.5495 10.56C15.5481 10.5546 15.5477 10.5491 15.5485 10.5437C15.5492 10.5382 15.5511 10.533 15.5539 10.5283C15.5567 10.5235 15.5604 10.5194 15.5648 10.5161C15.5692 10.5129 15.5742 10.5105 15.5796 10.5092C15.5849 10.5075 15.5905 10.5069 15.596 10.5076C15.6016 10.5082 15.6069 10.51 15.6117 10.5128C15.6165 10.5157 15.6206 10.5195 15.6238 10.5241C15.627 10.5286 15.6293 10.5338 15.6303 10.5393Z" fill="#F47382"/>
<path d="M12.2613 11.5394C12.2584 11.5252 12.2539 11.5114 12.2482 11.498C12.2534 11.5115 12.2578 11.5254 12.2613 11.5394Z" fill="white"/>
<path d="M12.2726 11.5376C12.269 11.523 12.2646 11.5085 12.2594 11.4944L12.2388 11.5C12.242 11.5148 12.2464 11.5292 12.2519 11.5433L12.2726 11.5376Z" fill="black"/>
<path d="M14.0981 10.0486C14.0981 10.0486 13.8857 10.7743 14.1715 11.4191C14.4572 12.0639 15.0287 12.0959 15.0287 12.0959C14.9362 12.1298 14.8378 12.1442 14.7395 12.1384C14.6411 12.1326 14.5451 12.1066 14.4572 12.0621C14.1658 11.9098 14.0869 11.7613 14.0869 11.7613C14.0869 11.7613 14.5945 12.5415 15.0193 12.8366C15.4442 13.1318 15.6585 13.1769 15.6585 13.1769C15.6585 13.1769 14.4798 13.0171 14.0079 12.4061C13.536 11.7951 13.3668 11.1897 13.3668 11.1897L14.0981 10.0486Z" fill="#302342"/>
<path d="M14.3519 8.06529C14.3519 8.06529 12.6938 8.59169 12.5283 10.2987C12.3629 12.0058 13.3123 12.7014 13.7014 12.8837C14.0906 13.0661 14.3237 13.0567 14.3237 13.0567L14.4422 13.0398C14.4422 13.0398 13.5586 12.7841 13.2521 12.3517C12.9457 11.9193 12.5998 10.8232 12.8498 10.0224C13.0998 9.22149 13.7165 8.68945 14.0511 8.40745C14.3858 8.12545 14.7975 7.96753 14.7975 7.96753L14.3519 8.06529Z" fill="white"/>
<path d="M18.4879 16.5328C17.798 17.0911 16.7903 17.2885 15.9612 16.5666C15.7651 16.3993 15.5873 16.2115 15.4311 16.0064C14.7712 15.1303 14.9178 14.3463 15.0269 13.9365C15.0494 13.85 15.0701 13.7823 15.0814 13.7316C15.1415 13.4759 15.1133 13.2315 15.0945 13.1187C15.087 13.0792 15.0814 13.0566 15.0814 13.0566C15.0814 13.0566 19.1159 13.489 19.2832 14.8671C19.3546 15.4668 19.0162 16.106 18.4879 16.5328Z" fill="#FFB6B1"/>
<path d="M32.2194 35.0865C32.2044 36.598 31.7175 37.8783 30.9392 38.9236C30.7547 39.1707 30.5543 39.4056 30.3394 39.6267C29.4389 40.5573 28.2921 41.2567 27.0814 41.7248C26.9404 41.7793 26.7956 41.832 26.6528 41.879C26.4328 41.9542 26.2128 42.02 25.991 42.0801C24.7427 42.4148 23.9305 42.4279 23.28 42.3226C22.2968 42.1647 21.682 41.7361 20.4864 41.7361C18.4992 41.7361 17.9258 42.96 15.557 41.5443C13.1882 40.1287 11.5827 41.5443 10.3964 40.7434C9.21012 39.9426 11.3909 40.781 12.8423 39.482C14.2936 38.1829 15.3276 36.0791 15.9762 32.6406C16.6248 29.2021 16.0533 26.8314 16.8937 23.5433C17.734 20.2552 17.9446 20.0089 18.0217 19.3979C18.0988 18.7869 17.296 18.2511 17.1813 18.1176C17.0666 17.9841 16.5083 17.3149 16.1266 16.8223C15.9048 16.5365 15.8052 16.4031 15.7845 16.3241C15.7638 16.2451 15.7958 16.2433 15.8446 16.2113C15.965 16.1342 16.3466 16.0195 16.4613 15.9951C16.4613 15.9951 15.8315 14.7787 16.1229 13.8049C16.4143 12.8311 16.9708 12.5998 17.1042 12.5697C17.2377 12.5397 17.4558 12.6261 17.4671 12.6525C17.4784 12.6788 16.8561 12.8311 16.482 13.7729C16.1078 14.7148 16.9068 15.7432 16.9068 15.7432C17.4596 15.4795 17.9908 15.1727 18.4954 14.8257L20.0916 13.7297C20.0916 13.7297 20.6781 14.1884 20.6781 14.8351C20.6781 15.4819 20.7796 15.8372 20.789 15.8955C20.7984 15.9537 21.0522 16.6606 21.1876 16.8223C21.323 16.984 21.8249 17.2979 21.9697 17.4502C22.1144 17.6025 22.325 17.9259 22.419 18.0105C22.513 18.0951 25.5191 21.0862 28.0421 24.2709C30.565 27.4556 32.2589 31.2645 32.2194 35.0865Z" fill="#F2C9D0"/>
<path d="M24.017 42.3037C23.7746 42.3041 23.5326 42.2853 23.2932 42.2473C22.9172 42.1853 22.5901 42.0837 22.2723 41.9841C21.761 41.8243 21.2327 41.6589 20.4863 41.6589C19.8001 41.6589 19.2719 41.8036 18.8037 41.9333C18.4014 42.0443 18.0217 42.1495 17.5949 42.1495C16.9989 42.1495 16.3635 41.9352 15.5965 41.4784C14.8294 41.0215 14.0605 40.8035 13.1882 40.8035C12.8216 40.8035 12.4888 40.8392 12.1655 40.873C11.891 40.9031 11.6315 40.9294 11.3909 40.9294C10.9905 40.9294 10.6972 40.8523 10.4415 40.6775C10.2291 40.5346 10.1633 40.4669 10.1426 40.4387C10.2027 40.4143 10.3757 40.3993 10.5299 40.3861C11.1183 40.3335 12.1034 40.2489 12.8949 39.5401C14.4215 38.1752 15.4235 35.9869 16.0533 32.6555C16.3541 31.0594 16.3936 29.6889 16.4331 28.3635C16.4782 26.7993 16.5195 25.3235 16.9707 23.5639C17.4313 21.7609 17.7039 20.8698 17.8656 20.3378C18.001 19.8922 18.063 19.6892 18.0987 19.4072C18.1664 18.8676 17.6193 18.3976 17.358 18.172C17.3167 18.1391 17.2771 18.1039 17.2396 18.0667C17.1136 17.9182 16.5571 17.2508 16.1868 16.7733C16.0063 16.5421 15.8785 16.3729 15.8597 16.3052C15.8597 16.3014 15.8578 16.2995 15.8578 16.2977L15.8879 16.2751C15.9931 16.2074 16.3635 16.0946 16.4763 16.0721L16.5778 16.0514L16.5308 15.9593C16.5233 15.948 15.9179 14.7598 16.1981 13.8273C16.5064 12.8009 17.0967 12.6505 17.123 12.6448C17.1377 12.6409 17.1529 12.639 17.1681 12.6392C17.2101 12.6407 17.2517 12.647 17.2922 12.658C17.0798 12.7764 16.6831 13.0565 16.4105 13.7446C16.0251 14.7166 16.8128 15.7468 16.8448 15.7901L16.8843 15.8389L16.9388 15.8145C17.4952 15.5481 18.0301 15.2388 18.5387 14.8895L20.0859 13.8292C20.2175 13.9458 20.601 14.3349 20.601 14.835C20.601 15.3915 20.6743 15.7355 20.7025 15.8653C20.7063 15.8841 20.7101 15.901 20.7119 15.9066C20.7213 15.9743 20.9808 16.6962 21.1274 16.8729C21.2064 16.9651 21.3869 17.0967 21.5617 17.2264C21.7027 17.3298 21.8493 17.4369 21.9133 17.5046C21.9772 17.5723 22.0731 17.6983 22.152 17.8035C22.231 17.9088 22.3156 18.0216 22.3663 18.0686C22.4171 18.1156 25.427 21.0935 27.98 24.3177C29.2866 25.9684 30.3093 27.6999 31.0181 29.4689C31.7833 31.3696 32.1611 33.2609 32.1423 35.0845C32.1273 36.4926 31.7024 37.7673 30.8752 38.8765C30.693 39.1208 30.4952 39.3532 30.283 39.5721C29.4427 40.4406 28.3259 41.1607 27.0532 41.6513C26.9141 41.7059 26.7712 41.7566 26.6283 41.8055C26.4121 41.8788 26.1903 41.9465 25.9703 42.0048C25.2202 42.2059 24.581 42.3037 24.017 42.3037Z" fill="white"/>
<path d="M32.2195 35.0865C32.2044 36.598 31.7175 37.8783 30.9392 38.9236C31.9168 34.1315 29.9935 29.33 29.8977 29.0949C29.9898 29.345 31.9581 34.688 30.6158 38.7694C30.5143 39.0721 30.4241 39.3579 30.3395 39.6267C29.4389 40.5573 28.2921 41.2567 27.0814 41.7248C28.4689 36.9345 27.6041 28.9013 26.9837 29.048C26.3633 29.1946 27.3277 30.5764 27.5571 35.2388C27.6736 37.5944 27.1754 40.0384 26.6528 41.879C26.4328 41.9542 26.2129 42.02 25.991 42.0801C24.7427 42.4148 23.9305 42.4279 23.2801 42.3226C23.9362 40.6701 24.6468 38.1697 24.9589 34.6654C25.6075 27.3654 21.3155 19.5821 21.1387 19.3528C20.962 19.1234 20.0916 19.0727 19.9036 19.0595C19.7156 19.0463 20.7552 18.691 21.1387 18.3545C21.5223 18.018 20.5635 17.8488 20.4807 17.2754C20.398 16.702 19.2249 16.8561 18.1401 16.4745C17.6194 16.2903 16.6512 16.2827 15.7845 16.3241C15.7695 16.2696 15.7958 16.2433 15.8447 16.2113C15.965 16.1342 16.3466 16.0195 16.4613 15.9951C16.4613 15.9951 15.8315 14.7787 16.1229 13.8049C16.4143 12.8311 16.9708 12.5998 17.1043 12.5697C17.2377 12.5397 17.4558 12.6261 17.4671 12.6525C17.4784 12.6788 16.8561 12.8311 16.482 13.7729C16.1079 14.7148 16.9069 15.7432 16.9069 15.7432C17.4596 15.4795 17.9908 15.1727 18.4955 14.8257L20.0916 13.7297C20.0916 13.7297 20.6781 14.1884 20.6781 14.8351C20.6781 15.4819 20.7797 15.8372 20.7891 15.8955C20.7985 15.9537 21.0523 16.6606 21.1876 16.8223C21.323 16.984 21.8249 17.2979 21.9697 17.4502C22.1145 17.6025 22.325 17.9259 22.419 18.0105C22.513 18.0951 25.5191 21.0862 28.0421 24.2709C30.5651 27.4556 32.2589 31.2645 32.2195 35.0865Z" fill="#FFEBF1"/>
<path d="M18.125 19.0689C18.5067 19.1384 18.8958 19.1234 19.2756 19.0501C19.6554 18.9767 20.0069 18.847 20.351 18.6891C20.5427 18.6001 20.7307 18.5042 20.915 18.4015C20.9789 18.3676 20.9225 18.2699 20.8586 18.3056C20.539 18.4804 20.21 18.644 19.8659 18.7681C19.5219 18.8921 19.1496 18.9805 18.7774 18.9993C18.5692 19.0096 18.3604 18.9964 18.1551 18.9598C18.1407 18.9567 18.1257 18.959 18.1128 18.9663C18.1 18.9736 18.0903 18.9853 18.0856 18.9993C18.0836 19.0065 18.083 19.0139 18.0839 19.0213C18.0848 19.0287 18.0872 19.0358 18.0908 19.0423C18.0945 19.0488 18.0994 19.0544 18.1053 19.059C18.1112 19.0635 18.1179 19.0669 18.125 19.0689Z" fill="#F4C9D0"/>
<path d="M19.3546 18.674C19.7745 18.6193 20.1821 18.4934 20.5597 18.3018C20.6605 18.2504 20.754 18.1859 20.8379 18.11C20.8906 18.0611 20.8097 17.9803 20.7571 18.031C20.618 18.1626 20.4337 18.2435 20.2589 18.3149C20.0681 18.3933 19.8713 18.4562 19.6704 18.5029C19.5558 18.5292 19.4411 18.5499 19.3245 18.5668C19.2944 18.5706 19.2775 18.6082 19.285 18.6364C19.2894 18.6505 19.2991 18.6624 19.3121 18.6694C19.3251 18.6765 19.3404 18.6781 19.3546 18.674Z" fill="#F4C9D0"/>
<path d="M20.6311 14.8671C20.5672 15.2393 20.2683 15.5044 19.9487 15.6736C19.8509 15.7262 19.7494 15.7714 19.646 15.8146C19.6318 15.819 19.6198 15.8286 19.6125 15.8415C19.6051 15.8545 19.603 15.8697 19.6065 15.8842C19.614 15.9105 19.6479 15.9349 19.6761 15.9236C20.0483 15.7695 20.4281 15.5664 20.6311 15.1998C20.684 15.1057 20.7209 15.0034 20.7402 14.8972C20.7422 14.89 20.7427 14.8825 20.7418 14.8751C20.7409 14.8678 20.7386 14.8606 20.7349 14.8542C20.7312 14.8477 20.7263 14.842 20.7204 14.8375C20.7146 14.8329 20.7079 14.8296 20.7007 14.8276C20.6862 14.8241 20.671 14.8262 20.6581 14.8335C20.6451 14.8409 20.6355 14.8529 20.6311 14.8671Z" fill="#F4C9D0"/>
<path d="M19.3884 23.703C19.5857 24.1751 19.7191 24.6714 19.7851 25.1788C19.8515 25.6886 19.8653 26.2039 19.8265 26.7166C19.7848 27.238 19.7024 27.7553 19.5802 28.2639C19.4536 28.7914 19.3005 29.3122 19.1215 29.8243C18.9447 30.3394 18.7492 30.847 18.5518 31.3546L18.4785 31.5426C18.4522 31.6103 18.5612 31.6403 18.5875 31.5727C18.7868 31.0632 18.9842 30.5537 19.1666 30.0386C19.3489 29.5235 19.5144 28.9989 19.6479 28.4669C19.7786 27.9525 19.8704 27.429 19.9223 26.9009C19.9734 26.3863 19.9728 25.868 19.9205 25.3536C19.8641 24.8404 19.7531 24.3328 19.5689 23.8496C19.5463 23.7913 19.5219 23.7312 19.4975 23.6729C19.4927 23.6589 19.483 23.6472 19.4702 23.6399C19.4574 23.6326 19.4423 23.6303 19.4279 23.6334C19.4016 23.6409 19.3771 23.6748 19.3884 23.703Z" fill="#F4C9D0"/>
<path d="M19.0876 31.7438C19.0068 32.0334 18.9147 32.3172 18.8113 32.5992C18.7079 32.8812 18.597 33.1576 18.4729 33.4302C18.3488 33.7028 18.2153 33.9716 18.0706 34.2348C17.9258 34.498 17.7735 34.7556 17.61 35.0056C17.4464 35.2557 17.2716 35.5038 17.0892 35.7445C17.0666 35.7708 17.046 35.799 17.0234 35.8272C17.0135 35.838 17.008 35.8521 17.008 35.8667C17.008 35.8813 17.0135 35.8954 17.0234 35.9062C17.0441 35.925 17.0854 35.9306 17.1042 35.9062C17.2922 35.6655 17.4708 35.4186 17.64 35.1654C17.8092 34.9123 17.9665 34.6547 18.1119 34.3928C18.2611 34.1271 18.3989 33.8576 18.5255 33.5844C18.6534 33.308 18.7718 33.026 18.879 32.7421C18.9861 32.4582 19.0801 32.1744 19.1647 31.8848C19.1741 31.8472 19.1854 31.8115 19.1948 31.7739C19.2155 31.7044 19.1064 31.6743 19.0876 31.7438Z" fill="#F4C9D0"/>
<path d="M15.7732 38.7298C15.5604 38.9859 15.3264 39.2236 15.0738 39.4404C15.0024 39.5006 14.9291 39.5608 14.8539 39.619C14.8294 39.6378 14.8351 39.6792 14.8539 39.6999C14.8649 39.7099 14.8793 39.7155 14.8943 39.7155C14.9092 39.7155 14.9236 39.7099 14.9347 39.6999C15.197 39.4952 15.4417 39.2688 15.666 39.0231C15.7299 38.9542 15.792 38.8827 15.8521 38.8088C15.8625 38.7982 15.8683 38.7841 15.8683 38.7693C15.8683 38.7545 15.8625 38.7404 15.8521 38.7298C15.8471 38.7245 15.8409 38.7202 15.8341 38.7173C15.8274 38.7144 15.8201 38.7129 15.8127 38.7129C15.8053 38.7129 15.798 38.7144 15.7912 38.7173C15.7844 38.7202 15.7783 38.7245 15.7732 38.7298Z" fill="#F4C9D0"/>
<path d="M21.4226 32.8323C21.3731 33.2844 21.2971 33.7332 21.1951 34.1765C21.0932 34.62 20.9664 35.0575 20.8154 35.4868C20.6636 35.9147 20.4885 36.3339 20.2909 36.7427C19.8943 37.561 19.4061 38.3318 18.8357 39.04C18.7981 39.0833 18.7624 39.1284 18.7248 39.1735C18.7196 39.1788 18.7155 39.1851 18.7128 39.192C18.71 39.1989 18.7087 39.2062 18.7087 39.2137C18.7088 39.2211 18.7104 39.2284 18.7133 39.2352C18.7162 39.2421 18.7205 39.2482 18.7258 39.2534C18.7311 39.2586 18.7373 39.2627 18.7442 39.2655C18.7511 39.2682 18.7585 39.2696 18.7659 39.2695C18.7733 39.2694 18.7807 39.2679 18.7875 39.2649C18.7943 39.262 18.8005 39.2578 18.8057 39.2525C19.1009 38.8973 19.3758 38.5257 19.6291 38.1395C19.8813 37.7546 20.1111 37.3553 20.3172 36.9438C20.5233 36.5328 20.706 36.1103 20.8643 35.6786C21.1829 34.8147 21.4011 33.9171 21.5147 33.0034C21.5223 32.9451 21.5298 32.8887 21.5354 32.8323C21.5411 32.7759 21.5072 32.7759 21.479 32.7759C21.4508 32.7759 21.4264 32.8003 21.4226 32.8323Z" fill="#F4C9D0"/>
<path d="M19.223 39.8767C19.0122 40.1023 18.7894 40.3163 18.5556 40.5178C18.3246 40.7172 18.0837 40.9048 17.8337 41.0799C17.6908 41.1796 17.5442 41.2754 17.3957 41.3657C17.3355 41.4052 17.3919 41.5029 17.4539 41.4634C17.7177 41.301 17.9731 41.1253 18.2191 40.937C18.4673 40.7453 18.7054 40.5422 18.9335 40.3279C19.0613 40.2076 19.1835 40.0835 19.3039 39.9576C19.3527 39.9049 19.2738 39.8241 19.223 39.8767Z" fill="#F4C9D0"/>
<path d="M22.2197 24.9702C22.6183 26.0024 22.8833 27.0796 23.0356 28.1738C23.1879 29.2679 23.2236 30.3978 23.1785 31.5108C23.1334 32.6237 23.0037 33.7216 22.8157 34.8139C22.6371 35.846 22.4021 36.8706 22.058 37.8595C21.714 38.8484 21.2628 39.7922 20.6593 40.6438C20.586 40.7491 20.5108 40.8506 20.4318 40.9521C20.3886 41.0085 20.4863 41.0649 20.5296 41.0085C21.1669 40.1813 21.6538 39.2488 22.0261 38.275C22.3983 37.3012 22.6615 36.2596 22.857 35.2219C23.0627 34.1355 23.2002 33.0373 23.2687 31.9338C23.3364 30.8152 23.3233 29.6909 23.1973 28.5761C23.0713 27.4612 22.842 26.3821 22.4754 25.335C22.429 25.2034 22.3801 25.0718 22.3287 24.9402C22.3024 24.8744 22.1934 24.9026 22.2197 24.9702Z" fill="#F4C9D0"/>
<path d="M22.6709 39.3128C22.4914 39.7373 22.243 40.1292 21.9358 40.4728C21.8493 40.5686 21.7572 40.6608 21.6632 40.7491C21.6087 40.7999 21.6895 40.8788 21.7422 40.83C22.0905 40.5067 22.3822 40.1273 22.6051 39.7076C22.6692 39.5892 22.7269 39.4674 22.7781 39.3429C22.7912 39.3147 22.7668 39.2808 22.7405 39.2733C22.7333 39.2713 22.7258 39.2708 22.7184 39.2717C22.7111 39.2726 22.7039 39.2749 22.6975 39.2786C22.691 39.2823 22.6853 39.2872 22.6808 39.293C22.6762 39.2989 22.6729 39.3056 22.6709 39.3128Z" fill="#F4C9D0"/>
<path d="M23.7519 22.3965C24.2307 22.7206 24.6816 23.0841 25.0999 23.4832C25.5172 23.8813 25.9078 24.3065 26.2692 24.7559C26.634 25.209 26.9742 25.6809 27.2957 26.164C27.6172 26.6472 27.9274 27.1548 28.2226 27.6605C28.5177 28.1662 28.8054 28.6795 29.0874 29.1927L29.1926 29.3807C29.2265 29.4446 29.3242 29.3882 29.2904 29.3243C29.0046 28.8092 28.7189 28.2941 28.4256 27.7827C28.1323 27.2714 27.824 26.7656 27.5006 26.2712C27.1773 25.7768 26.8426 25.3011 26.4798 24.8405C26.1202 24.3817 25.7322 23.9459 25.318 23.5358C24.9047 23.1285 24.4589 22.7557 23.985 22.421L23.8083 22.2988C23.7482 22.2593 23.6918 22.357 23.7519 22.3965Z" fill="#F4C9D0"/>
<path d="M29.3806 30.1384C29.5801 30.6393 29.7521 31.1508 29.8958 31.6706C30.0419 32.1916 30.15 32.7225 30.2191 33.2592C30.2864 33.7795 30.3097 34.3047 30.2887 34.829C30.2678 35.3401 30.1986 35.8481 30.0819 36.3461C29.9658 36.845 29.7943 37.3292 29.5705 37.79C29.5442 37.8464 29.5141 37.9028 29.4859 37.9592C29.4577 38.0156 29.5498 38.0814 29.5837 38.0156C29.8225 37.5566 30.0092 37.0723 30.1402 36.5717C30.2726 36.0728 30.3557 35.5622 30.3883 35.047C30.4231 34.5194 30.4118 33.9897 30.3545 33.4641C30.2961 32.9213 30.1987 32.3835 30.0631 31.8548C29.9263 31.3282 29.76 30.8098 29.5649 30.3019C29.5386 30.238 29.5141 30.1741 29.4897 30.1102C29.4877 30.103 29.4844 30.0963 29.4798 30.0904C29.4753 30.0845 29.4696 30.0796 29.4631 30.076C29.4566 30.0723 29.4495 30.0699 29.4421 30.069C29.4348 30.0681 29.4273 30.0687 29.4201 30.0707C29.4129 30.0722 29.406 30.0752 29.4 30.0795C29.394 30.0838 29.389 30.0893 29.3853 30.0957C29.3816 30.1021 29.3792 30.1092 29.3784 30.1165C29.3776 30.1239 29.3784 30.1313 29.3806 30.1384Z" fill="#F4C9D0"/>
<path d="M17.4295 12.6769C17.4295 12.6769 18.58 12.0659 19.1327 11.7595C19.6855 11.453 20.8059 10.8684 20.9582 10.6992C21.1105 10.53 21.5279 9.67831 21.9941 9.05039C22.4603 8.42247 23.2011 7.35275 23.6598 6.86771C24.1185 6.38267 24.3215 6.32063 24.487 5.93711C24.6524 5.55359 24.8066 5.13623 24.8442 4.93131C24.8818 4.72639 25.3988 4.33911 25.3988 4.33911L26.335 5.20579C26.335 5.20579 26.0605 5.60059 25.786 5.81115C25.5116 6.02171 25.2897 6.44095 25.2897 6.44095C25.2897 6.44095 24.831 7.45427 24.2952 8.66499C23.7594 9.87571 23.2123 10.9567 22.9454 11.2368C22.6784 11.517 22.372 11.6448 22.2441 11.7219C22.1163 11.799 21.0861 13.1488 19.9656 13.9252C18.8451 14.7017 17.0478 15.7263 16.9068 15.7432C16.7658 15.7601 16.3015 15.1454 16.2582 14.3464C16.215 13.5474 17.0835 12.786 17.4295 12.6769Z" fill="#FFB6B1"/>
<path d="M16.9125 15.747L16.8993 15.7432C16.8961 15.7418 16.8931 15.7397 16.8907 15.7371C16.8882 15.7346 16.8863 15.7315 16.8851 15.7282C16.8839 15.7248 16.8833 15.7213 16.8835 15.7177C16.8837 15.7142 16.8846 15.7107 16.8862 15.7075C17.0938 15.2414 17.4271 14.8423 17.8487 14.5551C17.8518 14.5529 17.8553 14.5514 17.8589 14.5507C17.8626 14.5499 17.8664 14.5498 17.87 14.5505C17.8737 14.5512 17.8772 14.5527 17.8803 14.5547C17.8835 14.5568 17.8861 14.5595 17.8882 14.5626C17.892 14.5689 17.8934 14.5765 17.892 14.5838C17.8906 14.591 17.8866 14.5976 17.8807 14.6021C17.4678 14.8835 17.1411 15.274 16.9369 15.7301C16.9348 15.7349 16.9314 15.739 16.9271 15.742C16.9228 15.745 16.9177 15.7467 16.9125 15.747Z" fill="#F47382"/>
<path d="M16.9332 15.7242C16.9288 15.7244 16.9244 15.7235 16.9204 15.7215C16.9165 15.7195 16.9131 15.7166 16.9106 15.713C16.9061 15.707 16.9042 15.6995 16.9053 15.6921C16.9063 15.6847 16.9103 15.678 16.9162 15.6735C17.0306 15.585 17.1505 15.5039 17.2753 15.431C17.2814 15.4291 17.2879 15.4293 17.2938 15.4315C17.2997 15.4338 17.3047 15.438 17.3079 15.4434C17.3112 15.4488 17.3125 15.4552 17.3117 15.4614C17.3109 15.4677 17.308 15.4735 17.3035 15.478C17.1813 15.5514 17.0633 15.6318 16.9501 15.7186C16.9451 15.7222 16.9392 15.7241 16.9332 15.7242Z" fill="#F47382"/>
<path d="M21.9922 11.2067C21.9008 11.2068 21.8105 11.1873 21.7271 11.1497C21.6438 11.1121 21.5695 11.0572 21.5091 10.9886C21.5052 10.9828 21.5037 10.9758 21.5047 10.9689C21.5057 10.962 21.5093 10.9557 21.5146 10.9513C21.52 10.9468 21.5268 10.9446 21.5338 10.9448C21.5407 10.9451 21.5473 10.948 21.5523 10.9529C21.6182 11.0268 21.7017 11.0829 21.795 11.1161C21.8883 11.1492 21.9885 11.1584 22.0862 11.1428C22.0899 11.1421 22.0937 11.1423 22.0974 11.1431C22.101 11.1439 22.1045 11.1455 22.1076 11.1477C22.1106 11.1499 22.1132 11.1526 22.1152 11.1558C22.1172 11.159 22.1185 11.1625 22.1191 11.1663C22.1198 11.17 22.1196 11.1737 22.1188 11.1774C22.1179 11.1811 22.1164 11.1845 22.1142 11.1876C22.112 11.1906 22.1093 11.1932 22.1061 11.1952C22.1029 11.1972 22.0993 11.1985 22.0956 11.1992C22.0614 11.2045 22.0269 11.207 21.9922 11.2067Z" fill="#F47382"/>
<path opacity="0.48" d="M15.8954 22.8365C15.7563 23.2576 15.1753 23.658 14.8952 23.487C14.6151 23.3159 13.9891 23.831 13.1675 23.6881C12.3459 23.5452 12.3459 23.2952 11.8308 22.4699C11.5319 21.9942 11.1709 21.9867 10.6408 22.0055C10.4885 22.0112 10.3212 22.0187 10.1388 22.0187C9.81467 22.0205 9.4913 21.9871 9.17437 21.919C8.89425 21.8608 8.66677 21.7555 8.48065 21.6145C7.70985 21.0354 7.62713 19.8473 7.39777 18.7061C7.11013 17.2886 6.11749 17.8112 5.98213 17.5819C5.84677 17.3525 6.25097 17.2566 6.95785 16.7415C7.66473 16.2264 7.39777 15.136 8.40921 14.5776C9.42065 14.0193 9.91885 13.2052 10.4735 12.0077C11.0281 10.8101 12.5903 9.92651 12.5903 9.92651L12.5847 9.96223C12.1655 12.5773 14.3237 13.0567 14.3237 13.0567C14.3237 13.0567 13.9139 14.352 14.7975 15.6756C15.6811 16.9991 15.8051 18.3658 15.1171 20.1293C14.429 21.8927 16.0345 22.4172 15.8954 22.8365Z" fill="#FFEBF1"/>
<path opacity="0.51" d="M15.8954 22.8364C15.7563 23.2575 15.1753 23.658 14.8952 23.4869C14.6151 23.3158 13.9891 23.8309 13.1675 23.688C12.3459 23.5452 12.3459 23.2951 11.8308 22.4698C11.5319 21.9942 11.1709 21.9866 10.6408 22.0054C11.2179 20.8474 12.3121 18.5575 12.2726 17.9634C12.2162 17.1607 12.2125 18.0029 11.1803 20.4488C10.8946 21.1256 10.5261 21.6332 10.1388 22.0186C9.81467 22.0204 9.4913 21.987 9.17437 21.919C8.89425 21.8607 8.66677 21.7554 8.48065 21.6144C9.40373 20.8154 10.4772 19.6836 11.1051 18.3451C12.3647 15.651 12.8235 13.6263 12.5076 12.4607C12.2519 11.515 12.4663 10.4378 12.5847 9.96216C12.1655 12.5772 14.3237 13.0566 14.3237 13.0566C14.3237 13.0566 13.9139 14.352 14.7975 15.6755C15.6811 16.999 15.8051 18.3658 15.1171 20.1292C14.429 21.8926 16.0345 22.4172 15.8954 22.8364Z" fill="#F4C9D0"/>
<path d="M11.7086 11.5938C11.7707 11.8646 11.6955 12.1428 11.6033 12.3985C11.5159 12.6341 11.4136 12.864 11.2969 13.0866C11.0687 13.532 10.7899 13.9497 10.4659 14.3311C10.2834 14.5469 10.0868 14.7504 9.87749 14.9402C9.86935 14.9511 9.86539 14.9645 9.86635 14.9781C9.86732 14.9916 9.87313 15.0044 9.88273 15.014C9.89233 15.0236 9.90507 15.0294 9.91861 15.0303C9.93216 15.0313 9.94559 15.0274 9.95645 15.0192C10.3382 14.6731 10.6777 14.2831 10.9679 13.8574C11.2583 13.4348 11.4986 12.9799 11.6842 12.5019C11.7989 12.2048 11.891 11.8815 11.8177 11.5638C11.8157 11.5566 11.8123 11.5499 11.8078 11.544C11.8032 11.5381 11.7975 11.5332 11.7911 11.5296C11.7846 11.5259 11.7775 11.5235 11.7701 11.5226C11.7627 11.5217 11.7553 11.5223 11.7481 11.5243C11.7341 11.529 11.7224 11.5387 11.7151 11.5516C11.7078 11.5644 11.7055 11.5794 11.7086 11.5938Z" fill="#F4C9D0"/>
<path d="M10.2591 15.1321C9.98036 15.3933 9.72204 15.6755 9.48646 15.9762C9.24953 16.2751 9.03525 16.5911 8.84538 16.9219C8.7401 17.108 8.64045 17.2997 8.55021 17.4953C8.54274 17.5082 8.54071 17.5236 8.54459 17.5381C8.54847 17.5525 8.55793 17.5649 8.5709 17.5723C8.58386 17.5798 8.59926 17.5818 8.61372 17.578C8.62817 17.5741 8.6405 17.5646 8.64798 17.5517C8.96652 16.8646 9.38602 16.229 9.89254 15.666C10.0354 15.5081 10.1839 15.3577 10.3381 15.2111C10.3907 15.1622 10.3118 15.0813 10.2591 15.1321Z" fill="#F4C9D0"/>
<path d="M13.5642 14.0811C13.2903 14.9607 13.2227 15.8916 13.3668 16.8015C13.4401 17.2639 13.5736 17.7133 13.7184 18.1588C13.8631 18.6044 14.0154 19.0462 14.1282 19.5011C14.241 19.9561 14.3087 20.4223 14.2786 20.8923C14.2748 20.9487 14.2692 21.007 14.2636 21.0634C14.2579 21.1198 14.2918 21.1198 14.32 21.1198C14.3348 21.1194 14.3488 21.1133 14.3593 21.1028C14.3698 21.0923 14.3759 21.0782 14.3764 21.0634C14.4309 20.5991 14.3801 20.1291 14.2824 19.6722C14.1846 19.2154 14.0361 18.7679 13.8894 18.3243C13.7428 17.8806 13.6018 17.4388 13.5134 16.9819C13.3406 16.0825 13.3786 15.1552 13.6244 14.2729C13.6394 14.2183 13.6563 14.1657 13.6714 14.1112C13.6864 14.0567 13.5849 14.0115 13.5642 14.0811Z" fill="#F4C9D0"/>
<path d="M12.737 19.0857C12.8154 19.3824 12.8707 19.6847 12.9024 19.99C12.9347 20.2959 12.9435 20.6039 12.9287 20.9112C12.9193 21.0841 12.9043 21.2552 12.8817 21.4263C12.8798 21.4334 12.8792 21.4409 12.8801 21.4483C12.881 21.4557 12.8834 21.4628 12.8871 21.4692C12.8907 21.4757 12.8956 21.4814 12.9015 21.4859C12.9074 21.4905 12.9141 21.4939 12.9212 21.4959C12.9284 21.4978 12.9359 21.4984 12.9432 21.4975C12.9506 21.4965 12.9577 21.4942 12.9642 21.4905C12.9706 21.4869 12.9763 21.4819 12.9809 21.4761C12.9854 21.4702 12.9888 21.4635 12.9908 21.4564C13.0767 20.8305 13.0659 20.1952 12.9588 19.5726C12.9287 19.3978 12.8911 19.2267 12.846 19.0556C12.8272 18.9861 12.7182 19.0161 12.737 19.0857Z" fill="#F4C9D0"/>
<path d="M26.335 5.20566C26.335 5.20566 25.615 5.00074 25.5379 5.05902C25.4608 5.1173 25.5135 5.2301 25.5379 5.26206C25.5624 5.29402 25.9271 5.42938 26.0662 5.44066C26.2053 5.45194 26.5888 5.4087 26.5888 5.4087L26.335 5.20566Z" fill="#FFB6B1"/>
<path d="M25.3988 4.33899C25.3988 4.33899 25.7222 4.14159 25.8688 4.09647C26.0154 4.05135 26.5776 3.85583 26.6471 3.91223C26.7167 3.96863 26.7167 4.00059 26.7167 4.00059C26.7167 4.00059 26.8257 4.00811 26.8633 4.05323C26.9009 4.09835 26.9009 4.17731 26.9009 4.17731C26.9009 4.17731 27.01 4.14723 27.087 4.22431C27.1641 4.30139 27.151 4.33899 27.151 4.33899C27.151 4.33899 26.8182 4.51195 26.743 4.54203C26.6678 4.57211 26.2749 5.18875 26.2749 5.18875C26.2749 5.18875 25.442 4.79771 25.442 4.77891C25.442 4.76011 25.3988 4.33899 25.3988 4.33899Z" fill="#FFB6B1"/>
<path d="M25.5943 4.69445C25.589 4.69501 25.5837 4.69368 25.5793 4.69069C25.5732 4.68681 25.5689 4.68075 25.5671 4.67376C25.5654 4.66677 25.5664 4.65937 25.5699 4.65309C25.7071 4.42749 25.9628 4.30529 26.1677 4.20565C26.3426 4.12105 26.5249 4.03269 26.7223 3.98757C26.7296 3.98587 26.7372 3.98708 26.7435 3.99095C26.7499 3.99483 26.7544 4.00104 26.7562 4.00825C26.7573 4.01569 26.7557 4.02329 26.7515 4.02956C26.7473 4.03582 26.7409 4.04029 26.7336 4.04209C26.5456 4.08721 26.3651 4.17369 26.1922 4.25641C26.0192 4.33913 25.7466 4.47073 25.6188 4.68129C25.6162 4.6854 25.6126 4.68878 25.6083 4.69108C25.604 4.69339 25.5992 4.69455 25.5943 4.69445Z" fill="#F47382"/>
<path d="M26.07 4.87868L26.0587 4.87492C26.0553 4.87369 26.0521 4.87176 26.0495 4.86925C26.0468 4.86675 26.0447 4.86372 26.0433 4.86036C26.0419 4.857 26.0412 4.85339 26.0413 4.84975C26.0413 4.8461 26.0421 4.84251 26.0436 4.8392C26.0731 4.77957 26.1118 4.725 26.1583 4.67752C26.3641 4.45526 26.6146 4.27907 26.8934 4.16052C26.8969 4.15904 26.9006 4.15825 26.9043 4.15821C26.9081 4.15816 26.9118 4.15885 26.9153 4.16025C26.9188 4.16165 26.922 4.16372 26.9247 4.16634C26.9274 4.16897 26.9295 4.1721 26.931 4.17556C26.9325 4.17901 26.9333 4.18273 26.9333 4.18649C26.9334 4.19025 26.9327 4.19398 26.9313 4.19747C26.9299 4.20096 26.9278 4.20415 26.9252 4.20684C26.9226 4.20953 26.9194 4.21168 26.916 4.21316C26.6438 4.32779 26.3995 4.49962 26.1997 4.717C26.1572 4.75942 26.1217 4.80828 26.0944 4.86176C26.0923 4.86657 26.0889 4.87071 26.0846 4.8737C26.0803 4.87669 26.0752 4.87841 26.07 4.87868Z" fill="#F47382"/>
<path d="M32.539 15.1264C32.2875 15.1906 32.0318 15.2377 31.7739 15.2674L31.725 15.273L31.6197 15.2824L31.4731 15.2918H31.4674C31.4613 15.2913 31.4554 15.2893 31.4502 15.286C31.445 15.2828 31.4406 15.2783 31.4374 15.273L31.4204 15.2505C31.4199 15.2477 31.4186 15.2451 31.4167 15.243C31.3979 15.2148 31.3716 15.1753 31.3415 15.1264L31.3377 15.1208C31.3358 15.1189 31.334 15.117 31.334 15.1151C31.2757 15.0211 31.2005 14.8952 31.1196 14.7466C31.1196 14.7448 31.1178 14.7429 31.1159 14.7391C31.0501 14.615 30.9805 14.474 30.9166 14.3218C30.9147 14.3199 30.9147 14.3161 30.9128 14.3142C30.911 14.3124 30.8903 14.256 30.8771 14.2278C30.864 14.1996 30.8752 14.2221 30.8752 14.2202L30.8132 14.0586C30.6177 13.5058 30.5162 12.861 30.7906 12.3308C31.3847 11.1822 32.6725 11.7255 32.7176 12.5978C32.7177 12.6046 32.7192 12.6114 32.7222 12.6175C32.7251 12.6237 32.7293 12.6292 32.7346 12.6335C32.7423 12.6391 32.7517 12.6419 32.7612 12.6415C32.7707 12.6412 32.7799 12.6377 32.7872 12.6316C32.8193 12.6098 32.8526 12.5897 32.8868 12.5715C32.9401 12.5436 32.9962 12.5215 33.0542 12.5057C33.0825 12.497 33.1114 12.4901 33.1406 12.485C33.2212 12.4703 33.3033 12.4659 33.385 12.4718H33.4095C34.0148 12.5282 34.5732 13.1336 34.1784 14.004C33.8908 14.6395 33.1688 14.9628 32.539 15.1264Z" fill="#D13B62"/>
<path d="M29.877 13.6036C29.8095 13.7002 29.7354 13.7919 29.6551 13.8781L29.6401 13.895C29.6298 13.9072 29.6184 13.9185 29.6062 13.9288C29.5916 13.9455 29.5759 13.9612 29.5592 13.9758C29.5592 13.9777 29.5592 13.9777 29.5574 13.9777C29.5554 13.9797 29.553 13.981 29.5504 13.9817C29.5477 13.9823 29.5449 13.9823 29.5423 13.9815L29.5292 13.9777H29.5254L29.4652 13.9589H29.4596C29.4126 13.9439 29.3487 13.9232 29.2772 13.8969H29.2735C29.2133 13.8724 29.1494 13.8461 29.0817 13.8123H29.078L29.0404 13.7935H29.0366L28.967 13.7559C28.7358 13.6243 28.5102 13.4325 28.4482 13.1693C28.3128 12.5997 28.9144 12.4042 29.1889 12.6899C29.191 12.6923 29.1936 12.6942 29.1965 12.6955C29.1994 12.6968 29.2026 12.6975 29.2058 12.6974C29.21 12.6975 29.214 12.6959 29.2171 12.6932C29.2203 12.6904 29.2223 12.6866 29.2227 12.6824C29.2272 12.6651 29.2329 12.6482 29.2396 12.6316C29.2491 12.6058 29.2617 12.5811 29.2772 12.5583L29.2998 12.5264C29.3239 12.4979 29.351 12.472 29.3806 12.4493L29.39 12.4436C29.6138 12.2838 29.986 12.3252 30.1082 12.7407C30.1966 13.0358 30.0443 13.3611 29.877 13.6036Z" fill="#D13B62"/>
<path d="M16.0082 6.3169C15.9612 6.45844 15.9047 6.59662 15.839 6.7305L15.8277 6.75682C15.8164 6.7775 15.807 6.79442 15.7995 6.81134C15.792 6.82826 15.7657 6.8715 15.7582 6.88466C15.7506 6.89782 15.7582 6.88654 15.7563 6.88842C15.7544 6.89125 15.7519 6.89359 15.749 6.89522C15.746 6.89686 15.7427 6.89776 15.7394 6.89782H15.7168C15.698 6.89782 15.6717 6.8997 15.6378 6.89782H15.6303C15.5664 6.89782 15.4818 6.89594 15.384 6.88842H15.3803C15.2994 6.88278 15.2092 6.8715 15.1152 6.85646H15.1114L15.0569 6.84518H15.0532L14.9554 6.8245C14.6264 6.74742 14.2805 6.59702 14.1094 6.29998C13.7372 5.65514 14.3989 5.1983 14.837 5.44646C14.8402 5.44875 14.8439 5.45027 14.8478 5.45092C14.8517 5.45157 14.8557 5.45133 14.8595 5.45022C14.865 5.44851 14.8697 5.44494 14.8727 5.44013C14.8758 5.43532 14.8771 5.42958 14.8764 5.4239C14.8752 5.40133 14.8758 5.37869 14.8783 5.35622C14.8808 5.32179 14.8871 5.28773 14.8971 5.2547L14.914 5.20582C14.9324 5.16252 14.9557 5.12151 14.9836 5.08362C14.9867 5.08033 14.9893 5.07651 14.9911 5.07234C15.2073 4.79598 15.6754 4.71326 15.9744 5.17574C16.1924 5.5085 16.1248 5.9597 16.0082 6.3169Z" fill="#D13B62"/>
</svg>
